/* XPM */
static char *result[] = {
/* columns rows colors chars-per-pixel */
"64 64 211 2 ",
"   c #010202",
".  c #050808",
"X  c #010B0C",
"o  c #0B0B0B",
"O  c #0B190D",
"+  c #020F11",
"@  c #021314",
"#  c #0B1111",
"$  c #091519",
"%  c #031B1C",
"&  c #091B1C",
"*  c #131313",
"=  c #171817",
"-  c #151919",
";  c #1C1C1C",
":  c #1C241C",
">  c #031E20",
",  c #031F37",
"<  c #052324",
"1  c #042628",
"2  c #052B2C",
"3  c #0A2A2B",
"4  c #132425",
"5  c #1D2222",
"6  c #172B2C",
"7  c #062F31",
"8  c #082C35",
"9  c #112330",
"0  c #063133",
"q  c #083638",
"w  c #083B3E",
"e  c #143435",
"r  c #173939",
"t  c #242424",
"y  c #252A2A",
"u  c #2B2B2B",
"i  c #28352A",
"p  c #30372E",
"a  c #243233",
"s  c #2C3131",
"d  c #2B3738",
"f  c #263C3A",
"g  c #2E393A",
"h  c #333434",
"j  c #34373D",
"k  c #343A3A",
"l  c #3B3B3B",
"z  c #21451E",
"x  c #10443F",
"c  c #2B4935",
"v  c #334537",
"b  c #316228",
"n  c #2D6739",
"m  c #031B41",
"M  c #063E41",
"N  c #0C3E41",
"B  c #15324A",
"V  c #273B54",
"C  c #09386C",
"Z  c #074347",
"A  c #0A4143",
"S  c #0A4549",
"D  c #0A494D",
"F  c #164547",
"G  c #11494C",
"H  c #0A4D52",
"J  c #174E51",
"K  c #0C5256",
"L  c #0C5659",
"P  c #0C595D",
"I  c #1B5557",
"U  c #274747",
"Y  c #344445",
"T  c #3D4243",
"R  c #3D4842",
"E  c #364C4B",
"W  c #3B4B4C",
"Q  c #2A4F54",
"!  c #394F50",
"~  c #374B5C",
"^  c #395253",
"/  c #375658",
"(  c #335A5C",
")  c #276948",
"_  c #257456",
"`  c #134E67",
"'  c #0C5D62",
"]  c #06477B",
"[  c #06537D",
"{  c #2D5E61",
"}  c #0D6267",
"|  c #0E666B",
" . c #0E696E",
".. c #126164",
"X. c #166A6B",
"o. c #0F6D72",
"O. c #106D72",
"+. c #147377",
"@. c #11757A",
"#. c #12797E",
"$. c #2E696B",
"%. c #326365",
"&. c #326768",
"*. c #2D6F72",
"=. c #277377",
"-. c #29767A",
";. c #414242",
":. c #474C4C",
">. c #4B4B4B",
",. c #4F534F",
"<. c #4B5657",
"1. c #545454",
"2. c #555A5A",
"3. c #5B5C5B",
"4. c #505962",
"5. c #5E6464",
"6. c #646564",
"7. c #64696A",
"8. c #6C6C6C",
"9. c #6C7375",
"0. c #737373",
"q. c #7E7E7E",
"w. c #3C874C",
"e. c #1C847D",
"r. c #3AA677",
"t. c #45954A",
"y. c #5BBD59",
"u. c #4AB167",
"i. c #48BB7D",
"p. c #6DCE50",
"a. c #77DC53",
"s. c #73DF5F",
"d. c #75E05C",
"f. c #5BC76A",
"g. c #4EC27D",
"h. c #5CCC72",
"j. c #53C678",
"k. c #6BD662",
"l. c #67D568",
"z. c #003894",
"x. c #075890",
"c. c #0D6A89",
"v. c #137D83",
"b. c #197D83",
"n. c #0C7899",
"m. c #0254A8",
"M. c #0567A9",
"N. c #0B7BA2",
"B. c #0773A9",
"V. c #138186",
"C. c #1E8287",
"Z. c #13848B",
"A. c #1F928B",
"S. c #158C93",
"D. c #168A97",
"F. c #149097",
"G. c #1C9195",
"H. c #16949C",
"J. c #1C959B",
"K. c #17989F",
"L. c #1A999F",
"P. c #248185",
"I. c #278788",
"U. c #24848A",
"Y. c #24998A",
"T. c #218C92",
"R. c #289E94",
"E. c #33AC8B",
"W. c #38B28B",
"Q. c #3BB58B",
"!. c #3EB98A",
"~. c #28A496",
"^. c #2CAB96",
"/. c #23A49D",
"(. c #28A799",
"). c #2AAA9A",
"_. c #30AE93",
"`. c #31B195",
"'. c #0D84A7",
"]. c #1082A3",
"[. c #118EA4",
"{. c #1393A5",
"}. c #179CA5",
"|. c #199EA5",
" X c #179FA9",
".X c #189FA8",
"XX c #1AA0A6",
"oX c #16A1AD",
"OX c #1AA3AA",
"+X c #22A9A3",
"@X c #7A8181",
"#X c #40B683",
"$X c #44BC84",
"%X c #49C081",
"&X c #828383",
"*X c #878E8E",
"=X c #8C8C8C",
"-X c #939494",
";X c #9C9C9C",
":X c #A4A4A4",
">X c #ADADAD",
",X c #B3B3B3",
"<X c #BCBCBC",
"1X c #C3C3C3",
"2X c #CCCCCC",
"3X c #D5D5D5",
"4X c #DCDCDC",
"5X c #E3E3E3",
"6X c #ECECEC",
"7X c #F4F4F4",
"8X c #FEFEFE",
/* pixels */
"p.y.r.A.G.Y.u.y.p.y.u.r.G.F.F.F.F.F.F.S.F.F.F.F.F.F.F.F.F.F.F.F.F.F.F.F.F.F.F.F.F.F.F.F.F.F.S.F.F.F.F.F.F.F.F.S.F.F.F.F.F.F.F.K.",
"a.k.r.R.|.~.i.k.a.p.f.E.L.XX|.|.|.|.|.|.|.|.}. X|.}.|.|.|.XX}.|.|.}.}.}.}.XXK.}.|.|.|.}.|.|.}.|.|.|.|.|.|.|.|.|.}.|.}.}.|.|.|.XX",
"l.j.Q.+X}.(.!.h.l.f.g.^.XX}.|.XX|.XXXXXXXXXXXXXXXXXXXXXXXXXXXXXXXXXXXXXXoXXXXXXXXXXXOXXXXX|.XX|.|.|.|.XXOXXXOX|.XXXXXXXXXXOXoXOX",
"$XQ.^.+X}./.E.!.$X!.W.~.T.U.U.C.b.V.F.|.XX}.XXXXXXXXXXXX}.XXXXXXXXXXXXXXXXXXXXXXXX|.XX|.|.|.G.T.U.U.T.|.|.|..X|.XX.XXXXXXXXXOXOX",
"^.)./.|.|.XX/.(.^.^._.e.&./ ! E r F @.F.|.|..X|.}.XX|.|.|.|.|.|.|.XXK.XXXXXXK.XX|.|.|.L.L.T.*.( ^ / $.U.L.|.|.|.|.XX|.|.|.|.XXOX",
"oXXX.X|.|.|.}.|.|.R.b.%.! R v k 5 & w o.J.|.|..XXX}.XX}.|.|.XX|.|.XXXXXXXX}.XXXX|.|.L.P.*.%./ ;.;.;.! ( &.-.T.|.|.|.|.|.|.|.XXOX",
"oXXX.X|.|.|.|.}.T.U.%.W l h u t *   % M o.Z.v.O.|  .| | | | | } | | | | | | #.S.L.J.P.%.^ W ;.;.;.T T W W &.T.|.|.|.|.|.|.XXXXOX",
"OXXX|.|.|.|.|.J.b.&.:.V h ; * o .     % M ' H F U ( ( ( ( ( ( ( ( ( ( { Q r H | b.+.%.W ;.;.l h h k l l ;.( T.}.|.|.|.|.|.XXOXOX",
"OX|.|.|.|.}.}.U.$.<.;.h t # .         # 6 F r W 7.*X*X*X*X*X*X=X*X*X*X*Xq.R r J I I Y V ;.h u ; ; ; t h l / U.H.}.|.XX|.|.|.XXOX",
"OXOX|.|.|.}.J.=.:.V l u *           o t ;.,.2.@X<X5X5X5X5X5X5X5X5X5X5X5X3X=X6.2.<.W l h h t * o . . * 5 y f ..Z.K.|.|.|.|.|.XXOX",
"OXOX|.|.|.|.J.*.W ;.;.u #         . u 8.,X1X2X3X6X8X8X8X8X8X8X8X8X8X8X8X7X5X3X1X>X&X;.u t * .         o o # 2 | S.|.|.|.|..XXXOX",
"OXXX|.|.|.|.R.*.W ;.;.u #       . t 7.,X6X8X7X8X8X8X8X8X8X8X8X8X8X8X8X8X8X8X8X7X5X<Xq.>.; o                 % P S.|.|.|.|.XXOXOX",
"OXXXXXXX|.|.T.*.W ;.;.t *     o u 6.>X4X7X8X8X8X8X8X8X8X8X8X8X8X8X8X8X8X8X8X8X7X7X5X1Xq.;.*                 @ P S.|.|.|.|.|.XXOX",
"OXXX|.|.|.|.L.-./ ;.;.u * * ; u 6.:X3X6X8X8X8X8X8X8X8X8X8X8X8X8X8X8X8X8X8X8X8X8X8X6X4X<Xq.l ; * .           1 } S.|.|.|.|.|.XXOX",
"OXXX|.|.|.|.}.C.$.E l t t h 3.q.:X3X7X7X8X8X8X8X8X8X8X8X8X8X8X8X8X8X8X8X8X8X8X8X8X7X6X4X>Xq.3.l =         @ D #.K.|.|.|.|.|.oXOX",
"OXXX|.|.|.|.}.J.=.U u = t 1.-X1X3X5X7X7X8X8X8X8X8X8X8X8X8X8X8X8X8X8X8X8X8X8X8X8X8X8X8X6X3X<X:X8.u .       < +.S.}.|.XX|.|.XXOXOX",
"OXOX|.|.|.|.|.J.b.F - * u 8.>X3X5X6X7X8X8X8X8X8X8X8X8X8X8X8X8X8X8X8X8X8X8X8X8X8X8X8X8X7X5X3X<X&Xl * . O O x e.K.|.|.|.|.XX|.XXOX",
"OXOX|.|.|.|.|.|.Z.L > 5 ,.=X<X4X6X7X8X8X8X8X8X8X8X8X8X8X8X8X8X8X8X8X8X8X8X8X8X8X8X8X8X7X6X4X2X;X6.h : z b _ A.L.|.|.|.|.|.|.XXOX",
"OX|.|.|.|.|.|.}.Z.' 3 j 0.>X2X4X6X7X8X8X8X8X8X8X8X8X8X8X8X8X8X8X8X8X8X8X8X8X8X8X8X8X8X7X7X5X3X<X=X1.z b t.r.~./.|.XX|.|.XXXXXXOX",
"OXOX|.|.|.|.{.[.v.S 4 :.-X<X3X5X7X8X8X8X8X8X8X8X8X8X8X8X8X8X8X8X8X8X8X8X8X8X8X8X8X8X8X8X7X6X4X2X:X6.p z w.!.~.XX|.|.|.|.XXXXXXOX",
"OX|.|.|.|.{.[.N.[ 3 h 8.:X2X5X6X7X8X8X8X8X8X8X8X8X8X8X8X8X8X8X8X8X8X8X8X8X8X8X8X8X8X8X8X7X7X6X3X<X&X>.i ) E./.L.|.}.XXK.XXXXXXoX",
"OX.X|.|.|.[.N.x.C 9 3.;X,X2X5X7X8X8X8X8X8X8X8X8X8X8X8X8X8X8X8X8X8X8X8X8X8X8X8X8X8X8X8X8X8X8X6X3X1X:X0.k x e.J.|.XXXXXXXXXXK.XXOX",
"OXOX|.|.|.{.n.` , ; 8.:X<X3X5X8X8X8X8X8X8X8X8X8X8X8X8X8X8X8X8X8X8X8X8X8X8X8X8X8X8X8X8X8X8X7X6X3X1X>Xq.l % S Z.K.K.XXXX}.XXXXXXOX",
"OXXX|.|.|.}.n.H 4 l q.>X<X2X5X7X8X8X8X8X8X8X8X8X8X8X8X8X8X8X8X8X8X8X8X8X8X8X8X8X8X8X8X8X8X7X6X3X1X,X=X1.; 0 v.}.XXXX}.XXXXXXXXOX",
"OXXX|.|.|.}.S.H 6 1.-X>X<X3X5X7X8X8X8X8X8X8X8X8X8X8X8X8X8X8X8X8X8X8X8X8X8X8X8X8X8X8X8X8X8X7X6X3X1X,X;X7.s 2 v.L.|.|.|.XX|.|.XXoX",
"OXOX|.|.|.|.S.H d 6.;X,X1X2X5X7X8X8X8X8X8X8X8X8X8X8X8X8X8X8X8X8X8X8X8X8X8X8X8X8X8X8X8X8X8X8X6X3X1X,X;X0.h 3 v.}.|.|.|.|.|.|.XXOX",
"OXXX|.|.|.|.D.K d 8.;X,X<X2X5X6X7X8X8X8X8X8X8X8X8X8X8X8X8X8X8X8X8X8X8X8X8X8X8X8X8X8X8X8X7X7X6X3X<X>X-X8.h 3 #.F.K.|.XX|.|.XXXXoX",
"OXOX|.|.}.H.b.G a 6.&X;X,X1X3X5X7X7X8X8X8X8X8X8X8X8X8X8X8X8X8X8X8X8X8X8X8X8X8X8X8X8X8X8X7X6X4X2X<X;Xq.3.u < } #.Z.H.|.|.|.XXOXOX",
"OXOX|.|.L.U.{ 6 - t u 3.=X>X2X4X5X6X7X8X8X8X8X8X8X8X8X8X8X8X8X8X8X8X8X8X8X8X8X8X8X8X8X8X7X5X2X<X>X;X0.l o X < 2 K V.XXXX|.|.XXOX",
"OXXXOXL.U.&.Y 5 .   . ; ,.=X,X1X3X5X6X7X8X8X8X8X8X8X8X8X8X8X8X8X8X8X8X8X8X8X8X8X8X8X8X7X7X2X-X8.6.1.l =       X q o.|.XX|.|.XXOX",
"OXXXXXT.-.! j 5 .       ; ,.q.-X;X<X3X6X7X7X8X8X8X8X8X8X8X8X8X8X8X8X8X8X8X8X8X8X7X6X2X1X<X;X1.t * # o         X 2 ' S.K.XXXXXXOX",
"OXXXL.T.$.:.h ; o .     . * t h l 6.>X3X5X6X6X7X6X7X6X6X6X7X6X6X7X6X6X7X6X6X7X6X5X<X8.;.;.u =                   X 7 | H.XXXXXXOX",
"OXOXT.-./ l : o = h t o   * ; 5 t h 3.0.0.0.q.&X&Xq.&Xq.q.q.@X&Xq.q.q.q.&Xq.q.q.0.3.; . o                         % L H.}.|.XXOX",
"OX|.T.&.Y p * o t 8.3.u * # = t u h h u h h h h h h h h h h h u t t t t t t t t t = o           o * t ; o         @ w @.H.|.XXOX",
"OXOXP.( T u o . h &X=X6.u = # = t u t t t t t u u u u u u u t = o                           # = t >.3.1.t         X % D Z.XXXXOX",
"OX|.U.( T u * . h &X>X;X6.h * o = t u t t u h h l l l l l l h t o .           o . o o o o = h 1.8.&X=X0.h           X 7 v.XXXXOX",
"OXXXP.( ;.u o . u =X,X,X-X8.;.h h l l h l h h h h h h h h h h u ; o         * t h h h h h >.&X>X,X>X;X0.l           @ w V.|.|.OX",
"OXOXI.( ;.u * . u &X>X<X<X,X,X<X<X<X1X<X<X:X8.h = = = = = = = = * # o o o o >.=X,X1X<X<X<X1X3X2X1X,X:X0.h         @ w #.K.}.XXOX",
"OXOXI.( l u *   = >.=X>X<X2X3X6X7X6X7X7X6X5X<X-X&X&X&X&X&X&X&Xq.&Xq.q.&Xq.q.:X3X6X7X7X7X7X6X5X3X<X:X-X8.h       . % H S.}.XXXXOX",
"OX.XT.$.V t o   o t 8.:X<X2X4X7X8X8X8X8X8X8X5X4X3X3X3X3X3X3X3X4X3X3X3X4X3X3X5X7X7X8X8X8X8X7X5X3X<X;Xq.1.v 6 2 2 2 A  .K.|.XXXXOX",
"OXOXJ.b.I 9 & @ + - 6.:X<X2X4X6X7X8X8X8X8X8X8X7X7X8X7X7X8X7X7X8X8X7X8X7X7X8X8X8X8X8X8X8X7X7X5X3X<X-X8.v U _ X.X.o.@.Z.K.XX|.XXOX",
"OX|..XT.+.L D S 0 4 6.:X<X2X4X6X6X8X8X8X8X8X8X8X8X8X8X8X8X8X8X8X8X8X8X8X8X8X8X8X8X8X8X7X6X5X5X3X<X-X3.v n r.R.G.H.H.K.|.XX|.XXOX",
"OX|.|.L.H.Z.Z.Z.' e 7.;X,X1X3X5X6X8X8X8X8X8X8X8X8X8X8X8X8X8X8X8X8X8X8X8X8X8X8X8X8X8X8X7X5X5X4X3X<X-X6.c n %X(.XXXXXX|.|.XXXXXXOX",
"OXOX|.|.}.|.|.{.@.F 5.=X;X>X1X4X6X8X8X8X8X8X8X8X8X8X8X8X8X8X8X8X8X8X8X8X8X8X8X8X8X8X7X6X5X4X3X1X,X;X8.v ) !.(.L.}.}.}.XX|.XXoXOX",
"XXXX|.|.XXXX|.K.Z.../ 6.&X;X<X4X6X7X8X8X8X8X8X8X8X8X8X8X8X8X8X8X8X8X8X8X8X8X8X8X8X7X7X5X5X4X2X<X>X&X4.Q X.~.XX|.|.|.|.|.|.|.XXOX",
"OXXXXX|.|.|.|.|.H.v.J T 6.=X>X2X4X6X7X7X8X8X8X8X8X8X8X8X8X8X8X8X8X8X8X8X8X8X8X8X8X7X6X5X4X3X2X<X;X7.V ] x.].}.|.|.|.|.|.|.|.XXOX",
"OXOX|.|.|.|.|.|.|.S.H f 2.q.-X,X1X3X5X6X7X7X8X8X8X8X8X8X8X8X8X8X8X8X8X8X8X8X8X8X7X6X5X5X4X2X<X,X-X4.B C m.B.[.}.|.|.|.XX|.XXXXOX",
"OXXX|.|.|.|.XX|.|.H.O.J E 2.8.7.8.q.&X=X,X5X7X8X8X8X8X8X8X8X8X8X8X8X8X8X8X8X7X7X6X5X4X3X2X<X<X;X9.~ C z.m.B.[.}.|.|.|.|.|.XXoXOX",
"OXXX|.|.|.|.|.|.|.|.D...U T :.l u u u l 3.;X1X3X6X8X8X8X8X8X8X8X8X8X8X8X8X8X7X6X5X5X5X2X1X,X;X8.~ ` x.m.M.N.{.}.|.|.|.|.|.|..XOX",
"OXOX|.|.|.XX|.|.|.|.}. .w s l h u u t u h >.6.=X2X8X7X8X8X8X8X8X8X8X8X8X7X6X6X5X5X4X3X<X:X-X8.W ` c.N.N.'.[.|.|.|.|.|.|.|.|..XOX",
"OXXX|.|.|.|.|.XX|.|.J.X.q y h l h h t ; = * t 1.>X6X7X7X7X7X8X8X8X8X7X7X7X5X5X4X3X1X<X-X0.3.V B ] n.{.L.}.}.|.|.|.|..X|.|..XOXOX",
"OXOX|.|.|.|.|.|.|.|.Z.P e y l ;.l u * o o   o h &X2X5X5X5X6X6X7X7X7X7X5X4X3X3X2X,X-X&X1.u ; $ m ] B.{.|.|.|.|.|.|.|.|.|.|..XOXOX",
"OXXX|.XXL.|.|.|.|.J.| N a s l ;.l t #       . = >.-X4X4X3X4X4X5X5X5X4X3X1X<X<X:Xq.>.j ; .   . m x.n.}.|.|.|.|.|.|.|.|.|.|.|.|.OX",
"OXXX|.|.XX|.|.|.|.D.S 4 u l ;.l u ; o           ; 6.2X<X<X<X<X<X,X<X<X,X&X0.8.3.h o         . 8 [ D.}.|.|.|.|.|.|.OX|.|.|.|.OXOX",
"OXXXXX|.|.|.|.|.}.S.S 4 s l l l t .             = >.-X0.8.8.0.8.8.0.&X8.h ; = * o           X q +.{.|.|.|.|.|.|.|.|.|.|.|.|..XOX",
"OXOXXX|.|.|.|.XXL.S.S 4 u l l h ; .             o t W g d d g g g g Y s * .                 X M #.H.|.|.|.|.|.|.|.|.|.|.|..X|.oX",
"OXXX|.|.|.|.}.XX|.S.D 6 u k v l ; .             X 3 G D G G G G G G G q X                 X 2 ' Z.}.|.|.|.|.|.|.|.|.|.|.|././.).",
"OXXX|.|.|.|.XX}.|.F.P q a h l h t             X 1 K V.V.V.V.V.V.V.v.v...0 @             X 2 L V.L.|.|.|.|.|.|.|.|.|.|.}.|.^.Q.$X",
"OXXX|.XXXX|. X}.|.H.v.K e y h h ; .           > K V.|.|.K.XX|.|.|..X}.S.| 7 @ X X X X + 2 L V.}.|.|.|.|.|.|.XX|.|.|.|. XXXW.g.h.",
"OXXX|.|.|.}. XXX|.}.{. .q - ; ; #           X 0  .|.|.|.|.XX|.XX|.|.|.}.S.} D Z w M M Z ' V.H.}.|.|.|.|.|.XX|.|.|.|.|. X/.!.j.s.",
"OXXXXX|.XXL././.(././.+.S 3 & # .       . @ 1 D #.|.|.|.XXXXXX|.|.|.|.|.}.S.Z.V.Z.Z.v.V.S.H.|.|.|.|.|.|.|.|.|.|.|.|. X X/.#Xh.s.",
"OXXXXX|.XX/.).W.!.Q._.T.+.' D < + X X @ 1 D } @.F.XX|.|.K.XX|.|.|.|.|.XX}.}. X X}.}.}.}.|.|.|.|.|.|.|.|.|.|.|.|.|.|.}. X/.#Xh.s.",
"OXOXXX XXX).Q.g.h.j.$X^.|.H.v.L w w w A L V.L.}.XXXXXXXXXXXXXXXXXXXXXXXXoXXXXXXXXXXXXXXXXXXXXXXXXXXXXXXX|.XX|.|..X.XoX X+XQ.h.s.",
"OXOXOXOXOX).%Xl.d.k.j.`.XXoX|.{.F.H.F.H.K.XXXXOXXXOXOXXXOXOXOXoXoXXXOXoXXXOXXXXXOXOXoXOXOXXXOXoXXXOXOXOXOXOXOXOXOXOXOXoX+X$Xh.s."
};
