/* XPM */
static char *result[] = {
/* columns rows colors chars-per-pixel */
"64 64 251 2 ",
"   c #1F1A12",
".  c #362916",
"X  c #51331A",
"o  c #744934",
"O  c #615930",
"+  c #376568",
"@  c #4F4E4C",
"#  c #595B5B",
"$  c #664E44",
"%  c #6E564E",
"&  c #7A5849",
"*  c #6A6259",
"=  c #7A645A",
"-  c #5A6568",
";  c #5C6D73",
":  c #5E7278",
">  c #646463",
",  c #696B6A",
"<  c #736D69",
"1  c #6E706F",
"2  c #78736E",
"3  c #666E71",
"4  c #6A7577",
"5  c #727372",
"6  c #797A79",
"7  c #89371E",
"8  c #96381B",
"9  c #983A1C",
"0  c #933E22",
"q  c #89452A",
"w  c #9A4628",
"e  c #8E5638",
"r  c #985237",
"t  c #A74926",
"y  c #AB4E2A",
"u  c #B44E25",
"i  c #B34F29",
"p  c #AD512C",
"a  c #B4542D",
"s  c #B95228",
"d  c #A95835",
"f  c #B55A34",
"g  c #BD5C34",
"h  c #8E6D39",
"j  c #AF693C",
"k  c #BA693A",
"l  c #C45629",
"z  c #C35A2B",
"x  c #C7592A",
"c  c #D65E2C",
"v  c #C55D31",
"b  c #D6612E",
"n  c #DD622E",
"m  c #C36235",
"M  c #CC6333",
"N  c #C96A38",
"B  c #CD6D39",
"V  c #CC6C3B",
"C  c #D46737",
"Z  c #DD6531",
"A  c #DC6A34",
"S  c #DA723B",
"D  c #E0642F",
"F  c #E16631",
"G  c #E86732",
"H  c #E46A34",
"J  c #EB6B34",
"K  c #F16C31",
"L  c #EC7235",
"P  c #E5773B",
"I  c #EC7539",
"U  c #EC7A3C",
"Y  c #F17538",
"T  c #F27B3D",
"R  c #865845",
"E  c #94764B",
"W  c #836252",
"Q  c #8F6450",
"!  c #866959",
"~  c #9C6854",
"^  c #A5634D",
"/  c #B96742",
"(  c #AB744A",
")  c #A36C57",
"_  c #887369",
"`  c #917568",
"'  c #857B75",
"]  c #D06F40",
"[  c #CD7542",
"{  c #D67743",
"}  c #DB7B45",
"|  c #E77C43",
" . c #F27D41",
".. c #36A377",
"X. c #5EBE55",
"o. c #75837E",
"O. c #47B371",
"+. c #72D44F",
"@. c #75E15D",
"#. c #53C374",
"$. c #5ACB72",
"%. c #68D464",
"&. c #AE8C3C",
"*. c #EE823D",
"=. c #F2843E",
"-. c #F6893F",
";. c #B08B4C",
":. c #B8974A",
">. c #B19957",
",. c #8A827B",
"<. c #98847A",
"1. c #A8926B",
"2. c #DB8349",
"3. c #DA854A",
"4. c #CE9556",
"5. c #E78548",
"6. c #E38B4C",
"7. c #EB8D4B",
"8. c #F48342",
"9. c #F48C48",
"0. c #EA914E",
"q. c #F2924E",
"w. c #F8974B",
"e. c #FA9C4D",
"r. c #EA8E50",
"t. c #ED9754",
"y. c #F39554",
"u. c #F99654",
"i. c #F39B54",
"p. c #FA9B54",
"a. c #F49C59",
"s. c #FA9E5B",
"d. c #CBA954",
"f. c #D2AC56",
"g. c #DAB857",
"h. c #EBAD54",
"j. c #FCA154",
"k. c #F6A25A",
"l. c #FBA35C",
"z. c #FBA65C",
"x. c #D69B6B",
"c. c #D0B765",
"v. c #F5AB69",
"b. c #DEC15E",
"n. c #E0C25F",
"m. c #D8C368",
"M. c #E3C966",
"N. c #E8D46D",
"B. c #EBD875",
"V. c #F4D077",
"C. c #EEE078",
"Z. c #5D7F81",
"A. c #6F7E82",
"S. c #149097",
"D. c #179198",
"F. c #2C8F8C",
"G. c #27979D",
"H. c #38979C",
"J. c #1FA39F",
"K. c #3DB68A",
"L. c #23A59E",
"P. c #2AAA98",
"I. c #33AF90",
"U. c #0D86A8",
"Y. c #169DA6",
"T. c #199EA5",
"R. c #159BA8",
"E. c #368BA2",
"W. c #239EA4",
"Q. c #2B9EA3",
"!. c #389DA3",
"~. c #1AA1A6",
"^. c #16A1AC",
"/. c #1AA3AA",
"(. c #27A1A5",
"). c #38A1A5",
"_. c #47979A",
"`. c #5A9A99",
"'. c #7A8588",
"]. c #689392",
"[. c #769795",
"{. c #45BC84",
"}. c #52A797",
"|. c #6EAA99",
" X c #4A99A5",
".X c #49A3A5",
"XX c #53A2A2",
"oX c #56A5A8",
"OX c #53ADB2",
"+X c #76A5A6",
"@X c #72ABAC",
"#X c #68C489",
"$X c #878684",
"%X c #8B8D8D",
"&X c #958D86",
"*X c #989189",
"=X c #868F91",
"-X c #859597",
";X c #8C9393",
":X c #939493",
">X c #999694",
",X c #93999A",
"<X c #9B9D9C",
"1X c #A5968D",
"2X c #A8988E",
"3X c #A9998E",
"4X c #AF9B8E",
"5X c #A49D97",
"6X c #AB9B92",
"7X c #92A39E",
"8X c #A9A59B",
"9X c #ACA49D",
"0X c #B3A292",
"qX c #BFA897",
"wX c #B7A799",
"eX c #BBA99C",
"rX c #949EA0",
"tX c #85A6A6",
"yX c #9BA4A4",
"uX c #9AB6B7",
"iX c #A4A5A4",
"pX c #ACA6A4",
"aX c #ACA9A6",
"sX c #A5A7A9",
"dX c #A4ABAC",
"fX c #ADADAD",
"gX c #B0A7A0",
"hX c #B4ACA4",
"jX c #B9ABA2",
"kX c #B3ADAB",
"lX c #B6B2AE",
"zX c #A5AFB1",
"xX c #ADB2B2",
"cX c #A8B6B8",
"vX c #B2B3B3",
"bX c #BAB7B4",
"nX c #B3B9BA",
"mX c #C6AC90",
"MX c #C0A897",
"NX c #C5BDB9",
"BX c #A2C6A8",
"VX c #EEE28E",
"CX c #CBC2BF",
"ZX c #B4BFC1",
"AX c #9FCCCE",
"SX c #B8C3C5",
"DX c #C6C8C8",
"FX c #D3CFCC",
"GX c #D4DBDC",
"HX c #D7DFE0",
"JX c #DBE3E3",
/* pixels */
"+.X...F.S.F.O.X.+.X.O...S.S.S.S.D.S.S.D.D.D.D.+X,X`.H.dXpXlXbXNXbXpX&XA.`.uXcXtXE.U.U.U.D.S.S.S.S.S.S.S.S.S.S.S.S.S.S.S.S.S.S.S.",
"+.%.O.P.Y.P.O.%.+.+.#.I.J.Y.Y.~.R.T.R.T.!.+XtXdXiX[. XyXfXkXbXbXlXpX&XA.tXZXnXzXrXrX+XE.T.~.T.T.T.T.D.Y.Y.Y.T.T.T.Y.Y.T.T.Y.Y.~.",
"%.#.I.L.R.L.K.$.@.$.#.P.^.Y.~.~.^.W.!. X+XsXvXvXkXtX].,XfXvXvXbXkXpX,.5 nXZXnXvXkXkXyX+XoX.X(.~.~.~./.^./.~.T./.T.~.~./.~./././.",
"{.K.P.J.Y.J.I.K.#.O.I.L.~.Y.Y.~.^.Q.+X<XiXaXfXvXkX8X%X6 sXvXkXvXkXpX,.1 SXvXvXkXkXkXpXkXiXtX.X(.~.~.~.~.~.T.T.T.Y.~.Y.~.Y.~././.",
"P.P.J.~.T.J.J.P.I.P.P.~.Y.Y.Y.T.W.!.cXiXiXsXkXfXaXpX%X> ,XxXvXbXkX5XA.3 DXnXvXvXkXkXkXkXkXpXpX+X).T.T.T.T.T.T.T.T.T.T.T.T.Y.~./.",
"/.^.Y.T.T.Y.T.T.T.T.T.~.~.Y.J._. X!.=XyXiXsXsXkXkXaX:X# ; : ; 3 A.3 - A.yXnXvXvXkXkXkXkXkXpXpXsXtXXXT.Y.T.T.T.T.T.T.T.T.T.~././.",
"^.^.~.T.T.Y.Y.Y.Y.R.Y.Y.~./.`.-X-XZ.- ;XiXiXsXsX,X'.4 @ $ % $ o & o R = 6 A.=XrXkXkXkXkXkXpXpXpXiXtX.X(.T.T.T.T.T.T.T.T.T.~.~./.",
"/.^.~.~.T.T.Y.Y.Y.Y.Y.T.(..XyXsX5X:X> A.;X,X%X%X2 % $ o 0 0 9 t y i f r R = < ' :X<XkXkXkXkXpXpXpXiX-X.XW.T.T.T.T.T.T.T.T.~././.",
"/.T.T.T.T.T.T.T.T.T.Y.T..XzXzXaXiX5X>X3 A.%X< % o 7 9 t t u u y v } ] C l i r R > A.;XsXkXpXpXpXpX9X5X].H.T.T.T.T.T.T.T.T.T.~./.",
"/./.T.T.T.T.T.T.T.T.Y..X@XZXnXvXaXsXiX'.> $ o 7 9 t y v N V v a ] | y.| ] C v i 7 & , A.:XpXpXpX5X5X;XA.F.T.T.T.T.T.T.T.T.T.~./.",
"/./.T.T.T.T.T.T.T.T.T.XXyXdXnXnXxXdX,X1 % 0 0 0 u g g V { } S k {  .u.u.y.r.} f 0 y & ; A.'.<X:X'.A.; @ + (.~.~.T.T.T.T.~.Y.~./.",
"/./.T.T.T.T.T.T.T.T.F.: %X<XdXzXxXsX4 % 7 0 w 0 g V ] } | 5.} V { y.s.s.s.s.r.] t v ^ W # A.;X=X'.'.A., ].oXH.T.T.T.T.T.Y.~.~./.",
"/./.T.T.T.T.T.T./.R.+ - , 4 $X,X<X%X# o w t a y V } } 5.6.0.6.B } t.s.s.s.s.a.{ t } { / R % %XrXsXiXiX<X8XyXXX(.T.T.T.T.T.Y.~./.",
"/./.T.T.T.T.T.T.T.T.W.+ @ @ , A.A., $ q t g ] y [ r.6.6.t.t.6.V } y.s.s.s.s.s.{ p | r.| ] d jXkXfXaXgXgX9XyXoX(.T.T.T.T.T.~.~./.",
"/./.T.T.T.T.T.T.).AXSXZXyX&X&X> @ $ q p m { } p } i.r.r.i.i.6.B } u.s.s.s.s.a.{ p r.u. .{ p <.pXkXgXgXgX9X8X+XW.T.T.T.T.Y.~.~./.",
"/./.~.T.T.T.T.W.OXSXZXnXvXpX1X, @ 7 t v { 6.6.y 3.a.y.r.i.k.6.N } x.s.s.s.s.a.} p y.u.9.| f ` 5XfXgX9X9X8X8XtXQ.T.T.T.~.Y.~././.",
"/./.T.T.T.T.T.).@XzXvXfXkXpX5XA.R 9 g ] 5.r.r.y 3.k.t.0.i.k.6.N } a.s.l.s.s.a.} p y.s. .| g ~ 1XaX9X9X9X9X8XrX(.T.T.T.T.T.T.~./.",
"/./.T.T.T.T.R.!.tXzXvXzXfXvXpX$XW i } | y.y.r.y 3.k.k.6.i.k.3.v } a.l.s.s.s.a.} a u.s.y.} g Q &X<X>X>X>X>X>X>XQ.T.T.T.T.T.T././.",
"/./.T.T.T.R.R.H.A.zXvXfXvXfXpX'._ g } r.u.i.r.y 3.k.i.0.t.t.3.k } a.v.s.s.l.s.} a y.s.u.| g R < 3 ; - ; ; ; 4 G.T.Y.T.T.T.~.~./.",
"/./.T.T.T.R.R.F.A.zXvXzXfXfXsX=X_ m | u.e.p.7.y 3.k.t.2.a.k.3.m } v.l.l.v.l.u.} a u.s.s.| g r ! 4 4 4 4 4 4 Z.G.T.Y.T.T.T.Y././.",
"/./.T.T.T.R.U.E.[.=XdXnXnXxXdX$X_ V q.i.p.e.7.a 3.z.t.B i.h.*.g } a.v.v.z.l.s.} f a.s.u.r.v R ` ,X=X&X%X&X%X%XQ.T.T.T.T.T.~.~./.",
"/./.T.R.T.R.U. XzXA.yXzXzXvXfX$X! V q.e.p.p.7.a 3.z.0.B i.j.6.k 3.a.z.z.l.s.s.} a y.s.u.| v r 4XbX8X9X6X9XwXaX(.T.T.T.T.T.Y.~./.",
"/./.R.W.^.U.U.Z.vXfXsX'.A.ZXaXA.= B e.i.j.j.q.a 3.z.7.2.e.j.6.N 3.a.z.z.s.s.s.} a a.s.u.r.v r 4XnX9X8X8X9XgXaX).T.T.T.T.~.Y.~./.",
"/./.^.^.^.^.U.).vXxXfXsX<X=XpXA.= 3.i.j.j.e.q.s 3.j.i.i.e.e.-.M 6.l.z.j.s.s.u.} a a.s.s. .C r ' -X=X=X;X:X,X,XQ.T.T.T.T.T.~././.",
"/./.T.T.T.T.T..XvXfXxXxXsX;X<XA.! B i.j.j.e.0.g 3.z.e.e.e.e.w.N 6.a.z.j.j.s.p.} a a.s.u.9.C t % # # # - ; : : G.T.T.T.T.T.T.~./.",
"/./.T.T.T.T.T.oXvXfXkXxXfXiX;X4 ! 2.e.j.j.e.0.g 6.j.t.e.e.j.0.B 6.a.z.j.j.s.s.} p a.s.s.8.C t W 3 - , 3 4 4 : G.T.T.T.T.T.T.~./.",
"/.T.T.T.T.T.^..XxXaXkXfXfXsX$X3 = 3.i.j.j.i.-.z 6.k.i.e.e.e.7.B 6.k.v.j.p.s.u.{ a a.s.u.9.A y 1XzX8XaXfXyXyX:X(.T.T.T.T.T.~././.",
"/./.T.T.T.~.R.oXkXpXfXfXaXkX5X6 = B e.i.j.e.-.z 6.h.t.e.e.e.9.V 6.k.l.s.j.u.u.{ s y.p.u. .H y &XaXhXfXfXfXwX8X).T.T.T.T.T.Y.~./.",
"/./.T.T.T.T.T.oXxX9XgXkXpXpX6XA.= 2.w.e.j.w.*.z 6.j.i.i.e.e.9.C 6.a.a.a.u.u.u.{ i q.p.u.=.H t <.iXfXfXxXkXhX8X).T.T.T.T.T.~.~./.",
"/./.T.T.T.T.R.oXxX0X9XgX9X9X4XA.= B e.e.e.w.-.z 6.z.i.k.i.k.x.[ 3.a.s.a.u.u.y.] a q.u.9.T H t <.yXfXfXlXkXhXwX).W.T.T.T.T.Y.~./.",
"/./.T.T.T.T.T.oXkX6X6X9X6X9X6X6 ! B w.e.w.w.*.z 6.j.t.x.v.mX1.` ) x.x.a.t.a.y.{ a q.i.q.8.S d _ ,XkXxXfXfXhX9XXX(.T.T.T.Y.~.~./.",
"/././.T.T.T.T.oXfX6X6X6X6X6X6X6 ! 2.-.-.9.9.*.z 5.j.v.FXSXuXA.A.6 >Xx.a.t.k.a.3.k i.a.k.q.5.k ` ;XxXxXfXlXjXwX|.!.T.T.T.T.~././.",
"^.~.T.T.~.Y.Y..XsX6X3X3X8X1X1X,.` B -.-.-.-.-.s 5.V.VXjX< * &.d.m.m.b.d.&.c.n.M.M.M.M.n.h.n.d.1.%XxXxXlXkXhXwXtX).J.T.T.T.~.~.^.",
"^.~.T.T.T.Y.Y..XyX0X0X0X3X8X1Xo.E B =.-.-.-.*.z *.V.VXC.>.;.>.b.c.d.d.d.:.b.M.M.M.M.M.M.n.b.b.1.,.BXxXfXlXjXqX7X).~.T.T.T.T.~./.",
"/.~.T.T.T.~.J._.[.<.,.,.,.,.o.2 ! V =.-.-.-.*.z 6.V.VXC.M.b.n.M.d.&.&.&.>.c.b.M.M.M.n.n.b.g.g.>.*XxXfXfXlXjXeXyX.XT.T.T.~.~.~.^.",
"/.~.T.T.T.J.P.}.o.5 < > > * * - ! B -.-.-.-.*.z h.VXVXC.N.N.N.N.g.&.h & 5 >.g.b.n.n.n.b.g.h.h.>.<.xXlXxXBXhXqX8X}.Y.T.T.T.~.~./.",
"/./.~.Y.T.P.K.#XBX<X3X3X3X3X<., & B =.=.=.*.*.z f.V.N.N.N.M.n.M.N.c.d.( X :.g.g.g.g.g.g.g.h.g.1.*XxXxXxXhXjXqX8X.XT.T.T.T.T.~.^.",
"/./.~.Y.T.I.{.#XBX8X0X0X0X0X3X5 = B =.=.=.*.P s f.M.M.M.&.O O C.B.B.d.;.h E E E E E E E E E E & ,.lXhXlXhXjXeX8X.XT.T.T.T.~.~./.",
"^.~.Y.Y.T.P.#.#XbX8X0X0X0X0X>X5 W C T *.*.*.U m f.M.n.n.&.. O C.N.B.c.E r j j d w / / / k k f R ,.bXeXhXhXjXqX8X}.Y.T.T.~.~.~.^.",
"/.~.Y.R.~.(.{.#XhX0X0X0X0X0X*X5 & M I T *.*.P ;.d.b.g.g.O . O C.N.M.c.( t C P x w P 8.P U J x R 2 bXjXjXhXeXmXhXXXY.T.T.~.~.~./.",
"/.^.Y.Y.T.L.I.|.hX0X0X0X0X6X*X4 W N I U T U P ;.4.d.g.d..   O C.M.c.>.) v *.8.M 8 | 8.8. .K Z R ' bXjXjXjXeXMXwXXXT.T.T.T.Y././.",
"/./.T.T.T.~.~.}.aX5X<X>X8X>X&X1 W M U U U U P a d :.g.&.. . & N.M.d.( j C =.*.m 8 U 8. . .Y C R _ bXjXjXjXeXMXwX_.Y.T.T.T.T././.",
"/./.~.T.~.T.~.H.%X6 2 5 2 5 > # & B I U U U H s p k d.f.>.>.m.M.g.>.^ g U 8.=.M 9 P T T Y J Z e _ bXjXjXjXeXMXqXXXT.T.T.T.Y.~./.",
"/./.~.~.T.Y.~.H.'.1 1 2 < 2 < # o B I U I I S s x N &.d.b.m.b.:.>.( j M 8.8.8.M 9 I T I J J Z r _ vXeXeXeXeXMXqXXXT.T.T.T.~././.",
"/./.T.T.T.T.T.H.'.$X,.,.<.&X,., & M P L I P H s A S f ;.4.:.;.j Q r g P 8. . .v 9 P I H H J Z e _ kXwXeXqXqXMXMX`.T.T.T.T.T.~./.",
"/.~.T.T.T.T.T.OXSXwX6X6X0X0X$X3 W M L P P L H u S T A f r r w w t s A 8. . .U x 9 H H H H J Z r _ kXwXqXqXqXMXqXXXT.T.T.T.~.~./.",
"/./.~.T.T.T.T.OXnX9X5X0X0X6X,.3 W M L H H L A u S -.Y S M s u t l A  . .U Y I x 8 F H H H H F r _ hX0X0XqXqXqXqXXXT.T.T.T.~.~./.",
"/./.T.T.T.T.~.oXlX6X6X3X3X6X,., W M H L H L Z s H -.T L H n z s S Y U I U I L x 8 Z H F F G F r ! 5X6X0X0XwX0XqXXXT.T.T.T.~././.",
"/./.T.T.T.T.(.oXjX6X6X6X2X6X$X3 W v G G G ] n i A  .Y Y L L b s 5. .I L L L H l 8 Z H H n D n r & $X&X,.&X&X<.*X_.~.T.T.T.~.~./.",
"/./.T.T.T.T.(.XX9X6X6X6X6X2X$X1 Q v G Z G G n i A  .Y K L L n u | T L P P J H l 8 Z n n D D n y $ > > > > > , 6 H.~.T.T.T.T.~./.",
"/.~.T.T.T.T.(.oX0X6X6X6X6X6X$X1 W v D D F Z c u A T Y L L L n u | Y L J H H H l 8 n F n n D n y o @ > 1 5 6 o.&X_.T.T.T.T.~.~./.",
"/.~.~.T.~.~.H.[.6X6X6X6X6X6X$X5 W l D D Z Z x i A Y L L L L n u | Y L H H G Z l 8 n D D n D H w Q <X;X:X,X>X<X2X_.~.T.T.T.~.~./.",
"/./.~.T.T.T.H.[.6X6X6X6X1X6X&X2 W l D D D n c u A Y L K L K b u U Y J H G G n s 8 n n n D n D w ` ZXsXpX5XgXwX0X`.T.T.T.T.T.~./.",
"/./.T.T.T.T.H.[.2X6X1X2X2X2X&X5 Q l n D n n x u A Y L J L K c u P P J H D G D l 8 n n n n D n w _ SXgXgXwXqX0X0X`.W.T.T.T.T././.",
"/./.T.T.T.T.H.[.2X2X6X2X2X2X1X6 W l c Z n c l i A Y K K K K n u | I G F D D D l 8 b n n n D F q W kXjXMXwXqX0X0XXX(.T.T.~.Y.R./.",
"/./.T.T.T.T._.[.1X1X1X1X1X1X1X' ! l c c c c l i A I K K K K n u | I G F D D n s 8 b n n n D n q % 1X6X0X4X0X0X4X`.Q.T.T.Y.R.~.^.",
"/.~.~.T.~.~.H.].1X2X1X1X1X1X1X' Q l D n n c l i F K K K G K c i I J G D D D F l 8 c n n D n b q & <.3X0X0X4X0X6X|.Q.T.Y.T.L.P.P.",
"/.~.T.T.D.~.G.`.1X1X1X1X1X1X1X2 R l D n n c l i Z  .G G G G c i H J G G F D n l 8 c n n D D v q $ ,.,.<.<.1X<.&X`.Q.~.R.~.P.K.{.",
"/.~.T.T.~.~.(.`.*X1X1X1X*X1X*X< R l Z Z v v i a C C C C F Z v y C A A ] C C C f w C b M b C g q O , , 2 2 ' _ 2 Z.E.D.Y.J.I.{.$.",
"/.~.~.T.~.~.~.H.$XA.A.$X,.,.A.< W ^ / v / / ^ ^ ^ ^ ^ ^ ^ ^ ~ ) ) ^ ^ ^ ^ ^ ~ ~ ` ~ ~ ~ ~ ~ ~ Q < 2 2 2 < < 1 2 , F.T.R.L.K.$.@.",
"/./.~.~.~.~.(.@XSXSXSXDXDXDXDXDXDXFXFXFXCXFXFXCXCXCXCXCXCXNXbXbXbXkXkXpXpXiX5XpXpXpX9X9XpX5X9XpXpXiXiXiX5X<X,X:X:X`.Y.Y.L.K.$.@.",
"/.^.~.Y.~.J.).@XGXGXGXGXGXGXGXHXHXJXJXJXJXJXHXHXHXHXGXGXGXDXDXSXZXZXvXzXsXdXzXsXsXdXdXdXfXxXxXvXxXvXxXkXaXaXsX5X5X`.T.^.L.{.$.@.",
"/./.~.R.^.P.oXtXzXfXzXfXzXvXvXnXvXnXbXnXbXnXvXnXvXvXzXfXfXsXsXsX<X,X:X;X%X%X%X=X%X%X%X:X;X%X:X:X:X:X:X:X:X:X:X%X:X`.~.^.L.K.$.@.",
"/././.^.^.I.}.'.> > > > > > 1 3 1 1 5 5 5 5 1 < A.1 1 3 > > > > > > > > > > > > # > # # # # # # # > # > > > > _ $X`.^.^.(.{.$.@."
};
