/* XPM */
static char *result[] = {
/* columns rows colors chars-per-pixel */
"64 64 225 2 ",
"   c #010202",
".  c #070905",
"X  c #020E0E",
"o  c #090A0A",
"O  c #181505",
"+  c #031516",
"@  c #071814",
"#  c #061916",
"$  c #041A1B",
"%  c #131313",
"&  c #171B1A",
"*  c #1B1B1B",
"=  c #281F00",
"-  c #2F2D0E",
";  c #3A350A",
":  c #051E2F",
">  c #062426",
",  c #0A292A",
"<  c #1B2625",
"1  c #123629",
"2  c #062E33",
"3  c #063237",
"4  c #083233",
"5  c #0A3B3D",
"6  c #242524",
"7  c #2B2C2C",
"8  c #3C3624",
"9  c #333333",
"0  c #343D3D",
"q  c #3B3C3B",
"w  c #752A29",
"e  c #22411C",
"r  c #184534",
"t  c #2E5634",
"y  c #474919",
"u  c #6F5601",
"i  c #77650D",
"p  c #56682A",
"a  c #0A3E40",
"s  c #0B4245",
"d  c #0A474A",
"f  c #1D564B",
"g  c #0B4E51",
"h  c #074859",
"j  c #0D565B",
"k  c #354B48",
"l  c #294D50",
"z  c #395858",
"x  c #31754A",
"c  c #256557",
"v  c #0E5D62",
"b  c #365D60",
"n  c #0E6166",
"m  c #136569",
"M  c #0E6D75",
"N  c #116D73",
"B  c #187A77",
"V  c #10747B",
"C  c #13797E",
"Z  c #3D6365",
"A  c #237661",
"S  c #227E6D",
"D  c #454545",
"F  c #454949",
"G  c #4B4B4B",
"H  c #514F4F",
"J  c #4D5757",
"K  c #545454",
"L  c #5D5D5D",
"P  c #774544",
"I  c #685A5A",
"U  c #4E6D56",
"Y  c #607158",
"T  c #556D6C",
"R  c #586B6D",
"E  c #5F7272",
"W  c #656565",
"Q  c #6C6C6C",
"!  c #6B706F",
"~  c #737474",
"^  c #717B7B",
"/  c #7B7B7B",
"(  c #862C2A",
")  c #952D2A",
"_  c #B12C29",
"`  c #DB312D",
"'  c #E7332E",
"]  c #E53632",
"[  c #E33935",
"{  c #E53E3A",
"}  c #A57E02",
"|  c #D8423E",
" . c #E6423C",
".. c #EE6528",
"X. c #91514F",
"o. c #B65755",
"O. c #807F7F",
"+. c #BE6C6A",
"@. c #BC7573",
"#. c #D44945",
"$. c #CC5C59",
"%. c #D25350",
"&. c #E94444",
"*. c #EA4D53",
"=. c #C9615E",
"-. c #ED5D69",
";. c #C56A67",
":. c #CE6E6E",
">. c #ED6767",
",. c #EE697A",
"<. c #4F973D",
"1. c #1D857B",
"2. c #288C75",
"3. c #3BA475",
"4. c #429654",
"5. c #5AB655",
"6. c #61BF51",
"7. c #7E807F",
"8. c #47B473",
"9. c #71D24F",
"0. c #6ED85D",
"q. c #7DE04C",
"w. c #7AE459",
"e. c #5DCD6F",
"r. c #4DC17D",
"t. c #56C776",
"y. c #67D466",
"u. c #70DC61",
"i. c #A59318",
"p. c #A19722",
"a. c #D0B117",
"s. c #E9B508",
"d. c #FFC604",
"f. c #FECF1F",
"g. c #FFD519",
"h. c #DACB2E",
"j. c #E3D231",
"k. c #FAE22C",
"l. c #FCEB38",
"z. c #99935F",
"x. c #AC8B71",
"c. c #F59F66",
"v. c #80E852",
"b. c #FEE841",
"n. c #137D83",
"m. c #0158AD",
"M. c #0365AB",
"N. c #0A7DA9",
"B. c #EF7082",
"V. c #158389",
"C. c #1C948F",
"Z. c #138E95",
"A. c #179399",
"S. c #189398",
"D. c #219A93",
"F. c #2CA48E",
"G. c #3CB58A",
"H. c #38B28C",
"J. c #2DAB96",
"K. c #23A49D",
"L. c #2AAA99",
"P. c #28A89B",
"I. c #32AF93",
"U. c #34B191",
"Y. c #0E89A5",
"T. c #118FA6",
"R. c #1395A7",
"E. c #169DA6",
"W. c #199EA5",
"Q. c #149DA8",
"!. c #1BA0A5",
"~. c #16A1AC",
"^. c #19A2AA",
"/. c #1BA8AF",
"(. c #1BAAB1",
"). c #7B8E95",
"_. c #44BB83",
"`. c #45BB84",
"'. c #838383",
"]. c #848B8B",
"[. c #8B8C8C",
"{. c #8D9393",
"}. c #939494",
"|. c #94989A",
" X c #9C9C9C",
".X c #AD8786",
"XX c #A09292",
"oX c #A29C9C",
"OX c #A6A49B",
"+X c #9A9FA1",
"@X c #A99FA2",
"#X c #B59DA5",
"$X c #9FA0A0",
"%X c #A1A1A1",
"&X c #A4A8A8",
"*X c #ABABAB",
"=X c #B0AFB0",
"-X c #B3B3B3",
";X c #BDBDBD",
":X c #F1898F",
">X c #F3A19F",
",X c #CD98AA",
"<X c #D596AC",
"1X c #ED8FAD",
"2X c #F491B3",
"3X c #C6AFAD",
"4X c #F3B1AE",
"5X c #FFF18A",
"6X c #FFE69C",
"7X c #E9E4B0",
"8X c #FFF6B0",
"9X c #F7BBCD",
"0X c #C3C3C3",
"qX c #CBCBCB",
"wX c #D0CFCF",
"eX c #D3D4D4",
"rX c #DBDBDB",
"tX c #F8C6C1",
"yX c #E3E2E3",
"uX c #ECECEC",
"iX c #F7E8E7",
"pX c #FCE9E8",
"aX c #F4F4F4",
"sX c #FAF6F6",
"dX c #FFFFFF",
/* pixels */
"9.6.3.S.Z.2.3.6.9.9.8.3.Z.Z.Z.Z.Z.Z.Z.Z.Z.Z.Z.Z.Z.Z.Z.Z.Z.Z.Z.Z.Z.Z.Z.Z.Z.Z.Z.Z.Z.Z.Z.Z.Z.Z.Z.Z.Z.Z.Z.Z.Z.Z.Z.Z.Z.Z.Z.Z.Z.Z.Z.Z.",
"v.y._.K.!.L.r.u.q.0.e.U.!.Q.~.~.E.^.^.E.E.^.!.~.~.!.!.~.W.^.!.Q.^.~.!.~.~.!.!.~.^.E.^.E.E.^.^.W.Q.^.^.W.~.!.!.~.~.!.!.~.~.~.^./.",
"y.t.H.K.~.L.G.e.y.y.r.I.!.Q.!.~.^.E.^.E.^.!.!.!.~.!.~.!.^.E.^.^.!.!.~.!.~.!.~.~.E.^.^.W.^.^.W.^.~.!.!.~.!.~.!.!.!.!.~.!.!.~.^./.",
"_.H.J.!.W.K.J.G.3._.U./.!.!.W.E.W.W.W.W.W.W.E.E.W.W.!.Q.W.W.W.W.E.W.W.W.W.W.W.W.W.W.W.W.W.W.W.W.W.W.W.W.E.E.E.W.E.E.!.W.Q.!.!.^.",
"L.L.K.W.E.W.K.P.J.P.P.W.!.E.!.E.W.W.W.W.W.W.W.A.S.S.S.W.A.A.S.S.S.^.W.R.S.S.S.W.W.W.W.W.W.W.W.W.W.W.W.W.W.W.W.W.W.W.W.W.!.W.!.^.",
"^.^.W.W.W.W.Q.W.E.E.E.E.E.!.E.!.W.W.W.W.W.W.n.2 $ $ 4 !.S.$ $ $ > A.V > + $ + n.W.W.W.W.W.W.W.W.W.W.W.W.W.W.W.W.W.W.W.W.W.W.!.^.",
"/.~.E.W.W.W.E.Q.E.E.Q.!.!.~.!.E.W.W.W.W.W.W.C $ . y y B n     G H N c y - .   C W.W.W.W.W.W.W.W.W.W.W.W.W.W.W.W.W.W.W.W.E.!.~.^.",
"~.^.W.W.W.W.W.W.E.E.E.!.!.A.E.!.W.W.W.W.W.W.C $ ; h.p.> @   o rXeX$ e a.i.O   C W.W.W.W.W.W.W.W.W.W.W.W.W.W.W.W.W.W.W.W.E.E.!.^.",
"~.!.W.W.!.^.W.W.E.E.W.W.W.W.W.W.W.W.W.E.E.Q.n.$ ; l.h.u i p i dXsX~ z.l.i.O   C W.W.W.W.W.W.W.W.W.W.W.W.W.W.W.W.W.W.W.W.W.W.W.^.",
"^.!.W.W.!.A.W.W.W.W.W.W.W.W.W.W.W.W.W.W.E.E.C $ ; k.k.s.s.j.j.dXdXyX7Xb.i.O   C W.W.W.W.W.W.W.W.W.W.W.W.W.W.W.W.W.W.W.W.W.W.^.^.",
"^.!.W.W.E.!.W.W.W.W.W.W.W.W.W.W.W.W.!.!.K.K.B $ ; g.s.u i g.g.5X5X:Xc.f.i.O   C W.W.W.W.W.W.W.W.W.W.W.W.W.W.W.W.W.W.W.W.W.W.W.^.",
"^.~.W.W.W.W.W.W.W.W.W.W.W.W.W.W.W.^.K.L.I.I.2.@ ; d.s.. = d.d.l.l. ...s.} O   C W.W.W.W.W.W.W.W.W.W.W.W.W.W.W.W.W.W.W.W.W.W.^.^.",
"^.^.W.W.W.W.W.W.E.E.!.!.E.E.W.W.W.W.D.A r r 1 . 8 6X6X}.OX6X6X8X8X4X4X6Xz.*   2 5 a n Z.W.W.W.W.W.W.E.E.E.W.W.W.W.W.W.W.W.W.W.^.",
"^.^.W.W.W.W.W.W.A.!.E.!.E.W.E.W.W.W.D.r         q dXdXdXdXdXdXdXdXdXdXdXOX*         5 Z.W.W.W.W.W.W.E.W.E.W.W.W.W.W.W.W.W.W.^.^.",
"^.^.W.W.W.W.!.E.~.!.!.E.!.!.C.n h g f U / / / / |.dXdXdXdXdXdXdXdXdXdXdXeX[.7./ / / T f g g n.W.!.!.A.!.W.W.W.W.W.W.W.W.W.W.W.^.",
"^.W.W.W.W.E.E.!.!.!.K.K.J.J.1.4   X & 7.aXaXaXaXaXdXdXdXdXdXdXdXdXdXdXdXsXaXaXaXaXaX}.6 .   j W.!.K.L.J.L.K.W.W.W.W.W.W.W.^.!.^.",
"^.!.W.W.W.W.W.W.W.K.J.G.8.A c R / / '.;XdXdXdXdXdXdXdXdXdXdXdXdXdXdXdXdXdXdXdXdXdXdXqX[./ ~ Z j 1.H._.r.`.I.!.W.W.W.W.W.W.W.W.^.",
"^.!.W.W.W.W.W.E.W.K.H.t.5.e 9 =XsXsXsXdXdXdXdXdXdXdXdXdXdXdXdXdXdXdXdXdXdXdXdXdXdXdXdXsXsXsX~   t r.0.0.e.`.P.W.E.E.W.W.W.W.^.^.",
"^.W.W.W.W.W.W.Q.!.L.G.4.p Y ].eXdXdXdXdXdXdXdXdXdXdXdXdXdXdXdXdXdXdXdXdXdXdXdXdXdXdXdXdXdXdX*XQ U x <.q.0.8.K.!.E.E.W.W.W.W.^.^.",
"^.^.W.W.W.W.E.R.R.D.H.r 7 -XdXdXdXdXdXdXdXdXdXdXdXdXdXdXdXdXdXdXdXdXdXdXdXdXdXdXdXdXdXdXdXdXdXdXz.  t w.y._.K.!.E.E.W.W.W.W.^.^.",
"~.!.W.W.W.R.T.N.N.n.c k L 0XdXdXdXdXdXdXdXdXdXdXdXdXdXdXdXdXdXdXdXdXdXdXdXdXdXdXdXdXdXdXdXdXdXdX=XL U <.4.J.P.!.W.W.W.W.W.W.W.^.",
"^.!.!.W.W.T.N.M.m.:   W *XyXdXdXdXdXdXdXdXdXdXdXdXdXdXdXdXdXdXdXdXdXdXdXdXdXdXdXdXdXdXdXdXdXdXdXdXdX|.  4 K.A.W.W.W.W.W.W.W.!.^.",
"^.^.W.!.^.Y.N.M.M.:   W =XyXdXdXdXdXdXdXdXdXdXdXdXdXdXdXdXdXdXdXdXdXdXdXdXdXdXdXdXdXdXdXdXdXdXdXdXdX{.  5 W.W.W.W.W.W.W.W.W.W.^.",
"^.!.W.!.W.E.R.Y.N.2 . Q =XyXdXdXdXdXdXdXdXdXdXdXdXdXdXdXdXsXsXdXsXdXdXdXdXdXdXdXsXsXsXdXdXdXdXdXaXaX}.. 5 W.W.W.W.W.W.W.W.W.^.^.",
"^.^.W.W.W.W.E.C M l 7 ~ =XyXdXdXdXdXdXdXdXdXdXdXdXdXdXdXsX-X-XeXrXyXuXdXdXdXdX0X-X-X0XrXaXdXdXdXrX=X[.G z M n.W.W.W.W.W.W.W.W.^.",
"^.^.W.W.W.W.W.>   Q  XoX*XyXdXdXdXdXdXdXdXdXdXdXdXdXdXdXyX  o ! ~ |.-XuXsXaXsXq .   q '.0XuXsXsX'.o ! dX&X. 5 W.W.W.W.W.W.W.^.^.",
"^.!.W.W.W.W.^.>   Q $X%X=XyXdXdXdXdXdXdXdXdXdXdXdXdXdXdXuX9 9 H K Q / &X*X*X*XH 9 9 D W [.&X*X*XO.H |.dX&X  3 W.W.W.W.W.W.W.W.^.",
"^.W.W.W.W.W.W.>   Q  X%X=XyXdXdXdXdXdXdXdXdXdXdXdXdXdXdXaX$X X.               / $XoXW *         / dXdXdX&X. 5 W.W.W.W.W.W.W.^.^.",
"^.!.W.W.W.W.W.>   Q $X$X=XyXdXdXdXdXdXdXdXdXdXdXdXdXdXdXsX-X*X* & * % % % % % [.-X-X~ 7 % % * 7 }.dXdXdX&X. 5 W.W.W.W.W.W.W.W.^.",
"^.!.W.W.W.W.E., . ! $X$X=XyXdXdXdXdXdXdXdXdXdXdXdXdXdXdXdXdXsX%X@X%X}./ / / / rXdXdXqX{.~ / 0XdXdXdXdXdX&Xo 5 W.W.W.W.W.W.W.^.^.",
"^.W.W.W.W.V m J K {.$X$X=XyXdXdXdXdXdXdXdXdXdXdXdXdXdXdXdXdXdX0X;X0X*X/ [.%X%XuXdXdXrX=X[./ 0XdXdXdXdXdX0XJ J N V.W.W.W.W.W.W.^.",
"^.^.W.W.W.$   0XdX3X$X$X=XyXdXdXdXdXdXdXdXdXdXdXdXdXdXdXdXdXdXdXdXdXrX'.&XuXdXdXdXdXdXdX;X'.0XdXdXdXdXdXdXsX$XX g W.W.W.W.W.^.^.",
"^.W.W.W.W.$   0XdX;X%X%X*X;XeXaXdXdXdXdXdXdXdXdXdXdXdXdXdXdXdXdXdXdXrXO.[.*X-XuXdXdXyX;X|./ 0XdXdXdXdXdXdXsX$XX g E.W.W.W.W.^.^.",
"^.^.W.W.W.$   0XdX;X%X%X%X%X-XyXdXdXdXdXdXdXdXdXdXdXdXdXdXdXdXdXdXdXrX'./ ~ / yXdXdXqX[.~ / 0XdXdXdXdXdXdXsX$X+ g W.W.W.W.W.^.^.",
"^.^.W.E.W.$   0XdX;X%X%X$X%X-XyXdXdXdXdXdXdXdXdXdXdXdXdXdXdXdXdXdXdX;X7 6 * * qXdXdX&Xq * *  XdXdXdXdXdXdXsX%XX g W.W.W.W.W.W.^.",
"^.W.W.E.W.$   0XdX;X%X%X%X X-XyXdXdXdXdXdXdXdXdXdXdXdXdXdXdXdXdXdXdX-X&       0XdXdX@X7     [.dXdXdXdXdXdXsX%XX g W.W.W.W.W.^.^.",
"^.!.E.E.^.$   0XdX;X%X%X$X$X%X-X;XrXdXdXdXdXdXdXdXdXdXdXuXq D dXdXdXuX0X;X0X;XuXdXdXyXqX;X;XyXdXdXdXdXdXdXsX%XX g W.W.W.W.W.W.^.",
"^.^.E.Q.!.$   0XdX;X%X%X$X$X%X%X%XqXdXdXdXdXdXdXdXdXdXdXyX  % dXdXdXdXsXsXsXsXdXdXdXdXsXdXsXsXdXdXdXdXdXdXsX%X+ g W.W.W.W.W.^.^.",
"^.!.E.Q.W.$   0XdX;X%XK D *XrX;X%X*X;XrXdXdXdXdXdXdXdXdXiX_ _ q q q ~ aXdXdXdXdXdXdXdXdXdXdX}.t X.>.>XdXyX-X~ X g W.W.W.W.W.W.^.",
"^.^.E.Q.W.$   0XdX;X%X9 7 *XuX;X%X X*XeXdXdXdXdXdXdXdXdXpX] ` .     G uXdXdXdXdXdXdXdXdXdXdX~   w ' :XdXrX XW X g W.W.W.W.W.^.^.",
"^.^.W.Q.W.$   9 D 9 7 '.0XuXsXuXyXuXyXwX;X;X0XaXdXdXdXdXpX' [ R E ^ W D D D D D D D D D D D L ~ o.' :.;X'.9 L *XE 4 n E.E.W.W.^.",
"^.W.W.W.W.$           &XdXdXdXdXdXdXaXqX X$X;XuXdXdXdXdXpX' [ ).).$X~ o                     K $X+.' $.$XW o I yX/ X g W.W.W.^.^.",
"s a a a 5 v n +   Q  XrXdXdXdXdXdXdXsXqX%X$X&X;X0X0XqXdXpX' [ |.+XeX3X) P I W ( ( I P ( P I $XrX3X@..X$XW o D 0X=X|.T a d W.^.^.",
".         n.E.>   *XsXdXdXdXdXdXdXdXsXqX%X%X%X%X&X%X-XdXpX' ] oX$XsXtX[ o.XX|.#.| x.@.| +.}.eXdXwX X@X$XW . q &XqXyX'.  @ W.W.^.",
"  Q }. X Xl a ). XrXdXdXdXdXdXdXdXdXsXqX$X%X%X X%X X&X0X0X@.@.$.;.dXtX{  .$.$.{ [ %.#.[ #.$.4XaXwX X$X$XQ . q &X-X0X=X X{.s v ^.",
"  -XsXdXdX7   ;XdXdXdXdXdXdXdXsXsXsXuXqX%X$X%X%X%X%X%X%X%X%XoX' { sXtX&.] ] ' ' ] ` ' ' ' ' >XdXwX@X X XW o q  X@X&XqXdXyX  4 ^.",
"  [.0XqXqX6   0XdXdXdXdXdXdXyX X! Q ~ '. X%X%X%X%X%X%X%X%X%XoX' ] 9X4XB.,.,.,.&.' ' ' ' ' ' B.qX-X$X/ D G L ~ $X$X%XwXdXyX  4 ^.",
"X W }.%X&X6 o -XuXaXuXuXuXuX;XG o o & K %X%X$X%X X%X%X%X%X XoX{  .2X2X2X2X2X2X*.] ] ' ' ] [ @.$X%X$XL   9 }.|.}.}.$X;XaXeXX a ^.",
"j k F 0XeXQ K Q ~ ~ ~ ! ~ ~ Q L K K R / %X%X%X$X%X%X X%X%X XoX@.:.2X2X2X2X2X2XB.-.&.' ' %.;..X%X%X%XL   * D D D G G L ~ ! j N ^.",
"^.2 . yXdX*X%X6             6 ! $X$XoXoX X%X%X$X$X%X%X%X%X%X%X%X%X2X2X2X2X2X2X2XB.&.' ] ;.oX%X$X%X$XL                   X W.^.^.",
"^.n d ].}.W L F D D D & % G O.*XqX0X0X=X%X%X%X$X%X%X%X%X%X%X%X%X%X,X<X2X2X2X2X2X1X:.$.=.x.@X%X%X/ L k s s s s a s s s s g W.E.^.",
"^.E.W.+       /  XoX Xq 6 =XdXdXdXdXsXqX%X%XoX$X%X%X%X X X%X%X%X%X$X#X1X2X2X2X2X2X#X$X$X+X@X$X XK   d E.W.W.W.W.W.W.W.W.W.W.^.^.",
"^.W.W.d 5 5 5 L W W W 6 * ~ -XyXdXdXsXyX0X;X;X&X%X XoX%X$X%X X%X%X$X#X,X<X<X<X<X,X&X+X@X%XoX7.W k a n W.W.W.W.W.W.W.W.W.W.W.W.^.",
"^.^.W.W.W.W.W.2 X X X o X X 0 &XuXyXuXaXdXdXuX;X*X*X&X%X%X$X%X%X$X%X$X$X%X%X%X%X$X$X|.|.{.}.F X h Y.W.W.W.W.W.W.W.W.W.W.W.W.^.^.",
"^.!.W.W.W.W.W.v g g g g g g c E '.'.[.0XdXdXsXeXqXqXqX X%X%X%X%X$X%X@X+X%X X%X X%X X'.L K H l h n.W.W.W.W.W.W.W.W.W.W.W.W.W.E.^.",
"^.^.W.W.W.W.W.W.W.W.W.W.W.W.n.a + + < ^ rXrXrXrXyXdXaX*X*X*X*X*X*X*X*X*X%X[.[.[.[.].L 6 % @ n W.R.R.W.W.W.W.W.W.W.W.W.W.W.W.Q./.",
"^.E.W.W.W.W.W.W.W.W.W.W.W.W.Z.V v m v b I L L L '.dXdXrXrXrXrXrXrXrXrXrX@XG q q q q t x x c n.W.W.W.W.W.W.W.W.W.W.W.W.E.W.!.K.L.",
"^.W.W.W.W.W.W.W.W.W.W.W.W.W.W.W.W.W.S.j + + + + k rXrXrXrXrXrXrXrXrXrXrX}.< + + # # f 3.`.F.W.W.W.W.W.W.W.W.W.W.W.W.E.Q.W.J.G._.",
"^.^.W.W.W.W.Q.W.R.W.E.W.W.W.W.W.W.W.R.Z.V V V V m q q q q q q q q q t q z S S S S S 2.F.P.K.W.W.W.W.W.W.W.W.W.W.W.W.E.Q.!.H.r.e.",
"^.W.W.W.W.E.Q.Q.Q.Q.Q.E.W.W.W.W.W.!.!.W.W.W.W.W.n.+ + + + + + # + + + + s C.!.W.K.!.!.!.W.W.W.W.W.W.W.W.W.W.W.W.W.W.E.Q.!.G.e.u.",
"/.W.W.W.E.!.!.P.K.K.K.W.W.W.W.W.W.W.W.W.W.W.W.W.W.W.W.W.W.W.W.W.W.W.W.W.E.R.Q.Q.Q.Q.Q.Q.E.W.W.W.W.W.W.W.W.W.W.W.W.W.Q.Q.K.G.e.w.",
"^.!.W.W.E.K.L.H.G.H.I.P.W.W.W.W.W.W.W.W.W.W.W.W.W.W.W.W.W.W.W.W.W.W.W.W.W.E.W.Q.E.W.Q.W.E.W.W.W.W.W.W.W.W.W.W.W.W.W.E.Q.W.`.e.w.",
"/.^.W.Q.^.L.G.r.e.r.`.L.^.Q.W.W.W.W.W.W.^.W.W.W.W.W.W.W.W.^.W.W.W.W.^.^.W.^.E.E.^.W.^.W.W.W.W.W.W.^.W.W.^.^.W.^.E.^.^.Q.!.G.e.w.",
"(.^.^./.(.J.`.y.w.u.t.U.^.^.^.^./.^.^./.^./.W./.^./.^.^.^.^././.^.^.^.^.^.^.^.^.^.^.^.^.^./.^./.^.^.^.^.^.^.^.^.^.^.^.^.^.G.e.w."
};
