/* XPM */
static char *result[] = {
/* columns rows colors chars-per-pixel */
"64 64 134 2 ",
"   c #3C8D7F",
".  c #3E957F",
"X  c #61BF56",
"o  c #4A9F75",
"O  c #42947C",
"+  c #439B7C",
"@  c #47AB6F",
"#  c #54AD6D",
"$  c #52B563",
"%  c #5DB767",
"&  c #5DBB65",
"*  c #56B36C",
"=  c #59B36A",
"-  c #5BBE6C",
";  c #4DA372",
":  c #41A876",
">  c #4FAF75",
",  c #50A971",
"<  c #48B77F",
"1  c #4CBA7D",
"2  c #52BE76",
"3  c #50BD79",
"4  c #61BD63",
"5  c #6ECA49",
"6  c #72D14C",
"7  c #7BDF4F",
"8  c #66C350",
"9  c #67C65F",
"0  c #6CCD5B",
"q  c #6DD35C",
"w  c #73D656",
"e  c #75DA54",
"r  c #79DC51",
"t  c #71D659",
"y  c #72DC5D",
"u  c #7DE34E",
"i  c #78E058",
"p  c #5FC366",
"a  c #5CC66C",
"s  c #5EC96C",
"d  c #55C273",
"f  c #59C571",
"g  c #5ECD73",
"h  c #54C47A",
"j  c #63C162",
"k  c #65CD64",
"l  c #68CE60",
"z  c #61CA69",
"x  c #69D161",
"c  c #6ED962",
"v  c #66D46C",
"b  c #75E363",
"n  c #15579D",
"m  c #1B649C",
"M  c #1D6D9B",
"N  c #1D799E",
"B  c #2B758C",
"V  c #2D7A8C",
"C  c #317D89",
"Z  c #236495",
"A  c #246E92",
"S  c #237395",
"D  c #267B94",
"F  c #2B7D90",
"G  c #227B99",
"H  c #0D4DA5",
"J  c #0545AB",
"K  c #074AAB",
"L  c #0B4BAB",
"P  c #0E53A4",
"I  c #0C55AA",
"U  c #0E5CAA",
"Y  c #1457A2",
"T  c #1853A0",
"R  c #105CA5",
"E  c #115BA9",
"W  c #1363A5",
"Q  c #1C63A1",
"!  c #196BA1",
"~  c #1165A9",
"^  c #136CA8",
"/  c #1775A7",
"(  c #1974A3",
")  c #1779A6",
"_  c #197CA5",
"`  c #1573A8",
"'  c #1F8D96",
"]  c #2D848E",
"[  c #388583",
"{  c #3C8A80",
"}  c #32858A",
"|  c #2F9986",
" . c #2B978A",
".. c #3E9582",
"X. c #359E80",
"o. c #3B9D85",
"O. c #359A8C",
"+. c #22849D",
"@. c #298E99",
"#. c #229092",
"$. c #2C9095",
"%. c #2D9D97",
"&. c #24939D",
"*. c #279E9F",
"=. c #299F9E",
"-. c #3BA48A",
";. c #3BAD8C",
":. c #3EB18A",
">. c #2FA497",
",. c #2CA29B",
"<. c #32A696",
"1. c #36A992",
"2. c #38AB90",
"3. c #30A599",
"4. c #33AB9A",
"5. c #3AB195",
"6. c #1B84A5",
"7. c #1E8CA4",
"8. c #1F90A4",
"9. c #2194A3",
"0. c #249CA3",
"q. c #289EA0",
"w. c #239EAA",
"e. c #26A1A5",
"r. c #2EA9A0",
"t. c #25A1A9",
"y. c #42AD83",
"u. c #44B484",
"i. c #48B780",
"p. c #47B883",
"a. c #49BB82",
"s. c #41B389",
"d. c #44BA8B",
"f. c #4DC084",
/* pixels */
"6 & :  .' | @ X 5 8 $ . #.' ' ' ' ' ' #.' #.#.#.#.#.#.' ' ' #.#.#.&.#.#.#.#.#.&.' ' #.' ' #.' ' #.#.#.#.' ' ' #.#.#.#.#.#.#.#.&.",
"i s < >.0.<.1 l w q d ;.,.8.0.0.0.0.0.0.0.0.e.8.8.e.0.0.,.8.0.8.e.8.8.0.0.8.8.0.0.0.0.0.8.*.,.8.8.e.e.8.,.8.0.8.8.e.e.8.8.e.w.t.",
"v h :.,.e.3.u.f k s h 4.e.w.w.e.e.w.e.0.8.0.0.e.w.w.e.8.e.w.0.0.e.e.e.0.e.e.e.e.e.w.e.e.e.e.w.0.e.t.e.w.e.e.0.0.e.w.e.0.e.w.t.t.",
"f.d.1.e.w.,.1.u.a.p.;.,.0.0.0.0.0.0.0.0.e.e.0.0.0.e.e.t.0.0.0.0.0.0.w.0.w.0.0.e.0.0.0.8.0.0.0.e.0.e.8.e.w.0.0.0.t.e.0.0.0.0.e.t.",
"4.4.,.0.0.*.=.<.1.<.,.,.0.0.0.0.0.0.0.0.0.0.0.0.*.8.0.0.0.0.0.0.0.0.0.0.0.0.0.8.0.0.0.0.0.0.0.0.8.e.0.0.0.0.0.0.0.0.0.0.0.0.w.e.",
"t.e.0.0.0.0.0.0.8.0.0.0.0.0.0.0.0.0.0.0.0.0.0.0.e.e.0.0.0.0.0.0.0.0.0.0.0.0.0.e.0.0.0.0.0.0.0.0.0.e.0.0.0.0.0.0.0.0.0.0.0.0.w.e.",
"t.w.0.0.0.0.0.0.0.0.0.0.0.0.0.0.0.0.0.0.0.0.e.0.0.0.0.0.0.0.0.0.0.0.0.0.0.0.0.0.0.0.0.0.0.0.0.0.0.0.0.0.0.0.0.0.0.0.0.0.0.0.0.t.",
"t.w.0.0.0.0.0.0.0.0.0.0.0.0.0.0.0.0.0.0.0.0.8.0.0.0.0.0.0.0.0.0.0.0.0.0.0.0.0.0.0.0.&.0.0.0.0.0.0.0.0.0.0.0.0.0.8.0.0.0.0.0.e.t.",
"e.e.0.0.0.0.0.0.0.0.0.0.0.0.0.0.0.0.0.0.0.0.0.0.0.0.0.0.0.0.0.0.0.0.0.0.0.0.0.0.0.0.0.0.0.0.0.0.0.0.0.0.0.0.0.0.e.0.0.0.0.0.0.t.",
"e.0.0.0.0.0.0.0.0.0.0.0.0.0.0.0.0.0.0.0.0.0.0.8.0.0.0.0.0.0.0.0.0.0.0.0.0.0.0.0.0.0.0.0.0.0.0.0.0.0.0.0.0.0.0.0.0.0.0.0.0.0.e.t.",
"e.w.0.0.0.0.0.0.0.0.0.0.8.0.0.0.0.0.0.,.,.,.,.,.*.0.0.0.0.0.0.0.0.0.0.0.0.0.0.0.0.0.0.0.0.0.0.0.0.0.0.0.0.0.0.0.0.0.0.0.0.0.0.t.",
"e.e.0.0.0.0.0.0.0.0.0.0.e.0.0.0.e.8.,.>.;.;.2.>.*.*.0.0.0.0.0.0.0.0.0.0.0.0.0.0.0.0.0.0.0.0.0.0.0.0.0.0.0.0.0.0.0.0.0.0.0.0.e.t.",
"t.0.0.0.0.0.0.0.0.0.0.0.0.0.0.0.0.0.>.:.d f 3 ;.>.*.0.8.e.0.0.0.0.0.0.0.0.0.*.0.0.0.0.0.0.0.0.0.0.0.0.0.0.0.0.0.0.0.0.0.0.0.0.t.",
"t.w.0.0.0.0.0.0.0.0.0.0.0.0.0.0.0.0.1.h k t p 1 >.*.0.e.e.8.0.0.0.0.0.0.0.0.0.0.0.0.0.0.0.0.0.0.0.*.0.0.0.0.0.0.0.0.0.0.0.0.w.t.",
"e.0.0.0.0.0.0.0.0.0.0.*.*.*.*.0.e.,.1.d q u q d ;.,.*.*.0.*.0.0.0.0.0.0.0.0.0.0.0.0.0.0.0.0.0.0.0.*.*.*.*.0.0.0.0.0.0.0.0.0.e.e.",
"t.e.e.0.0.0.0.0.0.*.,.>.<.<.>.,.8.,.1.d q e t f :.1.>.,.*.*.0.e.0.0.0.0.0.0.0.0.0.0.&.0.0.0.0.0.*.>.<.<.>.,.*.0.0.0.0.0.0.0.w.t.",
"t.e.0.0.0.0.0.0.0.=.1.u.1 < u.<.0.0.1.d q e e z d h 1 ;.>.e.8.e.0.0.0.0.0.0.0.0.0.0.0.0.0.0.0.0.>.;.< < < 2.,.0.0.0.0.0.0.0.0.e.",
"t.w.0.0.0.0.,.8.0.>.s.d l k 2 ;.*.=.1.d q r e w q q k 1 1.,.0.0.0.0.0.0.0.0.0.0.0.0.0.0.0.0.0.0.<.d s x s :.,.,.0.0.0.0.0.0.0.t.",
"t.w.0.0.0.0.0.8.0.>.u.z w q s s.,.*.1.2 q e r e r r w d ;.,.0.0.*.0.0.w.0.*.0.0.0.0.0.0.0.0.0.*.1.d q e 0 < ,.,.0.9.0.0.0.0.w.t.",
"t.e.0.0.0.0.w.8.&.%.:.k e e k p.<.>.;.d x q w e r u e d ;.,.8.e.=.>.>.,.>.>.,.,.*.*.0.0.0.0.0.0.<.d l q s < >.0.0.0.0.0.0.0.e.t.",
"e.e.0.0.0.8.7.6.) +.o.p e e q d 1 u.1 1 d d a x w r r d ;.=.0.>.1.u.u.u.p.p.p.y.;.>.0.0.0.0.0.0.<.< d d < ;.,.0.e.8.0.0.0.0.0.w.",
"t.e.0.0.0.8.) ~ U M } * 0 q q 0 k k f 1 ;.2.:.d k w q d ;.>.=.;.1 z k k a p - 2 < >.0.0.0.0.0.0.*.,.1.1.1.,.,.*.0.0.0.0.0.0.e.t.",
"t.0.0.e.0.8.6.` W ! D . ; , = 9 t q k p.>.,.>.:.1 a d 2 < u.p.2 k w t 9 & # : + X.>.0.0.0.0.0.0.0.*.,.*.*.0.0.0.0.0.0.0.0.0.e.w.",
"t.e.0.0.0.8.8.6.6._ N M A B   % w e l p.>.0.e.>.;.;.;.1 d a z x q r e j ; C A M N ' 0.0.0.0.0.0.0.0.0.0.0.0.0.0.0.0.0.0.0.0.e.t.",
"t.w.0.0.0.0.0.9.9.' ` U H n B # e e 0 p.>.0.0.0.=.0.>.i.s q t e r u e & O Z Y I ^ ' 8.e.0.0.0.0.0.0.0.0.0.0.0.0.0.0.0.0.0.0.0.t.",
"t.w.0.0.0.0.0.0.0.7.) U K P A @ 0 w p u.%.0.0.0.0.0.*.p.s t r r e e 0 = { T L K ~ 6.8.e.0.0.0.0.0.0.0.0.0.0.0.0.0.0.0.0.0.0.e.t.",
"t.0.0.0.0.0.0.0.0.8.6.~ I R N . * * > -.%.0.0.9.0.8.0.p.z w e t j 4 * + } Q E E ` 7.0.e.0.0.0.0.0.0.0.0.0.0.0.0.0.0.0.0.0.0.0.t.",
"t.e.0.0.0.0.0.0.0.8.8.6.N N N N V V ] $.q.0.0.0.0.0.*.< z e r X ; [ V S G _ ) _ 6.8.0.0.0.0.0.0.0.0.0.0.0.0.0.0.0.0.0.0.0.0.e.t.",
"t.e.0.0.0.0.0.0.8.e.8.8.8.8.N m n n Q _ 9.0.0.0.0.8.0.< s i 6 * { Z T R ! 6.7.9.' 0.0.0.0.0.0.0.0.0.0.0.0.0.0.0.0.0.0.0.0.0.0.t.",
"t.0.0.0.0.0.0.0.e.0.e.8.0.9.6.~ L L E / 9.0.0.0.t.8.,.< s e w # C T L I ^ 7.9.0.0.0.0.0.0.0.0.0.0.0.&.0.0.0.0.0.0.0.0.0.0.0.w.t.",
"t.e.0.0.0.0.0.0.0.0.0.,.0.9.6.~ K K U ) 9.0.0.0.e.w.,.:.a q p : F T I U ` 9.w.q.0.0.0.0.0.0.0.0.0.0.0.0.0.0.0.0.0.0.0.0.0.0.w.e.",
"t.t.0.0.0.0.0.0.0.0.0.0.0.0.8.) ^ ^ ) 7.9.0.0.0.e.8.0.1.:.h h -.@.( ^ / 6.9.0.0.0.0.0.0.0.0.0.0.0.0.0.0.0.0.0.0.0.0.0.0.0.0.w.t.",
"e.0.0.0.0.0.0.8.0.8.0.0.e.8.8.' 6.7.8.8.0.0.0.0.0.0.0.*.1.1.1.>.&.7.6.7.9.9.0.0.0.0.0.0.8.,.0.0.0.0.0.0.0.0.0.0.0.0.0.0.0.0.0.e.",
"t.e.0.0.0.0.0.0.0.0.0.0.0.0.0.0.8.' 0.0.0.0.0.0.0.0.0.0.*.*.*.0.0.0.9.0.0.0.0.0.0.0.0.0.0.0.0.0.0.0.0.0.0.0.0.0.0.0.0.0.0.0.0.e.",
"t.e.0.0.0.0.*.>.,.,.,.e.0.0.0.0.e.e.0.0.0.0.0.0.0.0.0.0.0.0.9.0.0.q.q.w.0.0.0.0.0.0.0.0.0.0.0.0.0.0.0.0.0.0.0.0.0.0.0.0.0.0.0.t.",
"w.e.0.0.0.*.>.;.:.:.2.,.0.0.0.0.0.0.0.0.0.0.0.0.0.0.0.0.0.0.0.9.0.0.w.q.0.0.0.0.0.0.0.0.0.0.0.0.0.0.0.0.0.0.0.0.0.0.0.0.0.0.w.t.",
"t.e.0.0.0.>.< d a d < <.0.0.0.0.0.0.0.0.0.0.0.0.0.0.0.0.0.0.0.0.0.0.0.0.0.0.0.0.0.0.0.0.*.e.0.e.8.e.0.0.0.0.0.0.e.8.0.0.0.0.0.t.",
"t.e.e.8.0.1.1 z t q f 2.0.0.0.0.0.0.0.0.0.0.0.' 0.0.0.0.0.0.0.0.0.0.0.0.0.0.0.0.0.0.0.0.8.8.0.8.8.0.0.8.8.0.0.0.0.0.0.0.0.0.w.t.",
"w.e.0.w.0.1.1 k t x d 2.0.0.0.0.0.0.0.0.0.0.0.0.0.0.0.0.0.0.0.*.0.0.0.0.0.0.0.0.0.0.e.8.,.e.,.*.,.,.,.,.e.e.0.0.0.0.0.0.0.0.e.t.",
"w.w.0.0.0.>.< f z a h 1.*.0.0.0.0.0.0.0.0.0.0.0.0.0.0.0.0.0.0.0.0.0.0.0.0.0.0.0.0.0.0.,.,.<.1.1.5.2.2.2.4.>.,.0.0.0.0.0.0.0.e.t.",
"e.e.0.0.0.>.1.:.< < ;.>.0.0.0.0.0.0.0.0.0.0.0.0.0.0.0.0.0.0.0.0.0.0.0.0.0.0.0.0.0.0.0.*.<.u.3 h 2 d 2 2 < ;.=.0.0.0.0.0.0.0.0.w.",
"w.e.0.0.0.0.,.>.,.,.,.e.0.0.0.0.0.0.0.0.0.0.0.0.0.0.0.0.0.0.0.0.0.0.0.0.0.0.0.0.0.0.0.=.;.d 0 q q q q q z p.<.*.0.0.0.0.0.0.e.t.",
"t.e.0.0.0.0.0.0.0.0.' 0.0.0.0.0.0.0.0.0.0.0.0.0.0.0.0.0.0.0.0.0.0.0.0.0.0.0.0.0.0.0.=.>.:.s e r r e r e k 1 >.*.0.0.0.0.0.0.e.w.",
"t.e.0.0.0.0.0.0.0.0.0.0.0.0.0.0.0.0.0.0.0.0.0.0.0.0.0.0.0.0.0.0.0.0.0.0.0.9.*.*.=.,.<.1.< s e r w t 9 9 & y.>.*.0.0.0.0.0.0.e.t.",
"e.e.0.0.0.0.0.0.0.0.0.0.0.0.0.0.0.0.0.0.0.0.0.0.0.0.0.0.0.0.0.0.0.*.0.0.0.0.0.=.<.:.1 1 d q e r 0 = o O .  .*.0.0.0.0.0.0.0.0.w.",
"t.0.0.0.0.0.0.0.0.0.0.0.0.0.0.0.0.0.0.0.0.0.0.0.0.0.0.0.0.0.0.0.0.0.0.0.0.0.*.>.:.d k x q t r e X ..A Z m ' 9.0.0.0.0.0.0.0.e.t.",
"t.0.0.0.0.0.0.0.0.0.0.0.0.0.0.0.0.0.0.0.0.0.0.0.0.0.0.0.0.0.0.0.0.0.0.0.0.0.*.<.p.p w e e e r e & C Y L I ` 8.9.0.0.0.0.0.0.e.w.",
"t.e.0.0.0.0.0.0.0.0.0.0.0.0.0.0.0.0.0.0.0.0.0.0.0.0.0.0.0.0.0.0.=.=.=.=.=.0.=.1.< s w r e t t q = V P J I ` 8.0.0.0.0.0.0.0.e.t.",
"t.0.0.0.0.0.0.0.0.0.0.0.0.0.0.0.0.0.0.0.0.0.0.0.&.0.0.0.0.0.0.>.1.;.:.:.:.:.s.u.1 d a a d * , , O D W U ^ 6.8.e.,.8.0.0.0.0.0.t.",
"t.w.0.0.0.0.0.0.0.0.0.0.0.0.0.0.0.0.0.0.0.0.0.0.0.0.0.0.w.8.*.1.1 d s z s z a f 2 p.;.-.O.] B A S N 6.6.6.8.8.8.0.e.0.0.0.0.w.t.",
"t.e.0.0.0.0.0.0.0.0.0.0.0.0.0.0.0.0.0.0.0.0.0.0.0.0.0.0.0.0.0.;.d l t w w t q k d ;.>.*.' W P H R ) 7.8.&.8.0.0.0.0.0.0.0.0.0.t.",
"t.e.0.0.0.0.0.0.0.0.0.0.0.0.0.0.0.0.0.0.0.0.0.0.0.0.0.0.w.0.*.: d q e e r r e q d ;.=.9.6.R K J I ) 7.*.0.0.0.0.0.0.0.0.0.0.e.t.",
"t.w.0.0.0.0.,.w.0.0.0.0.0.0.0.0.0.0.0.0.0.0.0.0.0.0.0.0.0.9.*.1.1 a k x q e e q s 1 1.<.&.N U I ~ 6.8.e.e.e.0.0.0.0.0.0.0.0.0.e.",
"t.0.0.0.0.0.8.0.0.0.0.0.0.0.0.0.0.0.0.0.0.0.0.0.0.0.0.0.0.0.0.>.;.:.< 2 k w e e q z d 2 : #._ ` 6.7.8.0.0.0.0.0.0.0.0.0.0.0.e.t.",
"t.e.0.0.0.0.0.0.0.0.0.0.0.0.0.0.0.0.0.0.0.0.0.0.0.0.0.0.0.0.0.*.=.,.<.u.d q e 7 e w w k d 2.' 8.8.8.0.0.0.0.0.0.8.0.0.0.w.0.0.w.",
"t.e.0.0.0.0.0.0.0.0.0.0.0.0.0.0.0.0.0.9.0.0.0.0.0.0.0.0.0.0.0.0.0.0.,.;.1 q e 7 e r w q f :.*.0.8.,.0.0.0.0.0.0.0.0.0.0.0.0.t.t.",
"e.e.0.0.0.0.0.0.0.0.0.0.0.0.0.0.0.0.0.0.0.0.0.0.0.0.0.0.0.0.0.0.0.8.,.>.u.a x q k x x z d ;.*.*.0.0.0.0.0.0.0.0.0.0.0.0.0.*.>.4.",
"t.e.0.0.0.0.0.0.0.0.0.0.0.0.0.0.0.0.0.0.0.0.0.0.0.0.0.0.0.0.0.0.0.0.0.,.;.1 1 1 d d d < < >.*.0.0.0.0.0.0.0.0.0.0.0.0.0.0.<.:.f.",
"t.w.0.0.0.0.e.0.0.0.8.0.0.0.0.0.0.0.0.0.0.0.0.0.0.0.0.0.0.0.0.0.0.0.0.,.>.<.1.1.1.1.1.>.>.*.0.0.0.0.0.0.0.0.0.0.0.0.0.0.*.:.h g ",
"t.e.0.0.0.0.8.0.9.0.0.0.0.0.0.0.0.0.0.0.0.0.0.0.0.0.0.0.0.0.0.0.0.0.0.0.0.*.=.=.*.*.*.0.e.0.0.0.0.0.0.0.0.0.0.0.0.0.0.0.,.:.d c ",
"t.e.8.e.0.e.,.,.,.>.,.,.0.0.0.0.0.0.0.0.0.0.0.0.0.0.0.0.0.0.0.0.,.e.e.e.0.0.0.0.0.0.0.9.0.0.0.0.0.0.0.0.0.0.0.0.0.0.w.8.,.< g y ",
"t.e.0.e.0.,.<.;.:.;.1.,.0.0.0.0.0.0.0.0.0.0.0.0.0.0.0.0.0.0.0.0.8.e.8.8.0.0.0.0.0.0.0.0.0.0.0.0.0.0.0.0.0.0.0.0.0.0.0.w.,.:.g y ",
"t.t.w.0.e.>.;.h s d f.4.0.w.0.0.e.e.0.e.0.0.e.e.e.0.0.0.0.w.0.0.e.e.0.0.0.0.0.0.e.e.0.w.0.0.0.w.0.w.0.0.w.0.w.e.0.0.w.0.,.d.g y ",
"t.t.t.w.e.4.f.v c c h 5.e.e.w.e.t.e.w.t.t.w.w.e.w.e.w.e.t.t.t.t.t.e.t.t.t.t.t.t.t.w.e.e.t.e.t.t.e.e.e.e.t.e.e.t.t.e.t.t.r.d.g b "
};
