/* XPM */
static char *result[] = {
/* columns rows colors chars-per-pixel */
"64 64 199 2 ",
"   c #000000",
".  c #0C0202",
"X  c #0D0C02",
"o  c #010A0B",
"O  c #0C0E0B",
"+  c #130403",
"@  c #1C0605",
"#  c #100F03",
"$  c #141203",
"%  c #191705",
"&  c #1B1904",
"*  c #000B15",
"=  c #041617",
"-  c #071A17",
";  c #031618",
":  c #1F1F1F",
">  c #260807",
",  c #2C0807",
"<  c #340A09",
"1  c #3D0E0C",
"2  c #182617",
"3  c #232106",
"4  c #292607",
"5  c #2D2A08",
"6  c #363209",
"7  c #3A3609",
"8  c #352D19",
"9  c #051F20",
"0  c #052022",
"q  c #062728",
"w  c #062B2D",
"e  c #082A2B",
"r  c #132A21",
"t  c #16392A",
"y  c #042A38",
"u  c #073437",
"i  c #093535",
"p  c #093739",
"a  c #093A3C",
"s  c #183F30",
"d  c #303A2E",
"f  c #480E0D",
"g  c #4D110F",
"h  c #541210",
"j  c #5A1412",
"k  c #6C1514",
"l  c #731916",
"z  c #7B1A17",
"x  c #433E0E",
"c  c #733914",
"v  c #403D3D",
"b  c #612523",
"n  c #25491F",
"m  c #1E4325",
"M  c #1B4436",
"N  c #214622",
"B  c #48430D",
"V  c #524C0F",
"C  c #59510E",
"Z  c #454110",
"A  c #554D11",
"S  c #575112",
"D  c #5C5512",
"F  c #5F5813",
"G  c #794416",
"H  c #645D14",
"J  c #6C6415",
"K  c #716816",
"L  c #756B18",
"P  c #7B7318",
"I  c #5A6828",
"U  c #6D7628",
"Y  c #093D41",
"T  c #0A4346",
"R  c #0A4A4D",
"E  c #164F48",
"W  c #0D5256",
"Q  c #0E585C",
"!  c #125756",
"~  c #0E6569",
"^  c #10666A",
"/  c #116E73",
"(  c #117377",
")  c #12797E",
"_  c gray42",
"`  c #756969",
"'  c #871E1B",
"]  c #8C1E1B",
"[  c #941F1C",
"{  c #94201D",
"}  c #99211E",
"|  c #AD231F",
" . c #862624",
".. c #A52321",
"X. c #AE2723",
"o. c #B92723",
"O. c #BA2824",
"+. c #C52B27",
"@. c #CA2C27",
"#. c #CE2C28",
"$. c #D32E2A",
"%. c #D92F2B",
"&. c #D7302B",
"*. c #DA302B",
"=. c #DE3732",
"-. c #E7332E",
";. c #E83B37",
":. c #806C17",
">. c #877C19",
",. c #867D19",
"<. c #E9413D",
"1. c #BC5F5C",
"2. c #836463",
"3. c #AB6E6D",
"4. c #7B8026",
"5. c #2D9C7D",
"6. c #34A17B",
"7. c #60BF52",
"8. c #4DB76C",
"9. c #6DCD4E",
"0. c #73DE5C",
"q. c #7EE652",
"w. c #78E259",
"e. c #5CCD6F",
"r. c #4DC27F",
"t. c #5ACB73",
"y. c #52C57A",
"u. c #61CF6D",
"i. c #67D567",
"p. c #8D831C",
"a. c #968B1D",
"s. c #A3971E",
"d. c #A79C1F",
"f. c #888726",
"g. c #9A8F20",
"h. c #9D9120",
"j. c #A19621",
"k. c #A49820",
"l. c #AA9E23",
"z. c #ACA224",
"x. c #B2A524",
"c. c #B6A925",
"v. c #B9AC25",
"b. c #BAAF29",
"n. c #BEB126",
"m. c #C2B428",
"M. c #C4B628",
"N. c #CDBF2A",
"B. c #CFC02A",
"V. c #D3C42B",
"C. c #D7C82B",
"Z. c #DCCC2D",
"A. c #E5D52F",
"S. c #E9D82F",
"D. c #ECDB30",
"F. c #F0DF31",
"G. c #F4E333",
"H. c #F8E633",
"J. c #FFED35",
"K. c #137E84",
"L. c #066DAB",
"P. c #148388",
"I. c #15898F",
"U. c #148D94",
"Y. c #159097",
"T. c #199397",
"R. c #16949B",
"E. c #17989F",
"W. c #249789",
"Q. c #2DA58D",
"!. c #36B18F",
"~. c #3BB58B",
"^. c #2DAB96",
"/. c #22A49E",
"(. c #27AA9E",
"). c #2BAA99",
"_. c #30AD94",
"`. c #35B291",
"'. c #0E88A8",
"]. c #1395A6",
"[. c #169DA6",
"{. c #199EA5",
"}. c #149CA9",
"|. c #189FA8",
" X c #1BA0A6",
".X c #16A1AC",
"XX c #1AA3AA",
"oX c #20A3A0",
"OX c #43BA86",
"+X c #44BC84",
"@X c #8F8E8E",
"#X c #988685",
"$X c #F2928F",
"%X c #F4B0AF",
"&X c #F8D8D7",
"*X c #FBDFDE",
"=X c #FDEBEA",
"-X c #FBF7F7",
";X c #FFFEFE",
/* pixels */
"9.7.Q.I.U.5.6.7.9.9.8.5.I.U.U.U.U.U.U.U.U.U.U.U.U.U.U.U.Y.U.U.U.U.U.U.U.U.U.U.U.U.U.U.U.U.U.U.U.U.U.U.U.U.U.U.U.U.U.U.U.U.Y.U.R.",
"q.i.+X/..X).y.0.q.9.e.`. X X X.X.X X.X X.X X.X X X.X.X X X X X.X X X X.X X.XXX X XXXXX|. X.X X.X X.X.X X.X X X X X.X X X.X XXXXX",
"i.y.~./..X).~.t.i.e.r.Q.! w w W Y. X X.X X X.X.X.X XE./ e e w E.XX XE.i w w W Y.XX X X XXX XXX X X X X.X X.XXX X.X X X.X X.X.XXX",
"+X!.^.oX X/.^.~.+X~.~.W.p     a P.[.[. X X XE. X X XR.Q o   o R. X[.Y.=     a I.{.{.{.{.[.{.{.{. X{.[. X{.{.{.{.[. X X[. X X.XXX",
"^.).oX X[. X/.^.^.^.).T.i     i K.].].[.{.{.{.{.{.{.R.Q     o Y.{. XY.o     u U.[.{.{.{.{.{.{.{.[. X{.{.{.{.{.{.{.{.{.{. X{. X X",
"XX.X[.{.{.{.[.[.].E.E.I.p X X p 5.R.].E.{.{.{.[.E.E.Y.!   X O U.E.E.Y.- X X a P.[.[.E.{.{.[.[.[.E.E.E.E.E.E.E.E.E.E.{.{.[.[. XXX",
".X|.[.{.{.[.[.[.R 0 9 r f.N.N.f.d 9 - W {.{.{.) 9 0 r I B.B.M.r 9 9 r n.B.B.f.r 9 - ^ R.{.{.Q - - 0 0 0 9 9 9 9 0 p  X[.}. X XXX",
"XXXX{.{.{.{.{.{.u     $ l.J.J.s.4     a [.{.[.(     # K J.J.H.$     $ A.J.J.d.4     Q T.{.{.R                     0 [. X[. X XXX",
"XX X{.{.{. X{.{.u o   $ z.J.J.s.4     Y [.[.[./     X K J.J.G.#     $ A.J.J.d.3     Q R.{.{.R                     0 {.{.{.{.{.XX",
"XX X{.{.Y.U.I.U.s & & 5 s.A.A.a.7 & & M U.U.U.~     # K J.J.G.#     % A.J.J.x.7 & & ! P.U.U.E & & & & & & $       0 {.{.{.{.{.XX",
"XX X{.{.~ u w w 4.x.c.l.J Z Z J s.c.v.U w w w 9     # K J.J.G.$     $ A.J.J.S.m.c.v.I t w w U v.v.v.c.v.c.P       0 {.{.{.{. XXX",
"XX X{.{.R o     l.H.J.A.V     S C.J.J.h.            O L J.J.G.$     % A.J.J.J.J.J.J.J X     ,.J.J.J.J.J.J.z.      0 {.{.{.{.XXXX",
"XX X{.{.W o     l.H.J.S.A     S V.J.J.a.            X K J.J.G.$     $ A.J.J.J.J.J.J.K #     >.J.J.J.J.J.J.l.      9 {.{.{.{.{.XX",
"].K.) ) E 7 7 7 n.H.J.F.P 7 7 J z.m.m.p.7 7 7 4     X K J.J.G.B 7 7 B x.m.m.C.H.J.J.K X     p.J.J.J.J.J.J.l.      9 {.{.{.{.XXXX",
"K.w q q I x.v.v.S.J.J.H.V.v.v.p.S x Z K v.v.c.,.    # K J.J.J.n.v.v.x.V Z x >.A.J.J.K X     p.J.J.J.J.J.J.z.      0 {.{.{.{.{.XX",
"/ o     ,.F.J.J.J.J.J.J.J.J.J.d.4     H J.J.J.x.    X K J.J.J.J.J.J.S.%     C Z.J.J.K $     p.J.J.J.J.J.J.l.      9 {.{.{.{.XXXX",
"/ o     >.G.J.J.J.J.J.J.J.J.J.k.4     H J.J.J.x.    X K J.J.J.J.J.J.S.%     C Z.J.J.J X     p.J.J.J.J.J.J.l.      0 {.{.{.{.{.XX",
"P.a a a I g.j.j.j.j.j.l.Z.J.J.k.4     H J.J.J.B.F F H P j.j.k.H.J.J.G.J F H L a.j.j.P H F F x.J.J.S.v.j.j.U a a p W {.{.{.{.XXXX",
"{.U.U.U.E 2 % % & & & 5 x.J.J.k.4     H J.J.J.G.A.A.C.p.% % 3 G.J.J.J.A.A.A.s.6 % & p.C.A.A.G.J.J.M.S % % M W.U.U.Y.{.{.{.{.{.XX",
"XXXX{.{.R o           $ l.J.J.k.4     H J.J.J.J.J.J.D.a.    X D.J.J.J.J.J.J.d.3     a.D.J.J.J.J.J.m.Z     t /.{.{.[.{.{.{.{.XXXX",
"XX X{.{.R o           $ l.H.H.k.4 o . H J.H.H.J.J.J.G.f.    X D.H.J.J.J.J.J.d.3     p.G.J.J.J.J.J.n.x     i /.{.{.{.{.{.{.{.{.XX",
"XX X X{.^ Y Y Y *     X J j.k.>.H F F L j.j.j.b.J.J.G.v.H D H g.j.k.l.G.J.J.d.3     p.D.J.J.N.j.j.P 4     i {.{.{.{.{.{.{.{.XXXX",
"XX X{. X{.].L.L.y o           S C.J.J.g.    o x J.J.J.J.J.J.G.$     $ A.J.J.d.3     p.G.J.J.L             u {.{.{.{.{.{.{.{.{.XX",
"XX X{.{.{.].'.'.y             S V.J.J.g.      x J.J.J.J.J.J.G.$     $ A.J.J.d.3     p.F.J.J.K             i {.{.{.{.{.{.{.{.|.XX",
"XX{.{.{.{.{.{.[.u o     . + + C M.D.S.p.      x D.D.D.D.D.D.A.X     $ V.S.S.h.&     >.C.D.D.K + + +       u {.{.{.{.{.{.{.{.{.XX",
"XXXX{.{.{.{.{.{.u     . f k k c :.>.>.V       3 ,.,.,.,.,.,.P X     X P ,.,.C $     B >.>.,.G k k h @     u {.{.{.{.{.{.{.{.{.XX",
"XX X{.{.{.{.{.{.u     + } -.-.] >                                                           z -.-.X.1     i {.{.{.{.{.{.{.{.{.XX",
"XX|.{.{.{.{.{.{.i o   + } -.-.[ >                                                           ' -.-.X.f     u {.{.{.{.{.{.{.{.XXXX",
"XXXX{.{.{.{.{.{.u     + } -.-.} , + + + + + . + + + + + + + . + + . + + + + + + + + + . + + ' -.-.X.1     i {.{.{.{.{.{.{.{.{.XX",
"XX{.{.{.{.{.{.{.u o   + } -.-.%.o.| | | | | | | | | | | | | | | | | | | | | | | | | | | | | #.-.-.X.1     u {.{.{.{.{.{.{.{.XXXX",
"XX{.{.{.{.{.{.{.u o   + } -.-.-.-.-.-.-.-.-.-.-.-.-.-.-.-.-.-.-.-.-.-.-.-.-.-.-.-.-.-.-.-.-.-.-.-.X.1     u {.{.{.{.{.{.{.{.{.XX",
"XXXX{.{.{.{.{.{.u     + } -.-.-.-.-.-.-.-.-.-.-.-.-.-.-.-.-.-.-.-.-.-.-.-.-.-.-.-.-.-.-.-.-.-.-.-.X.1     u {.{.{.{.{.{.{.{.XXXX",
" X X{.{.[.[.}.}.u     + } -.-.-.-.-.-.-.-.-.-.-.-.-.-.-.-.-.-.-.-.-.-.-.-.-.-.-.-.-.-.-.-.-.-.-.-.X.f     i {.{.{.{.{.{.{.{.{.XX",
"XX X{.{. X X}. Xu o   + } -.-.-.-.-.-.-.-.-.-.-.-.-.-.-.-.-.-.-.-.-.-.-.-.-.-.-.-.-.-.-.-.-.-.-.-.X.1     u {.{.{.{.{.{.{.{.{.XX",
"XX X{.[.[. X X/.i     + } -.-.-.-.-.-.-.-.-.-.-.-.-.-.-.-.-.-.-.-.-.-.-.-.-.-.-.-.-.-.-.-.-.-.-.-.X.1     i {.{.{.{.{.{.{.{.{.XX",
"XXXX{.[.[./.(.`.t o   + } -.-.-.-.-.-.-.-.-.-.-.-.-.-.-.-.-.-.-.-.-.-.-.-.-.-.-.-.-.-.-.-.-.-.-.-.X.1     i {.{.{.{.{.{.{.{.XXXX",
"XXXX[.[. X).~.r.m     + } -.%.%.*.=.<.<.<.;.-.-.-.-.-.-.-.-.-.-.-.-.-.-.-.-.-.-.-.;.<.<.=.&.%.%.-.X.1     p {.{.{.{.{.{.{.{.{.XX",
"XX X[.}. X^.8.i.n     + } o.j > > 2.&X=X&X%X-.-.-.-.-.-.-.-.-.-.-.-.-.-.-.-.-.-.$X&X*X*X` > > 1 } X.1     i {.{.{.{.{.{.{.{.XXXX",
"XX X[.}. X^.r.i.n     + } | 1     ` -X-X;X%X-.-.-.-.-.-.-.-.-.-.-.-.-.-.-.-.-.-.$X=X;X;X_ .   @ ' X.1     i {.{.{.{.{.{.{.{.{.XX",
"XX X[.}. X).~.t.N X   + } X.1     ` -X;X;X%X-.-.-.-.-.-.-.-.-.-.-.-.-.-.-.-.-.-.$X=X;X;X_ o   @ ] X.1     i  X{.{.{.{.{.{.{.XXXX",
"XXXX{.[.{./._.OXm o   + } X.1     v @X@X@X3.-.-.-.-.-.-.-.-.-.-.-.-.-.-.-.-.-.-.1.#X@X@Xd . o @ ] X.1     i oXoX{.{.{.{.{.{.{.XX",
"XX{.{.{.{.{. XoXi     + } X.1     O : : : b -.-.-.-.-.-.-.-.-.-.-.-.-.-.-.-.-.-. .8 : : O     @ ] X.1     i /.{.[.[.{.{.{.{.|.XX",
"XX{.{.{.{.[.{.[.u     + } X.f             g -.-.-.-.-.-.-.-.-.-.-.-.-.-.-.-.-.-.l @           @ ] X.1     t /.oX[.[.{.{.{.{.{.XX",
"XXXX{.{.{.{.[.{.i o   + } | <             g -.-.-.-.-.-.-.-.-.-.-.-.-.-.-.-.-.-.z +           @ ] X.1     i /.{.[.[.{.{.{.{.XXXX",
"XX X{.{.{.{.{.{.u     + } $...] ] ] ] ] ] X.-.-.-.O.j j j j j j j j j j z %.-.-.o.[ ] [ ] ] ] } +.X.1     u E.{.{.{.{.{.{.{.{.XX",
"XX{.{.{.{.{.{.{.u o   + } -.-.-.-.-.-.-.-.-.-.-.*...                    , @.-.-.-.-.-.-.-.-.-.-.-.X.1     u [.{.{.{.{.{.{.{.|.XX",
"XX X{.{.{.{.{.{.u     + } -.-.-.-.-.-.-.-.-.-.-.-...                    , @.-.-.-.-.-.-.-.-.-.-.-.X.1     u ].[.{.{.{.{.{.{.|.XX",
"XXXX{.{.{.{.{.{.u o   + } -.-.-.-.-.-.-.-.-.-.-.-...  .           .     < @.-.-.-.-.-.-.-.-.-.-.-.X.1     u ].[.{.{.{.{.{.{.XXXX",
"XX{.{.{.{.{.{.{.i     + } -.-.-.-.-.-.-.-.-.-.-.-.+.l l l l l l l l l l ] %.-.-.-.-.-.-.-.-.-.-.-.X.1     u ].[.{.{.{.{.{.{.{.XX",
"XX|.{.{.{.{.{.{.i o   + } -.-.-.-.-.-.-.-.-.-.-.-.-.-.-.-.-.-.-.-.-.-.-.-.-.-.-.-.-.-.-.-.-.-.-.-.X.1     u {.{.{.{.{.{.{.{.{.XX",
"XX{.{.{.{.{.{.{.i o   + } -.-.-.-.-.-.-.-.-.-.-.-.-.-.-.-.-.-.-.-.-.-.-.-.-.-.-.-.-.-.-.-.-.-.-.-.X.1     u {.{.{.{.{.{.{.{.{.XX",
"XXXX{.{.{.{.{.{.i     + ' #.#.%.-.-.-.-.-.-.-.-.-.-.-.-.-.-.-.-.-.-.-.-.-.-.-.-.-.-.-.-.-.-.&.#.$.} <     u {.{.{.{.{.{.{.{. XXX",
"XXXX{.{.{.{.{.{.u     . f k k } #.-.-.-.-.-.-.-.-.-.-.-.-.-.-.-.-.-.-.-.-.-.-.-.-.-.-.-.-.-...k k h @     i {.{.{.{.{.{.{.{.{.XX",
"XX{.{.{.{.{.{.{.u o           g +.-.-.-.-.-.-.-.-.-.-.-.-.-.-.-.-.-.-.-.-.-.-.-.-.-.-.-.-.-.k             u {.{.{.{.{.{.{.{.XXXX",
"XX{.{.{.{.{.{.{.u             g O.-.-.-.-.-.-.-.-.-.-.-.-.-.-.-.-.-.-.-.-.-.-.-.-.-.-.-.-.-.k             u {.{.{.{.{.{. X[.|.XX",
"XX X{.{.{.{.{.{.R q 0 - o     1 { O.o.O.O.O.O.O.o.O.O.O.O.O.O.O.O.O.O.O.O.O.O.O.O.O.O.O.O.O.h     o ; 9 9 R {.{.{.{.{.{.{.[.|..X",
"XX X{.{.{.{.{.[.I.K.P.( w     . > , , , , , , , , , , , , , , , , , , , , , , , , , , , , , +     9 Q K.K.I.{.{.{.{.{.[.{.oX/.(.",
"XX X{.{.{.{.{. X{.{.{.U.u                                                                         e ( {.{.{.{.{.{.{.[.[.{.^.~.+X",
"XX X{.{.{.{.[.[.[.[.[.U.i                                                                         q ) [.{.{.{.{.{.{.[.[. X!.y.u.",
"XX X{.{.{.[.[.}.}.}.[.Y.T = = = = = = = = = = = = = = = = = = = = = = = = ; ; ; ; ; ; ; ; = = = = p ) {.{.{.{.{.{.{.[.}. XOXt.i.",
"XX{.{.{. X X XoX/././. X{.{.{.{.{.{.{.{.{.{.{.{.{.{.{.{.{.{.{.{.{.{.{.{.[.|.}.}.}.}.}.}.[.{.{.{.{.{.{.{.{.{.{.{.{.{.}.}.oXOXu.w.",
"XXXX{.[. X/.^.!.~.~._./.{.{.{.{.{.{.{.{.{.{.{.{.{.{.{.{.{.{.{.{.{.{.{.{.[.[.[.}.|.{.[.[.{.{.{.{.{.{.{.{.{.{.{.{.{.[.[.}.oX~.t.w.",
"XXXXXX[.XX).~.y.t.t.OX).{.|.{.|. X|.XXXX|.{.XX{.{.XX{.|.XX{.|.XX|.{.XX{.|.XX[.{.XX{.|.XX|.{.XX|.{.XX{.|.XX X{.XX{.|.|.|. XOXt.w.",
"XXXXXX}.XX).+Xi.q.i.t.`.XXXXXXXXXXXXXXXXXXXXXXXXXXXXXXXXXXXXXXXXXXXXXXXXXXXXXXXXXXXXXXXXXXXXXXXXXXXXXXXXXXXXXXXXXXXXXX.XoX~.u.w."
};
