/* XPM */
static char *result[] = {
/* columns rows colors chars-per-pixel */
"64 64 212 2 ",
"   c #010202",
".  c #010708",
"X  c #020B0B",
"o  c #0B0C0C",
"O  c #06110C",
"+  c #050F10",
"@  c #021313",
"#  c #0B1313",
"$  c #031719",
"%  c #031B1C",
"&  c #0A1A1A",
"*  c #131414",
"=  c #161C16",
"-  c #151919",
";  c #1B1B1C",
":  c #17241C",
">  c #061E20",
",  c #191F20",
"<  c #052425",
"1  c #082728",
"2  c #052A2C",
"3  c #0C292A",
"4  c #142221",
"5  c #192827",
"6  c #0C342D",
"7  c #193C24",
"8  c #092F31",
"9  c #053134",
"0  c #0B3335",
"q  c #063639",
"w  c #073B3E",
"e  c #0E3A38",
"r  c #0A3C3D",
"t  c #153839",
"y  c #242424",
"u  c #212728",
"i  c #252B2C",
"p  c #2B2B2B",
"a  c #2C372C",
"s  c #2A2F30",
"d  c #223536",
"f  c #2E3334",
"g  c #283B3C",
"h  c #333334",
"j  c #333A39",
"k  c #3B3B3C",
"l  c #1E4323",
"z  c #24532D",
"x  c #36473C",
"c  c #093E42",
"v  c #133C41",
"b  c #0D395A",
"n  c #243E40",
"m  c #293E45",
"M  c #283B49",
"N  c #033863",
"B  c #084448",
"V  c #0A474A",
"C  c #0B4A4D",
"Z  c #134042",
"A  c #17594B",
"S  c #0B4D52",
"D  c #06455B",
"F  c #084A5E",
"G  c #164D51",
"H  c #0B5356",
"J  c #0C5559",
"K  c #0B5A5E",
"L  c #145454",
"P  c #155A5B",
"I  c #2A4242",
"U  c #284749",
"Y  c #324344",
"T  c #384543",
"R  c #354B4C",
"E  c #3A4B4C",
"W  c #394B51",
"Q  c #245355",
"!  c #365355",
"~  c #276745",
"^  c #2F7546",
"/  c #2A7854",
"(  c #1D4F64",
")  c #0C5D62",
"_  c #0B5069",
"`  c #325E61",
"'  c #0D6165",
"]  c #0E656A",
"[  c #0E686D",
"{  c #126767",
"}  c #12646B",
"|  c #0F6E73",
" . c #116D72",
".. c #0F7075",
"X. c #0F7379",
"o. c #127275",
"O. c #11757A",
"+. c #127A7E",
"@. c #1E797E",
"#. c #216265",
"$. c #2C6B6E",
"%. c #326264",
"&. c #22736B",
"*. c #297377",
"=. c #28767B",
"-. c #444444",
";. c #444B4C",
":. c #4B4B4B",
">. c #444E53",
",. c #49595A",
"<. c #545454",
"1. c #535959",
"2. c #5C5C5C",
"3. c #4D5E63",
"4. c #526065",
"5. c #646464",
"6. c #65696A",
"7. c #6C6C6C",
"8. c #6F716F",
"9. c #6C7174",
"0. c #737474",
"q. c #747877",
"w. c #747979",
"e. c #7B7C7C",
"r. c #1B837F",
"t. c #27867B",
"y. c #3CA775",
"u. c #5ABD59",
"i. c #48B26D",
"p. c #6BC84A",
"a. c #6CCE51",
"s. c #77DD53",
"d. c #73DF5F",
"f. c #5BC76A",
"g. c #4DC27E",
"h. c #5CCC72",
"j. c #55C778",
"k. c #67D467",
"l. c #70DC62",
"z. c #065B8E",
"x. c #127D83",
"c. c #076597",
"v. c #0F7391",
"b. c #257C82",
"n. c #025BAA",
"m. c #0567A9",
"M. c #0975A7",
"N. c #0B7CA6",
"B. c #7D7E80",
"V. c #148185",
"C. c #14858B",
"Z. c #1A888B",
"A. c #178A93",
"S. c #158C92",
"D. c #178894",
"F. c #128C9C",
"G. c #149097",
"H. c #1C9293",
"J. c #17959C",
"K. c #1A959C",
"L. c #17989F",
"P. c #1A999E",
"I. c #248285",
"U. c #21878D",
"Y. c #2A9C87",
"T. c #219B93",
"R. c #299E91",
"E. c #33AC8D",
"W. c #35B28F",
"Q. c #3BB58B",
"!. c #3FB888",
"~. c #28A596",
"^. c #2EAB95",
"/. c #24A59D",
"(. c #26A89C",
"). c #2BAA99",
"_. c #31AD93",
"`. c #35B292",
"'. c #0D82A4",
"]. c #0F8BA6",
"[. c #118DA6",
"{. c #1494A5",
"}. c #179CA5",
"|. c #199EA5",
" X c #179FA8",
".X c #189FA8",
"XX c #19A0A7",
"oX c #17A2AC",
"OX c #1AA3AA",
"+X c #20A3A0",
"@X c #43B881",
"#X c #45BC84",
"$X c #848484",
"%X c #87898B",
"&X c #8B8B8B",
"*X c #949494",
"=X c #979898",
"-X c #9C9C9C",
";X c #A3A3A3",
":X c #A7AAAA",
">X c #ABACAC",
",X c #B4B4B4",
"<X c #BBBBBB",
"1X c #C4C4C4",
"2X c #CCCCCC",
"3X c #CFCFD0",
"4X c #D4D4D4",
"5X c #DBDBDB",
"6X c #E3E3E3",
"7X c #ECECEC",
"8X c #F5F5F5",
"9X c #FEFEFE",
/* pixels */
"a.u.y.T.G.Y.i.u.p.p.i.y.S.S.G.G.G.G.G.G.G.G.G.G.G.G.G.G.G.G.G.G.G.G.G.G.G.G.G.G.S.G.G.S.G.G.D.G.G.F.G.G.G.G.G.G.G.G.G.G.G.G.G.L.",
"s.k.i.~.|.~.i.k.s.a.f.E.L.}.}.}.}.}.XXP.}.XXXX}.P.XX}.}.XX}.}.}.XX}.P.}.XX}.P.XX|..X|.|.|.|.|.}.|.|.|.|.|.}.}.|.|.}.}.}.P.XX|.XX",
"k.g.`./.XX(.!.h.k.h.g._.T.K.K.|.XXXXXXXXXXXXXXXXXXXXXXXXXXXXXXXXXXXXXXXXXXXXXXXX.X.X.X.XOX|.K.T.K.L.|.OXXXXXXXXXXXXXXXXXOXXXXXOX",
"#XQ.^.XX|./.^.!.#X#XW.R.b.*.*.Z.J.L.}.XXXXXXXXXXXXXXXXXXXXXXXXXXXXXXXXXXXXXXXXXX+X|..X|.|.H.b.*.=.U.K.L.|.XXXX|.XXXXXXXXXXXXOXOX",
"_.(.+XXX|.XX/.)._._.R.I.%.E W #.O.+.D.L.|.|.|.|.P.XX|.P.XX|.|.P.|.|.|.P.}.P.}.XX.X|.K.H.U.=.! E ! $.x.x.D.|.|.|.|.|.|.|.|.|.XXOX",
"OXOX.X|.|.|.|.|.|.K.I.%.E k j 5 % 9 K C.|.|.|.J.J.J.K.K.J.J.J.K.K.J.J.J.L.J.J.L.|.L.U.$.! W T k k x g v ' G.}.|.|.XX|.|.XX|.XXOX",
"OX.X|.|.|.|.|.}.K.=.%.Y p ; - o   @ 2 K C.|.D.] S V V V V V V V V V V V V B V ' x.I.$.W g 5 ; ; - ; * # 1 K S.L.|.|.XX|.|.|.XXOX",
"OXOX|.|.|.|.|.K.b.` Y i - o         @ 2 J  .) 0 t E ,.,.,.,.,.,.,.,.,.,.,.,.d 0 C L n p - o .           X 1 ) C.L.|.|.|.|.XXXXOX",
"OXXX|.|.|.|.|.I.%.R s - o             & t Q U g 2.*X>X>X>X>X>X>X>X>X>X>X>X>X5.Y n g d - o                 X 9 ] G.|.XX|.|..XXXOX",
"OXOX|.|.XX|.J.=.W m y o             o i 1.q.q.e.:X5X8X7X7X7X8X7X7X7X7X8X7X7X>X$Xw.9.2.p o                   % H C.|.|.|.|.|.XXOX",
"OXXXXX|.|.|.L.*.E h - .           o y 2.:X4X5X5X7X8X9X9X9X9X9X9X9X9X9X9X9X9X7X5X4X2X>X5.y o                 @ H C.XX|.|.|..XXXOX",
"OXXX|.|.|.|.L.*.T y o           o y 5.>X6X9X9X9X9X9X9X9X9X9X9X9X9X9X9X9X9X9X9X9X9X8X5X;X2.; .               % J C.XX|.|.|.XXXXOX",
"OXXX|.|.|.|.|.*.j *             y 5.;X5X8X9X8X9X9X9X9X9X9X9X9X9X9X9X9X9X9X9X9X9X8X8X6X3X-X2.y o           @ q  .H.|.|.|.|.|.XXOX",
"OXOX|.|.|.|.K.$.d #       o ; p 2.>X5X7X6X4X2X2X2X4X7X9X9X9X9X9X9X9X9X9X8X6X5X4X2X2X3X5X3X;X2.h ; *       > ' C.L.XX|.|.|.|.XXOX",
"OXXX|.|.|.|.J.} 3 o     o p 2.&X,X5X6X4X;Xe.7.5.7.$X1X7X9X9X9X9X9X9X9X8X4X;X*Xe.0.7.$X,X5X3X;X$X2.p o     < O.K.|.|.|..X|..XXXOX",
"OXOX|.|.|.|.L.o.c $     o k *X3X7X7X4X;X7.h ; * - j q.<X8X9X9X9X9X9X8X4X;X5.-.h ; ; j 0.,X5X4X1X*X:.*     < O.K.|.|.|.|.|.XXXXOX",
"OXOX|..X.X|.|.A.[ q O X : 1.;X6X8X4X;X8.-.h p y * * h &X5X9X9X9X9X9X6X,X7.-.h h y ; * h e.<X4X4X:X5.y o O e @.P.XX|.XXP.XX}.XXXX",
"OXXX|.|..X|.|.L.C.{ 6 4 -.e.<X6X5X:X0.:.k <.0.7.-.* ; 7.4X9X9X9X9X9X6X-X-.y :.7.7.-.; * k 0.<X4X<X&X:.: 7 &.H.P.|.XX}.XXXXXXXXOX",
"OXXX|.|.|.|.|.}.L.Z.A x 6.;X3X7X3Xe.<.k <.e.=X&X:.; * 5.4X9X9X9X9X9X5X-Xk * <.$X$X8.-.y * k *X4X4X>X0.x z i.R.+X|.XX|.XXXXXXXXOX",
"OXXX|.|.|.}.}.{.L.H.A Y q.<X6X8X1X7.k :.e.*X7.:.p o * 7.4X9X9X9X9X9X5X*Xh o k <.2.0.0.-.o y &X4X5X<Xe.x ~ @X+X+X|.}.XXP.}.XXXXOX",
"OX|..X|.}.{.].N.M.v.L Y q.1X8X9X1X7.k <.*X=Xh o     * 5.3X9X9X9X9X9X4X&Xy   * * p 8.-X<.o p &X4X5X<X$X-.R E.T.XX}.|.|.|.XXP.XXOX",
"OXOX|.|.|.[.N.m.n.c.S I q.1X7X9X1X2.p <.-X;X:.h ; o * 7.2X6X4X4X2X5X1Xe.*   ; h <.&X;X<.* p &X4X5X<Xi.Y G T.+X|.XX|.|.|.}.XXOXOX",
"OXOX|.|.OX[.'.M.m.m.D I q.1X8X9X<X:.y -.=X2X>X*X<.* * 5.,X>X0.0.2.*X;Xe.o   :.&X>X1X>X:.o p &X3X5X<Xe.Y L |.|.|.|.|.|.XX|.XXXXOX",
"OXXX|.|.|.}.[.].'.v.D M q.1X7X9X,X:.; p 7.,X1X&X:.* ; 7.>X$Xk p ; 8.-Xe.;   k $X,X>X0.h o h &X2X3X,Xe.j J }.|.|.|.XX|.|.|.XXXXOX",
"OX|.|.|.|.|.|.}.{.N.D m q.1X8X9X2X5.p ; h 8.*X2.y * h $X<X&Xh * p e.>X*Xk * ; <.$X0.k * y <.;X2X2X>Xe.Y J K.|.|.|.|.|.|.|.|.XXOX",
"OXOX|.|.|.|.|.|.}.D.F m q.1X8X9X6X;X<.y * p -.; * p 7.,X4X<X7.; 5.,X3X,X8.y o ; h p * * :.*X1X2X1X>Xe.E L G.L.|.|.|.|.|.XX|.XXOX",
"OX|.|.|.|.XX|.|.}.F.F m q.1X7X9X9X6X;X<.;     o y 2.*X1X7X8X>Xp -X6X7X2X=X5.p o   o - -.-X5X7X4X1X>X&X4.Q O.G.|.XX|.|.|.|.|.XXOX",
"OXOX|.XXXXL.S.S.C.x.C m q.<X7X9X9X8X5X>X<.y ; h 7.*X8.0.<X4X-Xy *X1X<X$X2.<X0.k y y :.;X6X7X7X4X1X,X;X$XT 0 ..S.L.XX|.XX|.XXXXOX",
"OXOXXX|.L.C.J c w q % f 7.>X3X7X9X9X8X5X<X-X-X:X<X,X5.k <.5.:.* -.2.<.-.:.3X1X>X-X;X,X5X7X7X6X4X1X>X&X<.; # 9 [ S.|.|.|.|.|.XXOX",
"OXXX|.L.V.J < # # @ . * -.8.&X<X6X8X9X8X8X7X7X7X7X4X*X5.7.7.5.2.5.7.5.7.$X6X8X7X7X7X7X8X8X7X4X2X,X&X<.y     @ w [ C.|.|.|.XXXXOX",
"OX|.|.S.' < # - , o   o - p k 0.,X2X5X6X8X9X9X9X9X7X5X2X1X1X1X1X1X1X1X1X4X8X9X9X9X9X9X9X7X3X,X;X&X<.y o       $ r [ G.|.|.|.XXOX",
"OXOX|.C.H $ - p p *         o h 2.7.e.;X4X8X8X8X8X9X8X8X8X8X8X9X8X8X8X9X8X8X8X8X8X9X8X7X<X$X5.2.-.; o           % w o.K..XXXXXOX",
"OX|.K.o.B - p k p *           o o * y <.*X1X<X<X<X<X<X<X<X<X<X<X<X<X<X<X<X<X<X<X<X<X<X>X8.p o o o                 % B G.XX|.XXOX",
"OX|.x.V 5 f k k h * o o .       o ; h k <.2.-.k k -.k k k k k h k k k k k k k k k h k h y o           . o         @ c C.}.|.XXOX",
"OXOX| q 4 k k h ; o y h y o     o ; p k -.h y y y y y * * * * o         o         o               o y h y           < J C.|.XXOX",
"OX|. .0 ; j k y o o :.8.2.-.h -   o ; p p h h k k k h y ; y p * o                               o y <.8.:.          . < O.|.XXOX",
"OX.X .0 ; j j ; o o :.*X,X,X-X<.= * * ; y h -.-.k k k p h h h y o               o o * * * o o * p 5.*X=X:.o           %  .L.XXOX",
"OXOX| 0 = h y *   o :.;X4X7X5X:Xe.e.e.e.B.&Xe.-.y ; y ; ; ; ; - o             y <.7.0.q.8.7.7.5.e.;X<X;X<.            %  .}.OXOX",
"OX|.| 9 * ; *     o :.;X5X9X8X6X4X4X3X4X4X4X<X0.:.-.-.:.:.-.-.:.k k k k -.k k 7.-X2X3X4X2X1X<X<X1X3X2X;X:.o           %  .L.XXOX",
"OXOXo.q & & # X o * :.;X5X8X9X9X8X9X8X8X8X8X7X<X:X;X;X;X;X;X;X;X;X;X;X;X;X-X;X<X5X8X9X8X8X7X6X5X5X5X2X;X<.            < O.|.XXOX",
"OXOXV.K B c r l 6 > <.;X5X8X9X9X9X9X9X9X9X9X9X8X7X7X7X7X7X7X7X7X7X7X7X7X7X7X7X8X9X9X9X9X9X9X7X6X6X4X1X;X<.        . % C V.|.XXOX",
"OXXXL.D.V.V.C.C.{ e <.-X5X8X9X9X9X9X9X9X9X9X9X9X9X9X9X9X9X9X9X9X9X9X9X9X9X9X9X9X9X9X9X9X9X8X7X6X5X3X<X-X<.X @ $ % < B x.L.|.XXOX",
"OX|.|.|.}.}.{. Xx.Z 1.=X1X6X8X9X9X9X9X9X9X9X9X9X9X9X9X9X9X9X9X9X9X9X9X9X9X9X9X9X9X9X9X9X8X7X6X6X5X2X<X-X<.& G ) ]  .x.L.|.|.XXOX",
"OXOX|.|.}.}.}. Xx.v ;.%X,X2X6X8X9X9X9X9X9X9X9X9X9X9X9X9X9X9X9X9X9X9X9X9X9X9X9X9X9X9X9X9X8X7X6X5X4X1X,X-X<.3 o.A.J.J.L.|.XX|.XXOX",
"OXXX|.|.XXXX|.|.C.G U 7.*X,X2X6X8X8X9X9X9X9X9X9X9X9X9X9X9X9X9X9X9X9X9X9X9X9X9X9X9X9X9X9X7X6X6X4X1X<X>X%X>.c x.K.|.|.|.|.|.|.XXOX",
"OXOX|.|.|.|.|.|.S. .G >.0.=X,X2X6X8X9X9X9X9X9X9X9X9X9X9X9X9X9X9X9X9X9X9X9X9X9X9X9X9X8X8X7X6X5X2X1X,X*X6.U _ v.|.|.|.|.|.|.|.OXOX",
"OXXX|.XX|.|.|.|.}.C.J I 1.$X-X,X4X7X9X9X9X9X9X9X9X9X9X9X9X9X9X9X9X9X9X9X9X9X9X9X9X9X7X7X6X5X5X2X<X;Xi.:.b c.F.}.|.|.|.|.|.|.XXOX",
"OXOX|.|.|.XX|.|.|.J.' Z >.8.&X;X1X6X8X9X9X9X9X9X9X9X9X9X9X9X9X9X9X9X9X9X9X9X9X9X9X8X7X6X6X5X2X1X<X-XB.M N M.[.}.|.|.|.XX|.|.XXOX",
"OXXX|.|..X|.|.|.|.P.x.P U 1.0.&X>X3X5X7X8X8X9X9X9X9X9X9X9X9X9X9X9X9X9X9X9X9X9X9X8X7X6X6X5X2X<X<X;XB.3.b z.M.J.}.|.|.|.|.|.|.OXOX",
"OXXX|.|.|..X|.|.|.|.J.x.P U ,.0.&X:X<X3X6X8X9X9X9X9X9X9X9X9X9X9X9X9X9X9X9X8X8X8X7X6X6X4X2X1X<X>X%X3.( c.F.[.{.|.|.|.|.|.|.XXXXOX",
"OXXX|.|.|..X|.|.|.|.|.H. .G g <.7.$X;X<X4X6X8X8X8X9X9X9X9X9X9X9X9X9X8X9X8X8X7X6X6X5X4X3X<X:X-Xe.1.( ( v.F.}.|.|.|.|.|.|.|.|.XXOX",
"OXOX|.|.|.XX|.|..X|.P.A.} r & p -.<.B.;X<X2X5X5X5X5X6X6X8X9X9X9X9X8X8X8X7X6X6X5X4X2X1X,X*X0.5.:.M v G } x.|.}.|.|.|.|.|.|.|.XXOX",
"OXOX|.|.XX|.XX|.|.|.D.o.V 1 * - y h 2.$X=X>X<X1X1X1X2X4X6X7X7X7X7X6X6X6X5X5X5X3X1X>X-X&X5.k h h p - > 8 } {.|.|.|.|.|.|.|.XXOXOX",
"OX|.|.|.|.|.|.|.|.{.O.V t y y y y h :.2.2.0.;X>X:X,X,X1X2X3X3X2X3X2X2X1X1X<X<X,X;XB.2.-.j p y y p * . $ S H.L.|.|.|.|.|.|.|.XXOX",
"OXXX|.|.|.XX|.|.|.K.) 8 i h k k k k k p y k 6.8.0.$X=X>X;X;X;X;X;X;X;X:X;XB.0.0.7.:.p y p h p y ; o . + 0 | S.|.|.|.|.|.}.|..XOX",
"OXOX|.|.|.|.|.|.|.H.) 3 y k k k h h h ; * * ; y y k 7.e.q.8.7.8.7.8.0.e.e.h a a p p p p h y - o . .     @ w x.|.XX|.|.|.|.|.OXOX",
"OXXX|.|.|.|.XX|.|.G.K 2 u j h p - = * *           # s x j f f f h f j x j * l l : : h k p = o             1 +.L.|.|.OX}.XX/.(.).",
"OXOX|..X|.|.|.|.|.J.K 2 ; p h -                   X > 8 9 9 9 9 9 9 9 0 0 6 / ^ l = y y ;                 1 O.J.|.|.}.}.XX^.W.#X",
"OXOX|.|.XX|.}.}.}.J.' 2 # - y *                   > H +.V.x.V.V.x.x.x.@.r.t.Y./ 6 X .                   . 9 x.J.|.|.|.}./.`.g.h.",
"OX|.|.|.|.|.}.}.}.}.x.J 2 # * o . .           . . 2 ] G.L.}.P.L.|.|.L.|.P.+XXXO.q X . .   . .         @ 9 [ S.L.|.OX}.}./.!.h.l.",
"OXXX|.|.|.XX/./.(./.T.r.J w 9 9 9 9 9 9 2 9 9 9 q C O.{.}.XX}.XX}.XX}.XXXX}.}.V.H q 9 9 9 9 9 9 9 9 9 c ' S.L.|.XX}.}.}./.Q.h.d.",
"OXOX|.|.XX/.).`.Q.Q._.T.C.X.......X.| | X.....X...x.G.}.XXXXXX}.XX}.XXXX|.}.}.G.V.X.X.| | ..| ..X.X.X.O.D.|.XX|.|.|.}.}./.!.h.d.",
"oXOXOX}.OX(.Q.g.h.j.#X^.XX.XOXoXXXXXXXXXXXXXXXXXXXXXXXXXXXOXXXXXXXXXXXXXXXXXXXXXXXXXXXXXXXXXoXXXXXXXXXXXXXXXXXOXXXXXoXoX/.Q.h.d.",
"OXoXOXOXOX).#Xk.d.l.j.`.OXoXOXOXOXOXOXOXOXOXOXOXOXOXOXOXOXOXOXOXOXXXOXOXOXOXOXoXOXOXOXOXOXoXOXOXOXOXOXoXOXOXOXOXOXOXoXoX(.!.h.d."
};
