/* XPM */
static char *result[] = {
/* columns rows colors chars-per-pixel */
"64 64 216 2 ",
"   c #010101",
".  c #010B0B",
"X  c #0B0C0B",
"o  c #09190F",
"O  c #031414",
"+  c #091215",
"@  c #041A1B",
"#  c #131313",
"$  c #131C1A",
"%  c #1B1C1B",
"&  c #1F201F",
"*  c #0A1A25",
"=  c #181E21",
"-  c #091B3D",
";  c #042022",
":  c #0C2324",
">  c #06252E",
",  c #06292C",
"<  c #092D2E",
"1  c #152423",
"2  c #1F2323",
"3  c #19252A",
"4  c #11292A",
"5  c #1E2B2B",
"6  c #0E332D",
"7  c #163629",
"8  c #062634",
"9  c #052E31",
"0  c #0C2F30",
"q  c #112032",
"w  c #093436",
"e  c #06353A",
"r  c #07393B",
"t  c #0A3B3B",
"y  c #183734",
"u  c #242424",
"i  c #232B26",
"p  c #25292A",
"a  c #2B2B2B",
"s  c #27352B",
"d  c #292F30",
"f  c #293633",
"g  c #2B3939",
"h  c #333433",
"j  c #353837",
"k  c #3B3C3C",
"l  c #13493F",
"z  c #274B26",
"x  c #35532C",
"c  c #2C4630",
"v  c #3F403F",
"b  c #285836",
"n  c #33733E",
"m  c #073F42",
"M  c #032756",
"N  c #3B3E40",
"B  c #012E77",
"V  c #094346",
"C  c #094549",
"Z  c #0A4A4C",
"A  c #144A4C",
"S  c #084654",
"D  c #0D5254",
"F  c #0C565A",
"G  c #0C5A5E",
"H  c #1C5456",
"J  c #145B5C",
"K  c #2A4E4B",
"L  c #354443",
"P  c #3D4343",
"I  c #3C4847",
"U  c #344A4B",
"Y  c #3A4B4B",
"T  c #285B5D",
"R  c #385354",
"E  c #395556",
"W  c #16635D",
"Q  c #266D59",
"!  c #2B7251",
"~  c #0E5D62",
"^  c #034275",
"/  c #0D6166",
"(  c #0E666B",
")  c #0E6A6E",
"_  c #1C7467",
"`  c #0E6D72",
"'  c #196E72",
"]  c #0F7277",
"[  c #117176",
"{  c #11767B",
"}  c #12797F",
"|  c #2F686A",
" . c #296F6F",
".. c #306467",
"X. c #28777B",
"o. c #434343",
"O. c #454946",
"+. c #4C4C4C",
"@. c #475656",
"#. c #4E5252",
"$. c #4A5858",
"%. c #525252",
"&. c #575D56",
"*. c #5C5C5C",
"=. c #476E5D",
"-. c #596564",
";. c #636464",
":. c #666966",
">. c #6B6C6C",
",. c #737373",
"<. c #7C7C7C",
"1. c #50993D",
"2. c #3C874B",
"3. c #3C8F55",
"4. c #1F877D",
"5. c #36986D",
"6. c #2E9477",
"7. c #3DA672",
"8. c #37A57A",
"9. c #479C52",
"0. c #55B154",
"q. c #46AC6B",
"w. c #58BE62",
"e. c #45B070",
"r. c #49BD7D",
"t. c #6BC94D",
"y. c #7ADB49",
"u. c #62C356",
"i. c #6CD35A",
"p. c #73DA58",
"a. c #7CE352",
"s. c #76E15C",
"d. c #58C46B",
"f. c #5ECC6C",
"g. c #4EC17C",
"h. c #57C773",
"j. c #5BCB71",
"k. c #52C679",
"l. c #64CE65",
"z. c #65D065",
"x. c #68D668",
"c. c #01348C",
"v. c #07588A",
"b. c #04559C",
"n. c #0A698A",
"m. c #0E7789",
"M. c #127D83",
"N. c #117C88",
"B. c #157F94",
"V. c #0354A6",
"C. c #0566A7",
"Z. c #0A79A6",
"A. c #138187",
"S. c #138389",
"D. c #15888F",
"F. c #1C8A8D",
"G. c #188596",
"H. c #158D94",
"J. c #149097",
"K. c #1B9494",
"L. c #17949A",
"P. c #1B969B",
"I. c #17989F",
"U. c #1A999F",
"Y. c #238488",
"T. c #22858A",
"R. c #279989",
"E. c #219B93",
"W. c #239C98",
"Q. c #1EA19F",
"!. c #35AC89",
"~. c #3EB585",
"^. c #36B18E",
"/. c #3CB58A",
"(. c #3FB888",
"). c #27A597",
"_. c #2DAB95",
"`. c #23A59C",
"'. c #2AAA99",
"]. c #31AD92",
"[. c #31B198",
"{. c #0D85A7",
"}. c #128FA6",
"|. c #1493A4",
" X c #169DA5",
".X c #199EA5",
"XX c #169EA8",
"oX c #1AA0A6",
"OX c #17A0AA",
"+X c #1AA3AA",
"@X c #1BAAB2",
"#X c #24A9A1",
"$X c #7B8383",
"%X c #43BA83",
"&X c #45BC86",
"*X c #49C084",
"=X c #838383",
"-X c #8B8B8B",
";X c #84928F",
":X c #8F9393",
">X c #939494",
",X c #94999A",
"<X c #9B9B9B",
"1X c #A4A4A4",
"2X c #ACACAC",
"3X c #B4B4B4",
"4X c #BCBCBC",
"5X c #C4C4C4",
"6X c #CBCBCB",
"7X c #CFD0D0",
"8X c #D4D4D4",
"9X c #DCDCDC",
"0X c gray89",
"qX c #ECECEC",
"wX c #F4F4F4",
"eX c #FEFEFE",
/* pixels */
"y.w.8.R.K.R.e.u.t.t.0.R.K.J.J.J.J.J.J.J.J.J.J.H.J.J.J.J.H.J.J.H.J.J.J.J.J.H.J.J.J.J.J.H.J.J.H.J.J.J.H.J.H.J.J.H.J.J.J.J.J.J.J.I.",
"a.f.~.). X_.r.i.p.i.d.^.Q.OX XQ..X X X.X.X.X.X.X X X.X X.X XP.F.F.S.S.J. X.X.X.X.X X X.X.X X.X.X X.X X X.X.X X.X X X X X X.XoX+X",
"x.k.^.`.oX'.(.h.f.j.g._.OXXXXXOXoXoXoXoXoXoX+XoXoXoXoXoX XP.T.| ..H F ` L.oX.XOX+XoXoX.XoX+XoX+XoXoXoXoX+XoX+XoXoXoXoXOXOXoXoX@X",
"*X(._.Q.oX`._.(.*X(.^.Q.Q. XQ.OX.XXX+XoX XoX XoXoX XoX.XP.Y...I P 3 1 V ] L..X.X.XoX.X.X XoX XoXoXoXoXoXoXoX XoXoXoXoX.XoXoXoX+X",
"[.#X`.oX XoXQ.)._._.).Q. XOXI.OX.X.X.X.X.X.XoX XoX.X XU.Y...I o.k 2 X O r M.J. X.X.X.X.X.X.X.X.X.X.X.X.X.X.X.X.X.X.X.X.X X.XoX+X",
"+X+X X X.X.XoXoXI.OXOXOX XOX XQ..X.X.X.X.X.X X X X XL.Y...Y k k = X     O r { J..X.X.X.X.X.X.X.X.X.X.X.X XXX.X.X.X.X.X.X XoXoX+X",
"+XXX XoX.X.X.X X XXX XI.oXI.OXI..X.XoX X.X.X XP.A.` ( T Y P k j # .       + ~ H. X.X.X.X.X.X.X.X.X.X.X.XoXoX.X.X.X.X.X.X XoXoX+X",
"+X+X X X.X.X.X.X XOXOX XoXOXoXoX.X.X.X XL.K.S.{ D w 6 f k o.k a X         . C { S.D.H.L..X.X.X.X.X.X.X.X X X.X.X.X.X.XoX X X+X+X",
"+XoX.X.X.X.X.X.XOXI..X.X.X.X.X.X X XL.L.D.[ ~ A 0 # # u k k a %             < Z F F / M.L..X.X.X.X.X.X.X.X.X.X.X.X.X.X.X.X.XoX+X",
"+XoX.X.X.X.X.X.XQ.OX.X XoX.X.X.X.XH.S.} ' T U L k k k k k j a X             $ p d 4 < G S.P..X.X.X.X.X.X.X.X.X.X.XoX.X.X.X.XoX+X",
"+X+X.XoX.X.X.X.X X XQ.oX.X.X.X.X.X} Z w U $X3X4X4X4X2X<.%.j u               k >.>.O.$ ; F D. X.X.X.X.X.X.X.X.X.X.X.X.X.X.XoXoX+X",
"+XoX.X.X.X.X.X.XOX X X X.XoX.XL.M.Z 4 j <.5XwXeXwXeX0X<X*.j u .             %.-X<X<.O.= < F M. X.X.X.X.X.X.X.X.X.X.X.X.X.XoXoX+X",
"+XoXoX.X.XoX.X.X.X.X.X.X.X XJ.} D < u #.,X9XeXeXeXeXqX3X,.o.u           X & *.>X2X1X=X+.2 0 G N..X.X.X.X.X.X.X.X.X.X.X.X.X.X+X+X",
"+X+X.XoX.X.X.X.X.X.X.XoX XL.A.F y p p o.,.3X0XeXeXeXwX8X<X:.a         X u +.<.<X2X3X1X<.+.5 0 ~ N.P. X.X.X.X.X.X.X.X.X.X.X.XoX+X",
"+XoX.X.X.X.X.X.X.X.X XoX.XK.' A p a u a v <.4X0XeXeXeXqX6X,X%.X .   X & +.<.>X2X3X3X3X1X<.O.5 0 J M.K..XQ..X.X.X.X.X.X.X.X.X+X+X",
"+XoX.X.X.X.X.X.X.XoXW.)._.R._ L h h a u a k <.4XqXeXeXeXwX6X-Xa % # a +.<.>X1X3X4X4X5X3X2X<.O.1 < D 4._.'.`.+X.X.X.X.X.X.X.XXX+X",
"+XoX.X.X.X.X.X.X.X`._.%X7.Q K c j o.;.<.;.j k ,.5XwXeXeXeXwX6X=X>.*.;.<.,X1X3X5X5X6X6X5X4X2X<.o.1 6 Q 5.~._.`.oXoX X.X.X.X.XoX+X",
"+XoX.X.X.X.X.X.X.X).^.q.9.b s j O.,.4X8X2X*.% k ,XwXeXeXeXeXwX0X6X2X<X<X1X3X5X6X9X0X8X5X4X3X2X<.O.i z 9.f./.).oXQ. X.X.X.X.XoX+X",
"+XoXoX.X.X.X XXX.X'.~.3.x s h o.>.1X9XqX6X>.a h >XqXeXeXeXeXeXeXqX8X5X4X4X5X8XqXwXqX9X6X4X4X3X1X,.O.x 1.i.r._.oX X XoX.X XoXoX+X",
"+X+XoX.X.X.X|.}.|.E.!.! s s v O.;.,X8XwX9X1X%.o.>XqXeXeXeXeXeXeXeXqX9X8X9X9XqXeXeXwXqX9X5X4X4X3X>X&.x 1.f.%X).Q. X X.X.X XoXOX+X",
"+XoX.XXX.X|.{.Z.Z.D.6.b h v +.k h ;.4XqXwX7X-X*.>XqXeXeXeXeXeXeXeXeXwXwXwXwXeXeXeXeXwX0X6X5X4X3X<X&.c n q.!.`.oX X.X.X.XoX.XoX+X",
"+XoX.XoX.X}.{.C.b.v.C s O.>.,.k % *.3XwXeX9X>X*.>XqXeXeXeXeXeXeXeXeXeXeXeXeXeXeXeXeXwX0X8X5X4X4X<X;.i l _ E.U.oXoX.X.X.X.X.XoX+X",
"+XoX.X.XXX}.{.C.C.v.0 % %.-X-Xo.h <.6XqX0X3X>.%.>XqXeXeXeXeXeXeXeXeXeXeXeXeXeXeXeXeXwXqX9X6X5X4X1X,.k 1 Z K.U..X.X.X.X.XoX XoX+X",
"+X+X.X.XXXXX}.}.Z.n.> $ %.:X>X%.+.<X4X6X2X>.a k >XqXeXeXeXeXeXeXeXeXeXeXeXeXeXeXeXeXwXqX0X8X5X4X3X-X&.s Z J. X.X.X.X.XoX X X+X+X",
"+X+X.X.X.X.X.X|.}.m.: X o.-X-X+.j *.;.;.+.u # h >XqXeXeXeXeXeXeXeXeXeXeXeXeXeXeXeXeXeXqX0X9X6X4X3X1X>.g Z H..X.X.X.X.XoX.X.XoX+X",
"+XoX.X.X.X.X.X.X|.m.8   h =X1X>.a # # X X X & *.3XwXeXeXeXeXeXeXeXeXeXeXeXeXeXeXeXeXwXqX0X9X6X4X3X1X>.g Z H. X X.X.X.X.X.X.XoX+X",
"+XoX.X.X.XoXoX.XL.M.8 # v -X3X1X;.a % % % a *.2X0XeXeXeXeXeXeXeXeXeXeXeXeXeXeXeXeXeXwXqX0X9X5X4X3X<X>.g V A.L. X.X.X.X.X.X.XoX+X",
"+X+X.X.X.X.X.XoXU.M.< h ;.<.=X=X<.=X=X=X=X-X2X9XeXeXeXeXeXwXeXwXeXeXeXeXeXeXeXeXeXeXwXqX0X9X6X4X3X<X>.d ; D S.U..X.X.X.X.XoXoX+X",
"+X+X.X.X.XoX.X.XU.M.< k >.,.,.,.1X6X9X9X9X9X0XeXeXeXwX0X7X5X4X4X4X9XqXeXeXeXeXeXeXeXwXqX0X9X6X4X2X-X%.u . 9 ` J..X.X.X.X.X.XoX@X",
"+XoX.X.X.X.X.X.XI.M.< u +.<.>X2X8XwXeXeXeXeXeXeXeXwX0X3X<.;.%.%.%.>X6XwXeXeXeXeXeXeXeXqX0X9X6X3X,X:.h X   ; ` J..X.X.X.X.X.X.X+X",
"+XoXoX.X.X.X.X.X XM.< . & ;.1X0XeXeXeXeXeXeXeXeXwX0X3X<.k #       o.-X8XwXeXeXeXeXwXwXwXqX9X5X<X>.h X     ; ) K..X.X.X.X.X.XoX+X",
"+X+X.X.X.X.X.X.XL.M.< X # u ;.3X0XqX0XqX0X0X0X0X8X3X,.O.a #       . k -X8X0X9X0X0X0X0X9X8X5X2X,.d X       * ) L..X.X.X.X.XXX+X+X",
"@X.X.X.X.XXX X X.XN.0 O.;.+.v -.<.=X<.<.,.;.%.%.+.+.o.v a #         # a O.%.%.%.+.%.+.%.+.+.k u X         ; ) J.oXoX X.X.X.XoX+X",
"+X+X.X.X.X X X X|.N.0 *.<X-X;.o.o.+.%.%.O.h u % u h k k a #           X # # # # # # # # # X X X X % % #   ; ) J..X.X.X.X.X.XoX+X",
"+X.X.X.X.X.XQ.Q.E.4.6 :.4X5X<X-.+.%.o.h h u # X % a k k a #                       X X % a a u & a o.o.&   ; ) J..X.X.XoX XoXoX+X",
"+XoX.X.X.XQ.]./.!.5.7 :.6X0X8X1X>X=X%.h a u % % a k k k a #               X X X X X & %.>.,.>.;.>.,.*.a   ; ) J. X.X.X.X.XoXoX+X",
"+XoX.X.X.X).%Xr.w.9.7 :.5XwXwXwXqX5X<.+.o.o.v v k v v k a #             X u j v k o.;.1X6X6X4X3X2X>X>.a   * ) J..X.X.X.X.X.XoX+X",
"+X+XXXXX.X].%Xl.i.0.z :.5XwXeXeXeXqX8X6X5X5X5X2X<.O.o.k a #           X a <.2X4X5X5X7X9X9X9X6X4X3X<X>.a   ; ) K..X.X.X.X.X.XoX+X",
"+X.X.XXX.X_.r.l.i.u.2.=.;X6XqXeXeXeXwXwXwXwXqX7X-X+.v k a #           X h <X8XqXwXwXwXwXqX9X6X4X3X1X>.u   * ) J..X.X.X.X.X.XoX+X",
"@X.X X X.X'.%Xh.l.w.q.Q -.1X0XeXeXeXeXeXeXeXeX0X2X>.+.o.a #           X j <X9XeXeXeXeXwXqX9X6X4X2X<X>.a o t { K..X.X.X.X.X.XXX@X",
"+X.X.X.X.X`.].&X%X%X!.W @.,X0XeXeXeXeXeXeXeXeXwX8X,X*.v a #           # o.1X0XwXeXeXeXqXqX9X6X3X1X-X;.s 7 Q T.U..X.X.X.X.X.XoX+X",
"+X.X.X.X.XoXoXQ.`.'.W./ R ,X0XeXeXeXeXeXeXeXeXeXqX4X>.O.h u X       # h :.2X9XeXeXeXeXqX0X9X6X2X>X,.O.i b 5.W.Q..X.X.X.X.X.XoX+X",
"+X+X.X.X.X X.X XXX X.X~ R ,X0XeXeXeXeXeXeXeXeXeXwX6X=X%.v h %     X a :.1X5X0XwXeXeXwXqX0X9X6X2X-X%.u o b 7.).oX.XXX.X.X.X.XoX@X",
"@X.X.X.X.X.X X X X X|.~ R :X9XeXeXeXeXeXeXeXeXeXeX0X3X<.%.o.a X X a :.,X5X0XqXeXeXeXwXqX0X8X4X1X=Xo.o o b 8.W.oXXX.X.X.X.X.X.X+X",
"+X.X.X.X.X.X.X.X.XP.T.J Y <.5XqXeXeXeXeXeXeXeXeXeXeX0X3X-X>.&.o.v >.<X4X9XwXeXeXeXeXwX0X0X6X3X<X<.O.= > J R.U..XXX.X.X.X.X.XoX+X",
"+X.X.X.X.X.X.X.XP.T.| U I :.<X9XeXeXeXeXeXeXeXeXeXeXwX0X5X3X<X>X>X2X5X9XqXeXeXeXeXqX0X9X8X4X1X>X,.N q M v.G.|..X.X.X.X.X.X.X+X+X",
"+X.X.X.X.X.X.XU.F. .R P N %.=X6XeXeXeXeXeXeXeXeXeXeXeXwXqX0X8X8X8X9X0XqXeXeXeXeXqXqX0X7X5X2X<X<.%.p - B V.C.}..X.X.X.X.X.X.X.X+X",
"+X+X.X.X.X.X.XW.X.E N k h o.:.1X9XwXeXeXeXeXeXeXeXeXeXeXeXeXeXwXwXwXwXeXeXeXeXqXqX9X7X5X2X1X:X;.h * M c.V.Z.}..X.X.X.X.X.X.X.X@X",
"+X+X.X.X.X.X.XT.M.+.k a & a k *.<X9XwXeXeXeXeXeXeXeXeXeXeXeXeXeXeXeXeXeXeXeXwXqX9X8X5X4X2X<X-X%.5 M ^ b.C.Z.|..X.X.X.X.X.X.X+X+X",
"+X+X.X.X.X.X.XP.X.o.a # X # % u %.<X8XwXwXeXeXeXeXeXeXeXeXeXeXeXeXeXeXeXwXwX0X9X8X5X4X2X1X-X;.j q m n.{.{.}.XX.X.X.X.X.X.X.X.X+X",
"+X.X.X.XoX.XoXP.M.K = X       X % %.,X4X8X0XeXeXeXeXeXeXeXeXeXeXeXeXeXeXwX0X9X8X5X4X2X1X-X;.k # * S B.|.|. X X.X.X.X.X.X.X.X+X+X",
"+X+X.X.X.X.XoXU.T.| *             & o.;.-X5XwXeXeXeXeXeXeXeXeXeXeXeXeXwXqX7X5X5X4X2X1X-X>.v %   O S M.|..X.X.X.X.X.X.X.X.X.X.X+X",
"+X+X.X.X.X.X.X.XP.M.,               X # O.1XwXeXeXeXeXeXeXeXeXeXeXwXqX9X8X4X2X2X2X1X-X>.k #     . e ( J. X X.X.X.X.X.X.X.X.X+X+X",
"+X.X.X.X.X.X.X.XU.S.t O               X j -X9XwXeXeXeXeXeXeXeXeXeX9X8X5X3X1X>X-X=X=X>.k #         O m M..X.X.X.X.X.X.X.X.X.X.X@X",
"+X+X.X.X.X.X.X.X.XH.` r @               % %.<X8XqXwXqXwXwXqXqXqX8X5X3X2X1X>X;.+.o.v h # .         . 9 ] .X.X.X.X.X.X.X.X.X.XXX+X",
"+X+X.X.X.X.X.X.X.X XH.( r @             X & %.:X2X2X2X2X2X2X2X2X>X-X=X<.<.;.j % # # X X           . 9 ] .X.X.X.X.X.X.X.X.XXX.X+X",
"+XoX.X.X.X.X X X.X.X XH.( r O           . @ 3 O.@.$.$.$.$.$.$.@.Y U P L L g 1 X                   . 9 [ .X.X.X.X.X.X.X.X.XQ.#X[.",
"+XoX.X.X.X XoXoX.X.X.X.XH./ r O     . @ t V V V V V V V V V V V V V V V V l l 6 O                 . 9 [ XX.X.X.X.X.XXX XQ.'./.&X",
"+XoX.X.XoX.X X X.X X X X XH.( r @ @ , D M.L.L.H.L.K.J.L.L.J.K.L.J.J.L.K.E.R.R._ r O               . 9 [ .X.X.X.X.X.XXXXXQ.].&Xz.",
"+XoX.X.X.X X XoX X X XXX X XH.} ` ` [ A.L..X.X.X X.X.X.X.X XU. X.X.X X XQ.Q.Q.K.` V @             . w [ .X.X.X.X.X.XXX X`.&Xj.x.",
"+XoXoX XoXoXQ.`.).`.`.oX.X.XU.L.L.L.L. X.X.X.X.X X.X.X.X XoX XoXOXoXOX X X X X XH.) Z V , .     . , F S..X.X.X.X.XXXXXXX`./.j.s.",
"+X+X XoXoXQ._.^././._.`..X.X.X.X.X X.X.X.X.X.X.X.X.X.X.X X XoXI.Q.I.OXQ.OX X X XI.J.A.} F 9 ; ; 9 F M.L..X.X.X.X.X|.XXXX`.&Xj.s.",
"@X+X+X XoX`./.g.j.k.%X_.oX.X XoX.XoXoXoX.XoXoXoXoXoX.X.XOXQ.oXoXOXOXoXOXQ.OXOXOXoXoXoX XS.( G ~ ( A.I.oXoXoX.X.X.X+XOXXX#X&Xj.p.",
"@X+X+X+X@X'.*Xx.x.x.k.[.+X+X+X+X+X+X+X+X+X+X+X+X+X+X+XoX+X+X+X+X+XoX+X+XOX+X+XoX+X+X+X+X+X+X+X+X+X+X+X+X+X+X+X+X+X+X+XOX#X&Xj.s."
};
