/* XPM */
static char *result[] = {
/* columns rows colors chars-per-pixel */
"64 64 208 2 ",
"   c #010202",
".  c #040906",
"X  c #020B0C",
"o  c #0B0B0B",
"O  c #020F10",
"+  c #021314",
"@  c #0D1212",
"#  c #091B15",
"$  c #031A1B",
"%  c #0B1B1C",
"&  c #131414",
"*  c #101819",
"=  c #1B1C1C",
"-  c #0E2818",
";  c #13261A",
":  c #041F20",
">  c #042526",
",  c #092626",
"<  c #042A2C",
"1  c #0B2B2D",
"2  c #1A2626",
"3  c #0A302A",
"4  c #1A3B26",
"5  c #052E31",
"6  c #063234",
"7  c #073A3D",
"8  c #0B383A",
"9  c #143836",
"0  c #232423",
"q  c #262A29",
"w  c #2B2B2B",
"e  c #253435",
"r  c #273A33",
"t  c #2C3D3E",
"y  c #323333",
"u  c #333A3A",
"i  c #3C3C3C",
"p  c #19463B",
"a  c #254B2D",
"s  c #254832",
"d  c #284C37",
"f  c #3E423F",
"g  c #2B5237",
"h  c #36793C",
"j  c #40403F",
"k  c #083E42",
"l  c #0F2D56",
"z  c #163B62",
"x  c #084144",
"c  c #0A4A4D",
"v  c #144749",
"b  c #195A47",
"n  c #0B4E52",
"m  c #0D5154",
"M  c #0C5459",
"N  c #0C5A5E",
"B  c #18575A",
"V  c #254545",
"C  c #22484A",
"Z  c #2A4F4E",
"A  c #3D4342",
"S  c #394949",
"D  c #25595A",
"F  c #385859",
"G  c #1A655D",
"H  c #297A55",
"J  c #267558",
"K  c #0C5D62",
"L  c #0B556F",
"P  c #2E5B62",
"I  c #0C6267",
"U  c #0D666A",
"Y  c #0F686C",
"T  c #146866",
"R  c #1B756B",
"E  c #0F6D72",
"W  c #116C71",
"Q  c #0E7077",
"!  c #117377",
"~  c #15777B",
"^  c #11787E",
"/  c #286566",
"(  c #326768",
")  c #2F766C",
"_  c #2B6F73",
"`  c #317072",
"'  c #424343",
"]  c #404842",
"[  c #444C4B",
"{  c #4B4C4C",
"}  c #4C514E",
"|  c #475658",
" . c #4D5C5C",
".. c #535353",
"X. c #525954",
"o. c #5B5C5C",
"O. c #556C4C",
"+. c #4F7153",
"@. c #4D5461",
"#. c #476566",
"$. c #5D6464",
"%. c #5C6968",
"&. c #636463",
"*. c #656B67",
"=. c #6B6C6C",
"-. c #636F71",
";. c #6C7272",
":. c #6D7878",
">. c #747474",
",. c #777878",
"<. c #7D7D7D",
"1. c #2A825F",
"2. c #398855",
"3. c #319272",
"4. c #39A479",
"5. c #59954C",
"6. c #5CB35B",
"7. c #66AB4C",
"8. c #68BC4E",
"9. c #47AA6C",
"0. c #4BB06D",
"q. c #5FC058",
"w. c #67C753",
"e. c #71D351",
"r. c #73D655",
"t. c #72DD5E",
"y. c #79E054",
"u. c #5AC267",
"i. c #5ECB6D",
"p. c #4FC27C",
"a. c #55C674",
"s. c #5ACB72",
"d. c #64CE64",
"f. c #6EDA62",
"g. c #64D26A",
"h. c #04518D",
"j. c #127D83",
"k. c #0E7196",
"l. c #277D81",
"z. c #045AA9",
"x. c #0768A7",
"c. c #0B7DA5",
"v. c #0A74A8",
"b. c #0A7BA8",
"n. c #148185",
"m. c #178487",
"M. c #14848A",
"N. c #1E918A",
"B. c #158D93",
"V. c #1A8895",
"C. c #139097",
"Z. c #1B9395",
"A. c #16949B",
"S. c #1B959C",
"D. c #17999F",
"F. c #1B9A9D",
"G. c #248985",
"H. c #23878B",
"J. c #248A8C",
"K. c #259789",
"L. c #229E9A",
"P. c #1FA29F",
"I. c #2FA589",
"U. c #34A787",
"Y. c #3DB587",
"T. c #36B18E",
"R. c #3CB58A",
"E. c #3EB88B",
"W. c #27A496",
"Q. c #2DAB95",
"!. c #23A49D",
"~. c #2AAB9A",
"^. c #30AD92",
"/. c #34B193",
"(. c #0D83A7",
"). c #0F8AA6",
"_. c #1393A6",
"`. c #169DA6",
"'. c #199EA5",
"]. c #169EA8",
"[. c #189FA9",
"{. c #1AA0A6",
"}. c #17A2AE",
"|. c #1AA3AA",
" X c #24AAA2",
".X c #40B682",
"XX c #45BC83",
"oX c #4AC181",
"OX c #838383",
"+X c #888887",
"@X c #8C8C8C",
"#X c #8F908F",
"$X c #939393",
"%X c #9C9C9C",
"&X c #9EA0A0",
"*X c #A3A3A3",
"=X c #ADADAD",
"-X c #B4B4B4",
";X c #BBBBBB",
":X c #C5C5C5",
">X c #CCCCCC",
",X c #D3D3D3",
"<X c #D8D8D7",
"1X c #DBDBDB",
"2X c #E3E3E3",
"3X c #ECECEC",
"4X c #F3F3F3",
"5X c #FEFEFE",
/* pixels */
"e.6.4.W.Z.K.9.q.e.w.0.4.Z.C.C.C.C.C.C.C.C.C.B.B.C.C.C.C.B.C.C.C.C.C.B.C.C.C.C.C.B.C.C.C.C.C.C.C.C.C.C.C.B.C.C.C.C.C.C.C.C.C.C.D.",
"y.d.Y.W.`.Q.p.d.e.e.a.T.P.`.`.`.'.'.'.'.'.'.`.'.`.`.'.`.'.V.j.! W j.B._.'.'.'.`.'.`.`.`.'.`.`.`.`.`.`.'.`.`.`.`.'.`.'.`.`.'.{.{.",
"f.p.R.!.{.!.E.a.g.i.p.Q.{.].{.{.|.|.{.|.[.[.|.|.|.{.{.'.L.l.D k 6 x E C.'.'.{.|.{.|.|.{.{.{.|.{.{.{.{.{.|.{.|.|.{.{.|.{.|.{.|.|.",
"oXE.Q.{.{.P.^.Y.XXY.T.P.{.{.].{.'.'.'.'.'.'.'.'.`.'.'.S.l.( u & . + k W B.'.'.`.{.'.'.{.{.{.`.{.{.{.'.{.'.'.'.{.{.`.{.`.{.{.|.|.",
"~.~.!.{.`.P.!.~.Q.Q.!.P.{.`.{.`.'.'.'.'.'.'.'.'.'.'.L.l.P [ y o     X 7 ! C.'.'.'.'.'.'.'.'.'.'.`.`.'.'.'.'.'.'.'.'.'.'.`.'.{.|.",
"|.|.'.'.`.`.`.`.`.`.{.`.`.`.{.D.'.'.'.'.'.'.'.'.'.Z.l.P S i y o       X 6 E B.D.'.{.'.'.'.'.'.'.'.{.'.'.'.'.'.{.'.'.'.'.'.'.|.|.",
"}.|.`.`.'.'.`.`.`.`.`.`.`.`.{.{.'.'.'.'.'.'.{.'.'.J._ S j y = o         + 7 M Y j._.'.'.'.'.'.'.'.'.'.'.'.'.'.'.'.'.'.'.'.'.{.|.",
"|.{.`.'.'.'.`.{.`.`.`.`.P.{.`.`.'.'.'.'.'.F.V.j.j.~ / S i 0 o             + $ 6 n W j.B.'.'.'.'.'.'.'.'.'.'.'.'.'.'.'.'.'.`.|.|.",
"|.{.'.'.'.'.{.'.`.{.'.'.'.'.'.'.'.'.'.'.S.H._ T B D Z ' i =               o o * 9 v B W V.V.A.'.'.'.'.'.'.'.'.'.'.'.'.'.'.'.|.|.",
"|.{.'.'.'.'.'.'.`.`.'.'.'.'.'.'.'.'.'.S.H.` F  . . .} ' i 0             . = w u i S S D T W j.A.'.'.'.'.{.'.'.'.'.'.'.{.'.'.|.|.",
"|.{.'.'.'.'.'.'.{.{.`.'.'.'.'.'.'.'.S.H.` | $.$X;X-XOX' y 0             o ' >.+X#X#X#X-.V 8 n j.S.'.'.'.'.'.'.'.'.'.'.'.'.'.'.|.",
"|.{.'.'.'.'.'.'.`.`.`.{.'.'.'.'.'.S.H.` | &.%X,X3X<X$Xu y w = o         & o.#X=X;X;X>X=X=.u 1 n ^ A.'.'.'.'.'.'.'.'.'.'.'.`.|.|.",
"|.{.{.{.'.'.'.'.'.'.'.'.`.'.`.'.F.H.` #.=.%X<X3X4X2X*X..y y w o       o y =.$X-X:X,X3X>X@Xj * : c ~ C.`.'.'.'.'.'.'.'.'.'.'.|.|.",
"|.{.'.{.'.'.'.'.'.'.'.'.{.`.F.F.m.` #.:.%X,X4X5X5X4X,X$X..i w & .   o w o.OX*X;X,X1X1X=X&.w o X > n M.D.'.'.'.'.'.'.'.'.'.'.{.|.",
"|.{.'.'.'.'.'.'.'.'.'.'.!.F.F.G.` #.:.%X,X4X5X5X5X5X4X,X$X&.' w & & w o.OX%X=X;X,X<X-X,.' = o   X 7 ! F.'.{.'.'.'.'.'.'.'.'.|.|.",
"|.{.'.'.'.'.'.'.'.{.!.!.Q.W.G.` #.;.&X,X4X5X5X5X5X5X5X4X<X*X>.X.j j &.+X%X=X;X:X:X-X>...' y = o   > T 3.W.!.'.'.'.'.'.'.'.`.|.|.",
"|.|.'.{.'.'.'.'.{.!.Q..XXX4.) S $.%X>X4X5X5X5X5X5X5X5X5X5X1X-X%X+X+X%X=X-X;X>X:X=X>.j ..OX+X&.0 . # p J 3.I.P.P.`.`.`.'.'.'.{.|.",
"|.{.'.'.'.'.'.'.'.!..Xa.d.7.O.' >.;X3X5X5X5X5X5X5X5X5X5X5X4X3X<X>X>X>X,X,X,X2X,X$Xj 0 =.:X<X-X&.0 o # a 2.4.!.P.{.`.{.`.'.'.{.|.",
"|.{.{.'.'.'.'._.[.!..Xg.r.7.X...OX>X4X5X5X5X5X5X5X5X5X5X5X5X5X4X4X4X4X3X4X3X4X,XOXy w +X1X3X,X%X' = = ; g 3.W.{.`.`.{.{.`.`.{.|.",
"|.|.{.'.'.`.[._._.L..Xd.e.7.O.<.-X2X4X5X5X5X5X5X5X5X5X5X5X5X5X5X5X5X5X5X5X5X5X<XOXj =.;X3X4X>X@Xj i ..] d J K.F.`.`.F.{.{.{.|.|.",
"|.{.'.'.'._.).b.v.V.U.u.8.5.$.%X2X4X5X5X5X5X5X5X5X5X5X5X5X5X5X5X5X5X5X5X5X5X5X,X@X..=X3X4X3X-X..0 { +X*.r b n.F.'.`.'.'.'.'.{.|.",
"|.{.{.'.'.).v.x.z.k.J.9.5.O.*.=X3X5X5X5X5X5X5X5X5X5X5X5X5X5X5X5X5X5X5X5X5X5X5X,X@X..&X2X4X3X=X{ = ..$X>.2 < I B.{.'.'.'.'.'.|.|.",
"|.|.'.'.[._.(.v.x.x.k.3.+.%.#X>X4X5X5X5X5X5X5X5X5X5X5X5X5X5X5X5X5X5X5X5X5X5X5X,XOXi &.=X1X2X;X,.i o.$X=.= + n M.'.'.'.{.'.`.{.}.",
"|.{.'.'.[._._.).(.c.c.j./ -.;X3X5X5X5X5X5X5X5X5X5X5X5X5X5X5X5X5X5X5X5X5X5X5X5X<X<.w 0 &.%X-X*X<.{ o.$X=.= # c M.'.'.'.'.'.{.{.|.",
"|.{.{.{.'.'.'._._.).v.h.z %.:X5X5X5X5X5X5X5X5X5X5X5X5X5X5X5X5X5X5X5X5X5X5X5X5X1X+Xw . 0 ' { { ' i &.%X=.= + c M.'.'.'.'.'.'.{.|.",
"|.|.'.'.'.'.'.[.'.).b.h.l @.;X5X5X5X5X5X5X5X5X5X5X5X5X5X5X5X5X5X5X5X5X5X5X5X5X2X=Xo.= . . . o & j @X=X>.= + c M.'.'.'.'.'.'.|.|.",
"|.{.'.{.'.'.'.{.'._.c.L l @.;X5X5X5X5X5X5X5X5X5X5X5X5X5X5X5X5X5X5X5X5X5X5X5X5X5X3X;Xo.w 0 0 w ' <.;X-X,.y : n m.'.'.'.'.'.'.{.|.",
"|.{.'.'.'.'.{.{.'.).j.k : } -X4X5X5X5X5X5X5X5X5X5X5X5X5X5X5X5X4X4X4X4X4X4X5X5X5X4X2X;X*X*X*X*X%X<.=.=.<.&.t m M.'.'.'.'.'.'.|.|.",
"|.{.'.'.'.'.'.'.'.A.Y 5 + y <.>X4X5X5X5X5X5X5X5X5X5X5X5X5X5X3X>X=X%X%X%X*X<X4X5X5X4X4X3X3X3X2X,X=XOX<.,.o.e m M.'.'.'.'.'.'.|.|.",
"|.[.'.'.'.'.'.'.'.A.I > . & i OX>X3X5X5X5X5X5X5X5X5X5X5X5X3X>X@X&.{ j i { $X>X3X5X5X5X5X5X5X5X4X<X-X#X&.y , c m.'.'.'.'.'.'.|.|.",
"|.{.{.'.'.'.'.'.'.A.K >     o i OX:X3X4X4X4X4X4X4X4X4X4X3X:X$Xo.y = o   o ' $X>X3X4X4X4X3X4X4X4X3X:X<.i o + c M.'.'.'.'.'.'.`.|.",
"|.|.'.'.'.'.'.'.'.A.I > .       y OX;X>X>X:X:X:X:X>X:X:X-X+X..i y w &       ' @X;X:X:X>X:X:X>X:X;XOXy & @ % c M.'.'.'.'.'.'.|.|.",
"|.{.{.`.{.{.].].].A.I > .       o = y ' i 0 0 0 0 0 0 0 0 y i j w o         o = 0 0 0 0 0 0 0 w 0 & = j { e c m.[.[.'.'.'.'.'.|.",
"|.{.`.`.`.`.`.{.].A.I > X q ..i o o = w w w 0 0 0 0 & o = y i i 0 o             .   .   . .     o = { >.&.t m j.'.'.'.'.'.'.|.|.",
"|.{.`.{.{.P.P.P.P.Z.T > @ ' #X@X......=.=...y 0 0 = o o 0 u j i 0 .                       . & y j ..<.@X=.t m M.'.'.'.'.'.'.'.|.",
"|.{.`.`.`.P.W.^.Y.U.G , @ { -X,X-X-X-X;X;X#X' y w w 0 0 y j j i 0 o             o & & = = w { <.@X@X$X$X=.t m M.'.'.'.'.'.'.|.|.",
"|.{.`.`.`.P.Y.p.s.a.J - & } ;X4X4X4X4X4X3X:X+X;.=.=.=.&.{ j j i = o           o 0 ' { o.&.=.$X;X:X=X%X$X=.t m m.'.'.'.'.'.'.|.}.",
"|.{.`.].P.Q.p.d.r.w.h - & { ;X5X5X5X5X5X5X4X2X2X2X1X<X-X=.{ j i 0 o           & ..#X=X:X,X,X,X,X>X=X%XOX$.V N B.'.'.'.'.'.'.{.|.",
"|.{.].`.{.Q.XXd.t.w.h - & { ;X5X5X5X5X5X5X5X5X5X5X5X4X,X>.' j i 0 o           = &.=X<X4X4X2X2X<X>X-X#X&.S G j.S.'.'.'.'.'.'.{.|.",
"{.|.`.`.P.~.Y.a.d.u.2.p 1 ..;X5X5X5X5X5X5X5X5X5X5X5X4X,X,.' j i 0 .         & ' OX;X2X5X4X3X2X<X:X*XOX{ p R S.'.'.'.'.'.'.[.|.|.",
"|.{.[.[.'.W.^.R.XX.XI.R v [ &X2X5X5X5X5X5X5X5X5X5X5X5X<XOXX.' i = o         y =.*X:X3X5X5X3X2X,X;X&XOX{ p R F.D.'.'.'.'.'.'.[.|.",
"|.{.'.'.'.{.P.!.W.!.!.j.c e $.-X3X5X5X5X5X5X5X5X5X5X5X3X;XOX..i 0 o         j OX-X>X3X5X4X3X1X:X=X%X<...s 1.W.{.'.[.'.'.'.'.{.|.",
"|.{.'.'.{.`.'.`.`.].`.M.x % w @X2X4X5X5X5X5X5X5X5X5X5X5X2X;XOX..0 o       0 o.%X;X1X4X4X4X2X<X;X*X%X5...s 1.W.P.'.'.'.'.'.'.|.|.",
"|.|.'.'.'.'.`.'.`.`.`.M.m : = OX2X5X5X5X5X5X5X5X5X5X5X5X5X2X-X>.i 0 = & 0 o.+X-X,X3X4X4X2X1X,X;X*X$X=.f a G N.F.'.[.'.'.'.'.|.|.",
"|.'.'.'.'.'.'.'.'.'.'.Z.W k 2 <.1X4X5X5X5X5X5X5X5X5X5X5X5X5X1X*X>.&.o.o.=.#X=X:X1X4X4X3X1X,X:X;X*X<...0 ; p Y B.'.'.'.'.'.'.[.|.",
"|.|.{.'.'.'.'.'.'.'.'.'.V.K 9 o.;X2X5X5X5X5X5X5X5X5X5X5X5X5X4X>X-X*X*X*X*X=X;X>X2X3X2X2X<X:X;X=X%X=.y o . $ x E B.'.[.'.'.'.|.|.",
"|.{.'.'.'.'.'.'.'.'.'.'.A.! 8 w =.:X4X5X5X5X5X5X5X5X5X5X5X5X5X3X<X:X:X;X;X;X,X1X2X2X2X<X:X;X=X*X#Xo.0 .     $ x ^ '.'.'.'.'.[.{.",
"|.{.'.'.'.'.'.'.'.'.'.'.A.M.m > [ =X3X5X5X5X5X5X5X5X5X5X5X5X5X5X3X1X<X<X1X1X2X3X3X2X,X:X;X=X*X#X=.i &       . , Y '.'.'.'.'.|.|.",
"|.{.'.'.'.'.'.'.'.'.'.'.'.S.j.k A $X<X4X5X5X5X5X5X5X5X5X5X5X5X5X4X4X4X3X4X4X4X4X3X1X>X;X=X%X@X=.j &         . > U `.'.'.'.'.'.|.",
"|.{.'.'.'.'.'.'.'.'.'.'.'.'.V.v e =.=X1X4X5X5X5X5X5X5X5X5X5X5X5X5X5X5X5X5X5X4X3X2X<X;X=X*X@X=.i = o         X < Y '.'.'.'.'.|.|.",
"|.'.'.'.'.'.{.'.'.'.'.'.'.'.V.B w { >.*X1X4X5X5X5X5X5X5X5X5X5X5X5X5X5X5X5X5X3X2X,X:X-X*X@X=.j = .         . : c j.'.'.'.'.'.{.|.",
"|.|.'.'.'.'.'.'.'.'.'.'.'.A.j.D t i { &.%X2X4X5X5X5X5X5X5X5X5X4X4X4X4X4X4X4X2X>X;X;X*X#X=.j = .           X 7 E C.'.'.'.'.'.|.|.",
"|.|.'.{.'.'.'.'.'.'.'.'.S.j.B V i i y i o.%X2X4X5X5X5X5X5X5X4X2X1X1X<X<X1X<X>X:X-X*X$X=.j =               + c M.'.'.'.'.'.'.{.|.",
"|.{.'.'.'.'.'.'.'.'.'.'.A.Y 1 0 i j i y 0 ' *X;X:X:X1X4X4X3X2X>X;X;X;X-X-X-X-X-X*X$X,.' &               X > N B.'.'.'.'.'.'.|.|.",
"|.{.{.'.'.'.'.'.'.'.'.'.A.Y 1 = y j u w & & y i ' o.@X>X:X-X-X=X*X*X*X%X$X#X#X#X+X=.i &               O 5 K M.A.'.'.'.'.`.`.].|.",
"|.|.{.{.'.'.'.'.'.'.'.'.A.W 1 0 y i w = o . o o @ 2 [ >.=.%.&.%.%.$.$.o.X.X...X.} j ; o .           X 6 N M.A.`.'.'.'.'.'.`.|.|.",
"|.{.'.'.'.'.'.`.[.'.'.'.A.E , 0 y w = o         O , 9 Z C C C C C C C V d g g g g a 4 4 - X .   . X 5 N M.A.'.'.'.'.'.`.{.!.W.~.",
"|.{.'.'.'.'.'.`.'.'.'.'.A.W , = 0 = o .       O < n Y U U U U U U Y T T T H H H H H H H b 3 + X + < N j.A.'.'.'.'.'.'.`.{.Q.R.XX",
"|.|.'.'.'.'.`.`.`.`.`.`.A.W < & & o         X > M M.'.'.'.'.'.'.'.`.'.{.!.^.^.^.Q.^.Q.Q.3.I x 7 k K M.'.'.'.'.'.'.'.`.].{./.p.i.",
"{.{.'.'.'.'.`.`.].`.].`.A.Q 6 X         X + > K M.`.'.'.'.'.'.'.'.'.'.'.'.'.P.{.'.P.P.{._.C.C.B.B.C.'.'.'.'.'.'.'.'.`.`.!.E.s.f.",
"|.{.{.[.`.{.P.!.!.!.!.{.'.B.U 5 X . X $ 7 I Y M.A.'.'.'.{.`.'.'.'.'.{.`.'.`.`.`.`.`.`.`.`.`.'.'.'.'.'.'.'.'.'.'.'.'.].].!.E.s.t.",
"|.{.[.'.{.P.Q.T.E.R.^.!.'._.B.T x 7 7 c ! A.A.`.'.'.'.'.`.`.'.'.'.'.'.`.[.'.`.`.`.`.`.`.'.`.'.'.'.'.'.'.'.`.'.'.'.].].].!..Xs.t.",
"|.|.{.[.{.~.R.p.s.a.XX~.{.`.`.B.n.j.j.M.A.'.{.{.{.{.'.'.{.{.{.{.{.{.{.{.{.'.[.'.{.{.{.{.{.{.{.{.{.'.'.'.{.{.{.'.[.'.].]. XE.s.t.",
"|.|.|.|.|.~.oXg.t.f.a./.|.|.|.|.|.|.|.|.|.|.|.|.|.|.|.|.|.|.|.|.|.|.|.|.|.|.|.|.|.|.|.|.|.|.|.|.|.|.|.|.|.|.|.|.|.|.|.}. XXXs.t."
};
