/* XPM */
static char *result[] = {
/* columns rows colors chars-per-pixel */
"64 64 157 2 ",
"   c #312339",
".  c #38283C",
"X  c #3A2C40",
"o  c #423244",
"O  c #4C3C4B",
"+  c #4E375A",
"@  c #563D62",
"#  c #5B3F6C",
"$  c #4F424D",
"%  c #554453",
"&  c #5D4D59",
"*  c #5E5157",
"=  c #63535C",
"-  c #67595C",
";  c #695A5F",
":  c #5A4265",
">  c #5D406B",
",  c #61456F",
"<  c #654B6D",
"1  c #6D5E61",
"2  c #634671",
"3  c #654873",
"4  c #6A4D77",
"5  c #6C4F79",
"6  c #704F7C",
"7  c #6D5474",
"8  c #6E5279",
"9  c #755E74",
"0  c #74567E",
"q  c #755A7C",
"w  c #795D7C",
"e  c #716463",
"r  c #756866",
"t  c #796C67",
"y  c #796D69",
"u  c #7D677B",
"i  c #673A81",
"p  c #6A3D82",
"a  c #703B8B",
"s  c #76369A",
"d  c #7B3D9B",
"f  c #6E4483",
"g  c #734A86",
"h  c #775780",
"j  c #7B5687",
"k  c #765880",
"l  c #7A5D82",
"z  c #7A508B",
"x  c #784194",
"c  c #7D4C92",
"v  c #7E6183",
"b  c #8134AB",
"n  c #8434B2",
"m  c #8B3BB6",
"M  c #8C30BF",
"N  c #903DBB",
"B  c #825E8C",
"V  c #826486",
"C  c #836885",
"Z  c #836588",
"A  c #88678C",
"S  c #87698A",
"D  c #8B6C8E",
"F  c #897087",
"G  c #8D718C",
"H  c #91748E",
"J  c #957C8C",
"K  c #8E6B92",
"L  c #906F91",
"P  c #956B9D",
"I  c #8F7190",
"U  c #927292",
"Y  c #957A92",
"T  c #997A97",
"R  c #9C7B9A",
"E  c #A17F9D",
"W  c #8943AB",
"Q  c #914FAE",
"!  c #915DA2",
"~  c #985EAA",
"^  c #8E44B1",
"/  c #964DB7",
"(  c #9340BE",
")  c #964BB9",
"_  c #994EBB",
"`  c #9453B0",
"'  c #9854B4",
"]  c #9B5DB1",
"[  c #9C51BC",
"{  c #9966A7",
"}  c #9D64AD",
"|  c #9E6DA9",
" . c #A16CAC",
".. c #A074A6",
"X. c #A27BA3",
"o. c #A373AB",
"O. c #A97EAA",
"+. c #A264B6",
"@. c #A56FB3",
"#. c #902EC6",
"$. c #9035C2",
"%. c #953BC4",
"&. c #9637C9",
"*. c #97808D",
"=. c #9C8295",
"-. c #9F819A",
";. c #A08C8F",
":. c #A28797",
">. c #A48C95",
",. c #A4839F",
"<. c #A58A9C",
"1. c #A88D9F",
"2. c #AB939B",
"3. c #AF9A99",
"4. c #B29C9C",
"5. c #A584A0",
"6. c #AB8BA3",
"7. c #AB83A9",
"8. c #AE8BA9",
"9. c #B08FA7",
"0. c #B38EAC",
"q. c #AD92A1",
"w. c #B394A7",
"e. c #B59BA5",
"r. c #B89EA6",
"t. c #B494A9",
"y. c #B996AE",
"u. c #B699A9",
"i. c #BB9EAC",
"p. c #AF82B2",
"a. c #BC97B4",
"s. c #BD9DB0",
"d. c #B9A1A4",
"f. c #BEAAA3",
"g. c #BDA2AC",
"h. c #C0ACA4",
"j. c #C0A4AF",
"k. c #C3ABAF",
"l. c #C7B0AC",
"z. c #CBB6AF",
"x. c #C3A5B1",
"c. c #C6AAB2",
"v. c #C9ADB4",
"b. c #CDB2B6",
"n. c #CFBAB1",
"m. c #CFB3B8",
"M. c #D0B7B7",
"N. c #D0BAB1",
"B. c #D0B6B8",
"V. c #D3B9BA",
"C. c #D9BEBE",
"Z. c #DDC3BF",
"A. c #DDC3C0",
"S. c #DFC8C0",
"D. c #E0C7C2",
"F. c #E2CBC2",
"G. c #E8CFC6",
/* pixels */
"O u G T 2.l.N.N.N.N.N.N.N.N.N.N.N.N.N.N.N.N.N.N.N.N.N.k.2.u : @ < w H H :.d.z.N.N.N.N.N.N.N.N.N.N.N.N.N.N.N.N.N.N.N.n.n.f.*.7 + ",
"% C ,.2.s.C.F.F.D.F.D.D.F.F.F.F.D.D.F.F.F.D.D.D.F.F.F.C.d.F 3 > 0 A R ,.w.v.Z.D.F.D.F.F.F.F.D.D.F.F.D.F.F.D.D.F.F.F.F.S.m.<.q > ",
"& J w.s.v.C.Z.A.D.A.A.A.A.A.A.A.A.A.A.Z.D.A.A.A.C.D.Z.M.e.D 3 , 0 Y w.t.i.m.Z.Z.A.A.A.A.A.A.A.A.A.A.A.A.A.A.A.A.A.A.A.C.b.<.l > ",
"; >.c.v.c.c.c.c.c.c.c.c.c.c.c.c.c.c.c.c.c.c.c.c.c.c.k.i.<.V 3 2 w ,.x.c.c.c.c.c.c.c.c.c.c.c.c.c.c.c.c.c.c.c.c.c.c.c.c.x.u.T 8 > ",
"e 4.V.V.c.u.e.w.t.t.e.w.0.w.w.w.w.e.t.t.t.e.w.w.w.t.t.6.T q 2 2 v 1.V.C.m.x.t.t.w.w.w.w.w.w.w.w.t.w.w.w.w.w.w.w.t.t.t.9.5.I 8 > ",
"t h.A.Z.c.9.,.,.,.5.5.,.,.,.5.5.,.,.5.5.5.5.5.5.5.5.,.E H 0 , < C e.F.F.B.i.6.5.,.,.5.5.5.5.5.,.5.5.5.,.5.5.,.5.5.5.5.,.=.Z 4 # ",
"t h.D.A.c.9.E E ,.E ,.E ,.E ,.,.E ,.E ,.E ,.,.E ,.E ,.R L 0 , 3 C e.F.G.V.i.6.,.,.,.,.E ,.,.,.,.,.,.,.,.,.,.R ,.-.,.E E R Z 4 > ",
"t h.F.A.v.6.,.,.,.,.,.E ,.,.,.,.,.,.,.,.E ,.,.,.,.,.,.R D 0 , 3 C e.F.F.V.i.5.,.,.R ,.,.,.,.,.,.,.,.,.-.,.,.,.,.,.,.,.E R v 4 # ",
"t f.F.Z.v.6.,.,.,.,.,.,.,.,.,.,.,.,.5.,.,.,.,.,.,.,.,.R D 0 , 2 C e.F.F.V.i.6.5.,.,.E 5.5.,.,.,.,.,.,.5.,.5.,.5.,.,.,.-.T Z 4 # ",
"t f.D.Z.c.6.6.,.,.,.,.,.,.,.,.,.,.,.,.,.,.,.,.,.,.,.,.R D 0 , 3 C e.F.G.V.i.6.X.5.,.,.5.,.,.,.,.5.,.,.5.,.,.,.,.,.,.5.,.T Z 4 # ",
"t f.F.Z.c.6.,.,.,.,.,.,.<.,.,.,.,.,.,.,.5.,.<.5.,.,.,.R L 0 , < C e.F.F.M.i.6.,.E ,.,.,.,.,.,.,.,.,.5.5.5.,.5.,.5.5.,.,.R Z 4 # ",
"t f.F.Z.v.6.<.,.,.,.,.,.5.,.,.,.5.,.,.,.,.,.5.5.,.,.,.R L 0 , 3 C 4.F.G.V.i.5.X.5.,.5.,.,.,.5.,.,.,.5.-.5.,.,.,.,.,.,.-.T Z 4 # ",
"t h.D.A.c.6.,.,.,.,.,.,.5.,.,.5.,.,.,.,.,.,.,.,.,.,.,.R L 0 , 3 C e.F.G.M.g.5.5.5.R 5.5.,.,.,.,.,.5.,.,.,.,.5.5.,.,.,.E T Z 5 # ",
"t h.S.A.x.9.,.,.5.,.,.5.,.,.,.,.,.,.,.5.<.,.,.,.,.,.,.R D 0 , < C e.F.F.M.i.6.5.5.5.5.5.,.,.,.,.,.,.,.,.5.,.,.,.,.,.,.,.T v 4 # ",
"t f.S.A.v.6.5.,.,.,.,.,.,.,.,.,.,.5.,.,.,.,.,.,.,.,.,.R L 0 , 2 C e.D.G.M.i.6.E 5.5.5.5.5.,.,.5.,.,.,.,.,.,.5.,.5.,.,.-.R A 4 # ",
"t h.S.A.v.9.<.,.,.,.,.,.,.5.,.,.,.,.,.5.,.,.,.,.,.,.,.R D 0 , 3 C e.F.F.V.i.6.5.5.E 5.R ,.,.,.,.,.,.,.5.5.,.,.,.5.,.,.,.R v 5 # ",
"t h.F.Z.c.6.,.5.5.,.,.,.,.5.,.5.,.,.5.,.,.,.,.5.,.,.,.R H 0 , 2 C e.F.G.V.i.5.5.,.,.5.,.,.,.,.,.,.,.,.,.5.,.,.,.,.,.,.,.T C 4 # ",
"t h.D.Z.c.q.,.,.,.,.,.,.,.,.,.,.,.,.,.,.,.,.,.,.,.,.,.R K 0 , < C e.F.F.V.i.6.5.,.,.,.,.,.,.5.,.5.,.,.,.,.,.,.,.,.5.,.,.R V 4 # ",
"t f.D.Z.c.6.,.,.,.,.,.,.,.<.5.,.,.5.,.,.,.,.,.,.,.,.,.R D 0 2 3 C e.F.F.B.i.5.5.,.5.,.,.,.,.,.,.,.,.5.,.,.,.,.,.,.,.,.,.R Z 4 # ",
"t f.D.A.c.9.<.,.,.,.5.,.,.,.5.5.,.,.,.,.,.5.,.,.5.,.,.R H 0 , 2 C e.F.F.V.i.6.X.5.E ,.,.,.5.,.5.5.,.,.,.,.,.5.,.,.,.5.,.T C 4 # ",
"t h.S.A.c.6.,.,.,.,.5.,.,.,.,.,.,.,.,.,.,.5.,.,.,.,.,.R L 0 , 3 C e.F.G.V.i.6.5.X.,.,.,.,.,.,.,.,.,.5.,.,.,.,.,.,.,.,.,.T Z 4 # ",
"t h.S.A.c.9.,.,.,.,.,.,.,.,.,.,.,.,.,.,.,.,.,.,.,.5.,.R L q 3 4 S e.F.F.V.i.5.5.,.,.,.,.5.,.,.,.,.,.,.,.,.,.,.5.,.,.,.E T A 6 , ",
"t h.S.D.k.9.,.,.,.,.,.,.,.5.,.,.<.,.,.,.,.,.,.,.,.,.,.R U S q l Y d.F.G.V.i.6.,.,.,.,.,.,.,.5.,.,.,.,.,.,.,.,.,.,.5.,.,.R L l 0 ",
"t h.D.A.k.9.<.,.5.,.,.,.,.,.,.,.,.,.O.5.<.,.,.5.,.,.,.,.E U L Y <.b.F.F.B.i.6.,.,.,.,.,.,.,.,.,.,.5.,.,.5.,.,.,.,.,.,.E E T H L ",
"y h.F.D.v.9.,.,.,.,.,.,.,.,.,.,.,.,.6.E ,.,.,.,.,.,.,.,.,.E ,.<.e.B.G.G.C.i.6.5.5.,.,.,.,.5.5.,.,.,.5.5.,.,.,.,.,.,.,.,.,.,.,.,.",
"t h.S.A.k.9.,.,.,.,.E ,.,.,.,.,.,.E ,.E ,.,.,.,.,.,.,.,.,.,.,.,.t.B.F.F.V.i.6.,.,.5.,.,.E ,.5.5.,.X.5.5.,.,.,.,.,.,.,.,.,.E ,.,.",
"- ;.j.d.1.T U U U L U L L U U U L L U U L U U U T E ,.E X... ...O.t.j.k.e.,.Y L I U I U U K U I U U I I U U I U T R E ,.X.X...| ",
"O u J Y D l l l l l l l l l l l l w w B l l l v A Y E X...{ ' ' ~ P T J H C l l l l l l l l l l l l l l l w l v V D R ,.X.| ~ / ",
"X < 8 8 7 3 < 3 3 3 < 3 3 3 < 3 3 3 < 3 < 3 3 4 w L E E { ' ( N m c q 8 8 4 3 3 3 3 3 3 3 3 3 2 2 3 3 3 2 2 2 3 0 V U ,.X.} ) %.",
"  + # , # , # # > > # # > # > > > > > > # # > , 0 D E X. .) $.M b a , , # > > > > > > > > > > > > # > > > # > > 3 v U X...~ N #.",
". @ < 4 8 q q q q q q q q q q q q q q q q q q w D R 1.9.o.` n n d a 4 3 8 7 q q q q q q 9 q q q 9 q q q q q q q v H ,.q.7.| ^ n ",
"o < w S D J :.=.:.=.=.=.=.=.=.=.:.R =.=.T =.=.:.1.e.j.s.7.! d s x z l l C H T =.=.=.=.=.=.=.=.=.=.=.=.=.=.=.=.-.:.q.i.x.y...W s ",
"$ l I -.1.g.g.g.f.g.g.g.f.g.v.g.l.g.g.v.f.c.c.l.b.M.V.b.t.P f p g B L H R w.f.k.v.g.v.g.l.g.g.g.b.g.f.g.g.v.g.g.M.M.A.m.k.5.c i ",
"% v =.8.i.S.G.S.G.F.G.S.G.S.F.S.F.S.F.S.S.S.S.S.F.F.D.C.g.D 3 3 6 S E E w.v.Z.A.S.S.F.S.F.G.S.S.F.F.G.G.S.S.F.F.S.S.S.S.B.1.l > ",
"& F t.u.g.S.G.F.F.F.F.F.G.G.S.S.F.F.S.S.F.F.F.D.F.F.D.M.e.F < > 8 H 6.9.i.B.Z.D.S.S.S.S.F.F.F.S.F.S.F.F.S.G.S.S.S.F.S.S.g.<.k > ",
"= =.s.g.g.B.g.A.b.A.B.B.B.b.M.M.V.V.B.m.V.V.m.m.B.M.M.c.2.C , , q T i.i.x.c.B.M.B.B.V.m.M.M.M.M.B.A.g.A.B.B.B.B.B.B.B.b.g.*.k > ",
"1 2.z.v.v.s.s.s.i.s.i.i.g.u.i.i.i.i.i.i.g.i.i.i.i.i.i.t.R v , , u ,.b.b.c.j.s.s.i.i.i.i.g.i.i.g.i.i.i.i.i.i.i.i.i.u.s.t.e.=.k > ",
"r d.Z.A.g.9.1.1.1.1.8.1.6.6.6.6.6.6.6.6.6.6.6.6.6.6.<.,.U l , 3 V 4.Z.Z.B.s.w.6.6.6.6.6.5.6.6.5.1.1.8.5.1.1.8.5.1.8.8.7.-.v f > ",
"y f.S.A.c.8.,.,.,.,.,.-.,.,.,.,.-.,.-.5.,.R ,.,.,.,.,.R K q , < V e.G.G.V.i.,.,.,.-.5.-.,.,.,.,.5.,.,.,.5.-.,.5.-.5.,.-.=.v 3 : ",
"y f.S.A.c.5.,.,.-.-.,.,.-.,.,.,.5.,.-.,.5.E E ,.E ,.,.R D 0 , 3 C e.F.F.V.i.6.,.,.E ,.5.5.-.,.5.5.,.,.-.,.,.,.-.5.5.-.-.=.l k > ",
"y f.S.A.v.q.5.,.,.5.,.,.,.5.,.,.5.5.,.,.5.,.,.,.,.,.,.R G q , , C e.D.G.V.i.6.,.,.,.X.,.,.,.,.,.,.5.,.5.,.,.,.,.5.5.,.-.R v g > ",
"y f.S.A.g.q.5.5.,.,.,.,.,.,.5.,.,.5.,.,.,.,.5.,.,.,.,.R K k , 3 C e.F.F.V.i.5.5.,.,.,.,.,.5.,.,.,.,.,.,.,.,.5.,.-.5.5.,.T v f > ",
"y f.F.A.v.8.5.,.,.,.,.,.5.5.,.,.,.,.,.,.5.,.,.,.,.,.,.R D 0 2 3 C e.F.F.V.i.6.X.,.,.,.,.,.,.,.5.,.5.,.,.,.,.,.,.5.5.5.-.=.v k : ",
"y f.S.A.c.q.5.,.,.5.,.,.,.,.,.5.,.,.5.,.,.,.,.,.,.,.,.R G k > 3 C e.F.G.V.i.5.5.,.,.,.,.,.,.,.,.,.,.,.,.,.5.,.,.5.5.-.-.=.v i : ",
"y f.S.A.c.q.5.,.,.,.,.,.,.,.,.,.,.,.,.,.,.,.5.,.,.,.,.-.K q , 3 C e.F.F.V.d.6.5.,.,.,.,.,.,.,.,.,.,.,.5.5.5.,.5.5.5.5.-.=.v f > ",
"y f.S.A.c.6.5.,.,.5.5.,.,.5.,.5.,.5.,.5.,.,.,.,.,.,.,.R G q , 3 C e.F.G.V.i.5.,.,.,.,.5.5.,.,.,.5.,.,.,.5.5.,.,.5.5.5.5.T v f > ",
"y f.S.A.c.q.5.,.,.,.,.,.5.,.,.,.5.,.,.,.,.,.5.,.,.,.,.R K 0 , 2 C e.F.F.V.i.6.,.,.,.,.,.,.,.,.,.,.,.,.5.-.5.5.-.5.-.5.-.=.v k # ",
"y f.S.A.c.6.,.,.,.5.,.5.,.,.,.5.,.,.,.5.,.5.,.,.,.,.,.R D 0 , 2 C e.F.F.V.i.5.5.,.,.,.,.,.,.,.5.5.5.,.,.5.5.5.5.5.5.5.-.=.v 3 # ",
"y f.S.A.c.6.,.,.,.,.,.,.,.,.5.,.,.,.5.,.,.,.,.,.,.,.,.-.G 0 , 2 v r.F.F.B.i.5.5.,.,.,.5.5.,.,.,.,.,.,.,.5.-.5.-.5.5.,.-.R v g > ",
"y f.S.A.v.6.,.,.,.,.5.,.,.,.,.,.,.5.,.,.,.,.,.,.5.,.-.-.K 0 , 2 v u.F.F.A.i.8.-.,.,.,.,.,.,.,.,.,.5.,.5.5.5.5.5.5.5.,.-.T v 4 > ",
"y f.S.A.c.6.,.,.,.,.,.,.,.,.,.,.,.,.,.,.,.,.,.,.,.,.,.R I 0 > 3 v g.S.F.m.u.8.5.,.,.,.,.,.,.,.5.,.,.,.5.-.5.5.5.5.,.-.X.=.v 4 > ",
"y f.S.A.c.9.<.,.<.5.,.,.,.5.,.,.,.5.,.5.,.,.,.5.,.,.,.R G q 3 3 v d.S.S.A.i.5.5.,.,.5.,.,.,.,.,.5.5.,.,.5.5.5.-.5.5.5.5.-.v f > ",
"y f.S.A.c.q.,.,.,.,.,.,.<.5.,.,.,.,.5.,.,.,.,.,.,.,.,.R I k > 3 v g.F.F.m.u.8.-.,.,.,.,.,.,.5.,.,.,.,.5.,.,.,.5.5.5.5.-.T v k > ",
"y f.S.A.c.6.5.,.,.5.,.,.5.5.,.,.,.5.,.,.,.5.,.,.,.,.,.R D k 2 2 v f.F.G.A.i.5.5.,.,.,.,.,.,.,.,.,.5.,.5.,.5.,.5.-.5.5.-.T v f > ",
"y f.S.A.c.6.5.,.,.,.,.,.,.,.,.,.,.,.,.,.5.,...,.,.5.,.R K 8 , 2 v e.F.F.B.i.7.,.,.,.,.,.,.,.,.,.,.,.,.,.,.,.5.,.5.5.5.-.-.v 3 : ",
"y f.S.S.c.q.5.5.5.,.5.,.,.,.,.5.,.5.,.5.,.,.5.5.,.5.,.R I 0 , 2 v e.S.G.B.a.5.,.,.,.,.,.,.5.,.,.5.,.5.,.5.,.,.,.5.5.5.5.-.v 3 > ",
"y f.S.A.v.6.5.,.,.,.,.,.,.,.,.,.5.-.5.5.5.5.5.5.5.5.5.R T v k k Y d.F.G.A.i.1.-.5.5.5.,.,.,.,.,.5.5.-.5.5.5.5.5.5.5.5.-.R v v f ",
"y f.F.A.c.q.5.5.,.,.,.,.5.,.,.,.5.5.5.5.-.5.5.5.5.5.5.-.T v v v =.g.F.F.M.r.8.5.-.5.5.5.5.,.5.,.5.5.5.5.5.5.5.5.-.5.5.X.X.U v v ",
"y l.F.S.v.8.5.5.5.5.5.5.5.5.5.5.5.5.5.5.5.5.5.5.-.5.-.5.-.T U =.q.g.G.G.A.i.1.5.5.5.5.5.5.5.5.5.5.5.5.5.5.5.5.5.5.5.5.5.-.=.=.U ",
"y f.S.A.v.q.,.,.5.5.5.5.5.5.5.5.5.5.5.5.5.5.5.5.5.5.5.5.5.-.-.5.e.M.G.G.B.i.8.5.5.5.5.7.5.5.5.,.5.5.5.5.-.5.5.5.5.5.5.5.5.5.5.-.",
"e 3.n.b.i.,.R R T R R T E T E T R R T -.R -.R R R -.5.5.,.....7.0.k.A.S.g.t.-.-.5.-.-.5.R 7.R -.P -.R R 5.-.R R R R R R R X.X...",
"* *.q.q.-.I A A A A A A A A A A D v v K v K v K P T ,.5.,.@.} } p.a.v.B.i.<.U v v v v v v v v v v K K v v v v K v K v D K ! { } ",
"O 9 F F v j k k k k z 0 h h h 0 k k k k k k k l v U ,.X.,.] ) _ +.p.s.i.q.v l k k k k k j l k k k k k k k k k k j k k k j c Q ) ",
"X : 4 8 4 3 3 3 3 3 3 3 3 3 3 3 3 3 3 f 3 3 3 k v P 5.7.@.[ %.&.[ @.9.9.-.l k f 3 3 3 3 3 f 3 3 3 3 3 f 3 3 3 f 3 3 3 4 f d ^ &."
};
